<svg width="373" height="303" viewBox="0 0 373 303" fill="none" xmlns="http://www.w3.org/2000/svg">
<path d="M53.4821 277.272C124.796 311.468 240.419 311.468 311.724 277.272C383.03 243.077 383.038 187.601 311.724 153.443C240.411 119.286 124.796 119.248 53.4821 153.443C-17.8314 187.639 -17.8233 243.084 53.4821 277.272Z" fill="#F5F5F5"/>
<path d="M286.705 222.648C290.618 224.766 298.299 224.035 303.858 221.021L335.932 203.546C341.5 200.532 342.833 196.372 338.921 194.247C335.008 192.122 327.335 192.876 321.767 195.89L289.71 213.38C284.142 216.371 282.8 220.531 286.705 222.648Z" fill="#EBEBEB"/>
<path d="M93.5417 238.766L60.9059 221.096L93.5417 203.426V238.766Z" fill="#EBEBEB"/>
<path d="M185.785 249.338L133.183 220.84L185.793 192.394L185.785 249.338Z" fill="#EBEBEB"/>
<path d="M49.3925 197.45C49.4889 190.291 44.1541 175.394 36.3527 166.012C28.5513 156.631 16.1622 149.691 7.32434 152.426C-0.9511 154.981 -0.187831 165.123 9.73467 171.958C19.6572 178.792 34.561 187.398 38.8112 199.085L47.8499 213.402L49.3925 197.45Z" fill="#7A0B84"/>
<path opacity="0.1" d="M49.3925 197.45C49.4889 190.291 44.1541 175.394 36.3527 166.012C28.5513 156.631 16.1622 149.691 7.32434 152.426C-0.9511 154.981 -0.187831 165.123 9.73467 171.958C19.6572 178.792 34.561 187.398 38.8112 199.085L47.8499 213.402L49.3925 197.45Z" fill="black"/>
<path d="M49.8345 207.254C49.7125 207.244 49.5975 207.196 49.5074 207.118C49.4173 207.041 49.3571 206.937 49.3363 206.824C44.5157 182.327 23.7065 162.222 11.1488 157.693C11.0729 157.674 11.0022 157.64 10.9412 157.593C10.8803 157.547 10.8304 157.489 10.7949 157.423C10.7593 157.357 10.7389 157.285 10.7349 157.211C10.7309 157.138 10.7434 157.064 10.7717 156.995C10.7999 156.926 10.8432 156.864 10.8988 156.812C10.9544 156.759 11.0211 156.719 11.0945 156.692C11.1679 156.666 11.2464 156.654 11.3249 156.658C11.4035 156.661 11.4803 156.68 11.5505 156.714C24.3493 161.333 45.5602 181.769 50.429 206.636C50.443 206.703 50.4426 206.772 50.4279 206.839C50.4133 206.907 50.3846 206.97 50.3435 207.027C50.3024 207.084 50.2498 207.132 50.1886 207.17C50.1275 207.207 50.059 207.233 49.9871 207.246L49.8345 207.254Z" fill="white"/>
<path d="M45.7449 222.852C44.5719 218.813 39.4138 212.114 31.0098 206.53C21.7059 200.359 9.87929 197.435 7.20383 192.68C3.99007 186.968 9.15619 181.663 18.7734 182.884C28.3906 184.105 45.1664 196.644 47.641 215.226L45.7449 222.852Z" fill="#7A0B84"/>
<path d="M47.6651 218.647C47.5578 218.639 47.4554 218.601 47.3699 218.54C47.2845 218.479 47.2196 218.395 47.1831 218.3C39.462 197.269 22.5254 189.726 14.6517 188.679C14.5058 188.66 14.3738 188.587 14.2849 188.477C14.196 188.367 14.1575 188.228 14.1777 188.091C14.1979 187.954 14.2753 187.83 14.3929 187.747C14.5104 187.664 14.6584 187.628 14.8044 187.647C23.5137 188.807 40.3618 196.493 48.2436 217.954C48.2902 218.086 48.2802 218.23 48.2157 218.355C48.1512 218.48 48.0373 218.577 47.8981 218.624C47.8228 218.646 47.7436 218.654 47.6651 218.647Z" fill="white"/>
<path d="M334.269 177.052C334.269 177.052 335.337 161.981 344.818 150.753C354.298 139.526 353.72 134.929 347.18 132.668C340.64 130.408 325.487 143.934 328.829 161.981C332.172 180.028 334.269 177.052 334.269 177.052Z" fill="#7A0B84"/>
<path opacity="0.1" d="M334.269 177.052C334.269 177.052 335.337 161.981 344.818 150.753C354.298 139.526 353.72 134.929 347.18 132.668C340.64 130.408 325.487 143.934 328.829 161.981C332.172 180.028 334.269 177.052 334.269 177.052Z" fill="black"/>
<path d="M331.368 168.446C331.273 168.447 331.182 168.414 331.112 168.354C331.042 168.294 330.999 168.211 330.991 168.122C329.89 151.499 342.4 137.86 347.059 134.771C347.099 134.744 347.143 134.724 347.191 134.714C347.238 134.703 347.287 134.702 347.335 134.709C347.383 134.717 347.429 134.734 347.47 134.759C347.511 134.784 347.546 134.816 347.574 134.854C347.63 134.93 347.653 135.024 347.636 135.116C347.62 135.207 347.566 135.289 347.485 135.344C342.89 138.358 330.613 151.748 331.706 168.077C331.71 168.169 331.677 168.258 331.612 168.327C331.548 168.396 331.458 168.439 331.36 168.446H331.368Z" fill="white"/>
<path d="M331.69 189.53C335.959 190.839 340.333 191.827 344.77 192.484C352.113 193.569 355.359 190.276 355.359 190.276C355.359 190.276 352.467 183.819 348.297 181.987C352.809 182.938 357.117 184.597 361.039 186.893C361.039 186.893 365.523 186.961 367.306 180.541C367.306 180.541 364.655 176.675 355.737 174.588C355.737 174.588 361.16 173.307 368.977 175.175C369.564 175.394 372.063 167.098 372.818 163.27C373.573 159.442 371.934 159.502 368.752 158.681C365.571 157.859 355.022 155.666 353.029 157.302C351.037 158.937 350.024 164.558 350.024 164.558C349.235 162.257 349.132 159.797 349.727 157.445C349.727 157.445 346.867 156.397 342.416 157.611C338.784 158.598 338.607 160.919 338.768 163.541C338.983 165.819 339.523 168.059 340.375 170.202C340.375 170.202 337.539 166.796 337.45 159.404C337.45 159.404 330.01 162.87 328.741 169.803C328.002 173.563 327.022 184.587 331.69 189.53Z" fill="#7A0B84"/>
<path d="M333.088 188.189C333.166 188.189 333.243 188.168 333.309 188.13C333.376 188.091 333.43 188.036 333.465 187.971C339.387 176.419 361.425 162.998 369.315 161.559C369.368 161.55 369.419 161.531 369.465 161.503C369.51 161.476 369.55 161.44 369.58 161.398C369.611 161.356 369.632 161.308 369.643 161.258C369.654 161.208 369.655 161.157 369.644 161.107C369.621 161.006 369.557 160.918 369.466 160.86C369.374 160.802 369.263 160.78 369.154 160.798C361.12 162.267 338.736 175.869 332.718 187.632C332.671 187.725 332.665 187.831 332.701 187.929C332.737 188.026 332.812 188.106 332.911 188.151C332.967 188.175 333.027 188.187 333.088 188.189Z" fill="white"/>
<path d="M46.5162 228.187C45.6083 228.187 45.062 227.486 45.062 226.303V99.5504L210.595 9.93225V136.172C210.538 137.226 210.217 138.253 209.659 139.169C209.101 140.086 208.32 140.866 207.381 141.447L47.8339 227.802C47.4381 228.036 46.9837 228.169 46.5162 228.187Z" fill="#FAFAFA"/>
<path d="M210.097 10.6934V136.172C210.03 137.15 209.723 138.1 209.2 138.948C208.678 139.796 207.953 140.52 207.084 141.063L47.6009 227.418C47.2762 227.615 46.9024 227.73 46.5163 227.75C45.6245 227.75 45.528 226.732 45.528 226.303V99.8067L210.097 10.6934ZM211.037 9.1863L44.588 99.2943V226.303C44.588 227.81 45.3915 228.631 46.5163 228.631C47.0657 228.613 47.6003 228.459 48.0669 228.187L207.558 141.824C208.57 141.204 209.413 140.37 210.017 139.388C210.622 138.406 210.971 137.304 211.037 136.172V9.1637V9.1863Z" fill="#E0E0E0"/>
<path d="M44.5959 99.2943V120.506L211.037 30.3758V9.1637L44.5959 99.2943Z" fill="#7A0B84"/>
<path d="M57.6439 100.425V103.439C57.6439 104.057 58.1179 104.313 58.6883 104.004L109.86 76.2962V71.0215L58.6883 98.7291C58.3861 98.9164 58.1344 99.1671 57.9531 99.4614C57.7719 99.7556 57.666 100.085 57.6439 100.425Z" fill="#FAFAFA"/>
<path d="M115.347 68.0526C115.925 67.7361 116.391 67.9923 116.391 68.6177V71.6319C116.371 71.9713 116.265 72.3015 116.084 72.5959C115.903 72.8903 115.65 73.1408 115.347 73.3273L109.859 76.2963V71.0215L115.347 68.0526Z" fill="#455A64"/>
<path d="M44.588 92.4596C44.654 91.3276 45.0033 90.226 45.6077 89.2441C46.2121 88.2623 47.0546 87.4277 48.0669 86.8081L207.558 0.44521C209.478 -0.594672 211.037 0.24929 211.037 2.32905V9.16364L44.588 99.2942V92.4596Z" fill="#455A64"/>
<path d="M192.534 12.1325C192.063 12.4241 191.673 12.8155 191.393 13.275C191.114 13.7345 190.954 14.2492 190.927 14.7774C190.927 15.757 191.658 16.1489 192.534 15.6666C193.004 15.3734 193.395 14.9806 193.674 14.5199C193.953 14.0592 194.113 13.5434 194.141 13.0142C194.173 12.027 193.442 11.6427 192.534 12.1325Z" fill="#7A0B84"/>
<path d="M197.74 9.32939C197.27 9.62099 196.879 10.0124 196.6 10.4719C196.321 10.9314 196.161 11.4461 196.133 11.9743C196.133 12.9539 196.864 13.3457 197.74 12.8635C198.21 12.5694 198.6 12.1764 198.879 11.7159C199.158 11.2553 199.318 10.74 199.347 10.211C199.347 9.23144 198.608 8.8396 197.74 9.32939Z" fill="#7A0B84"/>
<path d="M202.874 6.52629C202.404 6.81789 202.013 7.20928 201.734 7.66879C201.455 8.12829 201.295 8.64298 201.267 9.17121C201.267 10.1508 201.998 10.5426 202.874 10.0604C203.344 9.76629 203.734 9.3733 204.013 8.91277C204.292 8.45224 204.452 7.93691 204.481 7.40793C204.505 6.42833 203.774 6.0365 202.874 6.52629Z" fill="#7A0B84"/>
<g opacity="0.1">
<path d="M158.813 44.1804C157.776 44.8172 156.912 45.6744 156.294 46.6825C155.676 47.6906 155.319 48.8212 155.254 49.9826C155.254 52.1151 156.861 52.9968 158.813 51.9117C159.852 51.2774 160.717 50.422 161.337 49.415C161.957 48.4081 162.314 47.2781 162.38 46.117C162.389 43.9845 160.782 43.1179 158.813 44.1804Z" fill="black"/>
<path d="M142.503 53.0194C141.464 53.6537 140.6 54.5092 139.98 55.5161C139.36 56.5231 139.002 57.6531 138.936 58.8141C138.936 60.9467 140.543 61.8283 142.503 60.7507C143.541 60.114 144.404 59.2568 145.023 58.2487C145.641 57.2406 145.997 56.1099 146.063 54.9485C146.063 52.816 144.472 51.9645 142.503 53.0194Z" fill="black"/>
<path d="M175.131 35.3866C174.094 36.0218 173.23 36.8776 172.612 37.8845C171.994 38.8914 171.637 40.0209 171.572 41.1813C171.572 43.3139 173.179 44.1955 175.131 43.1104C176.171 42.4766 177.036 41.6212 177.656 40.6142C178.275 39.6071 178.633 38.4769 178.698 37.3157C178.698 35.1455 177.108 34.2789 175.131 35.3866Z" fill="black"/>
<path d="M191.457 26.4949C190.418 27.1292 189.553 27.9847 188.933 28.9916C188.314 29.9986 187.956 31.1286 187.89 32.2896C187.89 34.4221 189.497 35.3038 191.457 34.2187C192.496 33.5844 193.361 32.729 193.981 31.722C194.6 30.7151 194.958 29.5851 195.024 28.424C195.024 26.2915 193.425 25.4249 191.457 26.4949Z" fill="black"/>
</g>
<path d="M61.1549 122.157L99.8888 101.178C101.809 100.138 103.368 100.982 103.368 103.062V137.943C103.302 139.075 102.952 140.177 102.348 141.159C101.744 142.141 100.901 142.975 99.8888 143.595L61.1549 164.566C59.2347 165.606 57.676 164.762 57.676 162.682V127.808C57.742 126.676 58.0913 125.574 58.6957 124.593C59.3001 123.611 60.1426 122.776 61.1549 122.157Z" fill="#E0E0E0"/>
<path d="M116.592 92.1131L197.74 48.1969C199.66 47.1495 201.219 47.9935 201.219 50.0808V84.9545C201.153 86.0866 200.804 87.1881 200.199 88.17C199.595 89.1519 198.752 89.9864 197.74 90.606L116.592 134.522C114.672 135.562 113.113 134.718 113.113 132.638V97.7646C113.179 96.6326 113.529 95.531 114.133 94.5491C114.738 93.5673 115.58 92.7327 116.592 92.1131Z" fill="#E0E0E0"/>
<path d="M61.1549 175.168L122.731 141.824C124.659 140.784 126.218 141.523 126.218 143.474C126.132 144.57 125.772 145.631 125.168 146.573C124.563 147.514 123.731 148.308 122.739 148.892L61.1549 182.236C59.2347 183.276 57.676 182.538 57.676 180.586C57.7619 179.49 58.1215 178.429 58.7259 177.487C59.3303 176.546 60.1624 175.752 61.1549 175.168Z" fill="#E0E0E0"/>
<path d="M61.1549 187.541L122.731 154.197C124.659 153.157 126.218 153.896 126.218 155.847C126.132 156.943 125.772 158.004 125.168 158.946C124.563 159.887 123.731 160.681 122.739 161.265L61.1549 194.609C59.2347 195.649 57.676 194.911 57.676 192.959C57.7619 191.863 58.1215 190.802 58.7259 189.86C59.3303 188.919 60.1624 188.125 61.1549 187.541Z" fill="#E0E0E0"/>
<path d="M61.1549 199.907L122.731 166.563C124.659 165.523 126.218 166.261 126.218 168.213C126.132 169.309 125.772 170.37 125.168 171.311C124.563 172.253 123.731 173.047 122.739 173.631L61.1549 206.975C59.2347 208.015 57.676 207.276 57.676 205.325C57.7619 204.229 58.1215 203.167 58.7259 202.226C59.3303 201.285 60.1624 200.49 61.1549 199.907Z" fill="#E0E0E0"/>
<path d="M90.2797 157.965C90.3209 157.286 90.5313 156.625 90.8941 156.036C91.2569 155.447 91.762 154.946 92.3687 154.574L199.154 96.7548C199.801 96.4464 200.517 96.2856 201.243 96.2856C201.969 96.2856 202.685 96.4464 203.332 96.7548L205.686 98.0283C206.293 98.4004 206.797 98.9013 207.159 99.4905C207.52 100.08 207.729 100.74 207.767 101.419V178.19C207.727 178.868 207.518 179.528 207.157 180.117C206.796 180.706 206.292 181.208 205.686 181.581L98.9167 239.399C98.2695 239.708 97.5537 239.869 96.8278 239.869C96.1018 239.869 95.3861 239.708 94.7388 239.399L92.3847 238.126C91.7776 237.754 91.2722 237.253 90.9093 236.664C90.5465 236.075 90.3363 235.414 90.2958 234.735L90.2797 157.965Z" fill="#7A0B84"/>
<path opacity="0.4" d="M90.8823 156.036L96.8117 159.246L207.148 99.4903C206.795 98.8939 206.29 98.389 205.678 98.0208L203.364 96.7549C202.72 96.4466 202.007 96.2859 201.283 96.2859C200.56 96.2859 199.847 96.4466 199.202 96.7549L92.3686 154.574C91.7496 154.936 91.2383 155.439 90.8823 156.036Z" fill="white"/>
<path opacity="0.1" d="M90.2797 157.965V234.735C90.3202 235.414 90.5304 236.075 90.8933 236.664C91.2561 237.253 91.7615 237.754 92.3687 238.126L94.7228 239.399C94.9037 239.498 95.0948 239.579 95.2932 239.641C95.5727 239.729 95.8606 239.792 96.1529 239.829C96.7018 239.892 97.2579 239.872 97.7999 239.769C97.9388 239.745 98.0757 239.712 98.2097 239.671L98.4587 239.58C98.3002 239.644 98.1293 239.677 97.9566 239.677C97.7839 239.677 97.613 239.644 97.4544 239.58C97.2321 239.441 97.0551 239.248 96.943 239.02C96.831 238.793 96.7883 238.541 96.8197 238.292V161.506C96.7985 161.157 96.8909 160.81 97.0846 160.512C97.2783 160.213 97.5642 159.976 97.9044 159.833L96.8197 159.246L90.8823 156.036C90.51 156.62 90.3026 157.284 90.2797 157.965Z" fill="black"/>
<path opacity="0.2" d="M96.8197 159.246L146.271 176.577C147.982 177.175 149.858 177.209 151.591 176.673C153.324 176.138 154.812 175.065 155.808 173.631L163.746 162.222L207.55 99.2792L165.329 162.652L207.767 178.227C207.732 178.919 207.508 179.591 207.116 180.179L165.217 162.848L155.961 176.675C154.936 178.211 153.354 179.349 151.507 179.881C149.659 180.412 147.669 180.301 145.902 179.569L139.33 176.848L97.4544 239.595C97.232 239.456 97.055 239.263 96.943 239.035C96.8309 238.808 96.7883 238.556 96.8197 238.307V237.033L139.145 176.803L96.8197 159.246Z" fill="black"/>
<path d="M184.925 71.1121V247.364C184.925 249.444 186.484 250.288 188.404 249.248L272.829 203.531C273.842 202.912 274.684 202.077 275.289 201.095C275.893 200.113 276.242 199.012 276.308 197.88V21.6273C276.308 19.5475 274.75 18.7035 272.829 19.7434L188.404 65.4605C187.391 66.0793 186.548 66.9136 185.943 67.8957C185.338 68.8777 184.99 69.9797 184.925 71.1121Z" fill="#FAFAFA" stroke="#E0E0E0" stroke-width="1.16981" stroke-miterlimit="10"/>
<path d="M189.818 74.3899C189.845 74.1108 189.941 73.8416 190.099 73.6035C190.257 73.3654 190.471 73.1651 190.726 73.0185L200.367 67.8115C200.865 67.5403 201.267 67.7211 201.267 68.2109C201.241 68.4895 201.147 68.7586 200.99 68.9967C200.834 69.2348 200.621 69.4354 200.367 69.5824L190.726 74.7893C190.228 75.0606 189.818 74.8797 189.818 74.3899Z" fill="#455A64"/>
<path d="M189.818 77.9014C189.845 77.6221 189.94 77.3526 190.098 77.1145C190.256 76.8763 190.471 76.6761 190.726 76.53L200.367 71.323C200.865 71.0517 201.267 71.2326 201.267 71.7149C201.243 71.9947 201.148 72.2653 200.992 72.5048C200.836 72.7443 200.622 72.9461 200.367 73.0938L190.726 78.2932C190.228 78.5645 189.818 78.3912 189.818 77.9014Z" fill="#455A64"/>
<path d="M189.818 81.4128C189.845 81.1336 189.94 80.8641 190.098 80.6259C190.256 80.3877 190.471 80.1875 190.726 80.0414L200.367 74.8345C200.865 74.5632 201.267 74.7365 201.267 75.2263C201.243 75.5052 201.148 75.7747 200.992 76.013C200.836 76.2513 200.622 76.4517 200.367 76.5977L190.726 81.8047C190.228 82.1061 189.818 81.9026 189.818 81.4128Z" fill="#455A64"/>
<path d="M269.784 36.2156V34.8065C269.785 34.7894 269.781 34.7724 269.772 34.7572C269.764 34.7421 269.751 34.7293 269.736 34.7201C269.72 34.711 269.703 34.7058 269.684 34.7051C269.666 34.7044 269.648 34.7082 269.632 34.7161L268.475 35.2059C268.457 35.2143 268.437 35.2189 268.416 35.2192C268.396 35.2194 268.376 35.2155 268.357 35.2075C268.339 35.1996 268.323 35.1879 268.31 35.1733C268.297 35.1586 268.287 35.1415 268.282 35.123C268.221 34.9352 268.135 34.7554 268.025 34.588C268.003 34.5471 267.992 34.5019 267.992 34.4561C267.992 34.4103 268.003 34.3652 268.025 34.3243L268.828 32.8624C268.848 32.8254 268.852 32.7825 268.838 32.743C268.825 32.7036 268.795 32.6707 268.756 32.6514L267.953 32.1993C267.915 32.1812 267.871 32.1765 267.83 32.1862C267.788 32.1959 267.752 32.2193 267.728 32.252L266.764 33.6084C266.735 33.6448 266.697 33.6741 266.654 33.6937C266.611 33.7134 266.563 33.7229 266.514 33.7214C266.304 33.7198 266.094 33.74 265.888 33.7817C265.868 33.7874 265.847 33.7889 265.827 33.7861C265.807 33.7832 265.787 33.7761 265.77 33.7652C265.753 33.7544 265.739 33.74 265.729 33.7233C265.719 33.7066 265.713 33.6879 265.711 33.6687L265.582 32.4856C265.582 32.4027 265.502 32.3651 265.43 32.4103L264.128 33.1111C264.087 33.1364 264.052 33.1696 264.026 33.2086C264 33.2476 263.982 33.2914 263.976 33.3371L263.847 34.6935C263.83 34.7898 263.782 34.879 263.71 34.9497C263.45 35.1836 263.208 35.4355 262.987 35.7032C262.956 35.737 262.915 35.7615 262.87 35.7736C262.824 35.7857 262.775 35.7848 262.73 35.7711L261.927 35.4998C261.884 35.487 261.837 35.4882 261.795 35.5032C261.753 35.5183 261.717 35.5463 261.694 35.5827L260.738 37.135C260.718 37.1718 260.712 37.2135 260.719 37.2541C260.726 37.2946 260.747 37.3321 260.778 37.361L261.453 37.9036C261.486 37.9345 261.509 37.9733 261.521 38.0158C261.532 38.0582 261.531 38.1028 261.517 38.1447C261.393 38.4546 261.291 38.7718 261.212 39.0941C261.185 39.1855 261.129 39.267 261.051 39.3277L259.862 40.0813C259.822 40.1101 259.79 40.1465 259.766 40.1881C259.742 40.2296 259.729 40.2754 259.725 40.3224V41.724C259.721 41.742 259.723 41.7608 259.731 41.7777C259.739 41.7946 259.752 41.809 259.768 41.8188C259.785 41.8286 259.804 41.8335 259.824 41.8327C259.844 41.8319 259.862 41.8255 259.878 41.8144L261.035 41.3246C261.054 41.3176 261.074 41.3144 261.095 41.3152C261.115 41.316 261.135 41.3209 261.153 41.3294C261.171 41.3379 261.187 41.35 261.2 41.3647C261.213 41.3795 261.222 41.3966 261.228 41.415C261.289 41.6029 261.375 41.7827 261.485 41.9501C261.507 41.991 261.518 42.0361 261.518 42.0819C261.518 42.1277 261.507 42.1729 261.485 42.2138L260.681 43.6681C260.663 43.7066 260.66 43.75 260.674 43.7902C260.687 43.8304 260.716 43.8647 260.754 43.8866L261.557 44.3388C261.595 44.3569 261.639 44.3615 261.68 44.3518C261.722 44.3421 261.758 44.3188 261.782 44.286L262.746 42.9297C262.775 42.8933 262.813 42.864 262.856 42.8443C262.899 42.8246 262.947 42.8151 262.995 42.8166C263.206 42.8182 263.416 42.798 263.622 42.7563C263.642 42.7506 263.663 42.7491 263.683 42.752C263.703 42.7548 263.723 42.762 263.74 42.7728C263.757 42.7837 263.771 42.798 263.781 42.8147C263.791 42.8315 263.797 42.8501 263.799 42.8694L263.927 44.0524C263.927 44.1353 264 44.173 264.08 44.1278L265.382 43.427C265.423 43.3998 265.457 43.3651 265.484 43.3249C265.51 43.2848 265.527 43.24 265.534 43.1934L265.663 41.837C265.679 41.7425 265.727 41.6553 265.799 41.5884C266.06 41.3545 266.302 41.1026 266.523 40.8348C266.553 40.801 266.594 40.7765 266.64 40.7645C266.686 40.7524 266.734 40.7533 266.78 40.767L267.583 41.0383C267.626 41.0511 267.673 41.0499 267.715 41.0348C267.757 41.0198 267.793 40.9918 267.816 40.9554L268.772 39.4031C268.793 39.3646 268.799 39.3209 268.79 39.2787C268.781 39.2364 268.758 39.1981 268.724 39.1695L268.057 38.6345C268.024 38.6036 268.001 38.5648 267.989 38.5223C267.978 38.4798 267.979 38.4352 267.993 38.3934C268.117 38.0835 268.219 37.7663 268.298 37.4439C268.321 37.3508 268.378 37.2681 268.459 37.2103L269.648 36.4568C269.687 36.4273 269.719 36.3908 269.743 36.3493C269.766 36.3079 269.78 36.2624 269.784 36.2156ZM264.699 40.6615C263.486 41.3246 262.505 40.7896 262.505 39.4785C262.543 38.7627 262.761 38.0655 263.143 37.4445C263.524 36.8235 264.057 36.2964 264.699 35.9067C265.912 35.2511 266.892 35.7861 266.892 37.0973C266.853 37.8118 266.634 38.5074 266.253 39.127C265.872 39.7466 265.339 40.2725 264.699 40.6615Z" fill="#37474F"/>
<path d="M230.617 70.9538C240.483 65.6112 248.477 69.944 248.477 80.6292C248.477 91.3143 240.483 104.298 230.617 109.64C220.75 114.983 212.756 110.65 212.756 99.9725C212.756 89.2949 220.75 76.2963 230.617 70.9538Z" fill="#455A64"/>
<path d="M230.496 79.3633C233.71 77.6301 236.289 79.0317 236.289 82.498C236.179 84.3821 235.597 86.2153 234.591 87.8492C233.584 89.4831 232.182 90.8715 230.496 91.9021C227.282 93.6353 224.695 92.2337 224.695 88.7674C224.806 86.8825 225.389 85.0486 226.396 83.4146C227.404 81.7806 228.809 80.3926 230.496 79.3633Z" fill="#7A0B84"/>
<path d="M241.929 97.84C241.929 92.1508 237.663 89.8374 232.408 92.6858L229.074 94.4641C223.82 97.3125 219.553 104.26 219.553 109.934V111.494C220.545 111.791 221.581 111.941 222.622 111.939C225.441 111.849 228.186 111.069 230.585 109.678C235.174 107.034 239.055 103.438 241.929 99.1662V97.84Z" fill="#7A0B84"/>
<path d="M214.5 125.533L246.75 108.073C247.706 107.553 248.485 107.922 248.485 108.902C248.442 109.449 248.262 109.978 247.961 110.448C247.659 110.918 247.245 111.315 246.75 111.607L214.508 129.067C213.544 129.594 212.764 129.217 212.764 128.245C212.806 127.697 212.985 127.166 213.286 126.694C213.588 126.223 214.003 125.825 214.5 125.533Z" fill="#7A0B84"/>
<path d="M211.037 138.026L250.197 116.769C251.161 116.249 251.94 116.618 251.94 117.598C251.896 118.145 251.716 118.676 251.413 119.146C251.11 119.616 250.693 120.012 250.197 120.303L211.037 141.56C210.073 142.08 209.293 141.711 209.293 140.731C209.337 140.184 209.518 139.653 209.821 139.183C210.123 138.713 210.54 138.317 211.037 138.026Z" fill="#455A64"/>
<path d="M251.241 133.904L262.208 127.966C262.787 127.657 263.253 127.801 263.253 128.29C263.209 128.591 263.092 128.878 262.911 129.129C262.73 129.38 262.489 129.588 262.208 129.737L251.241 135.675C250.671 135.984 250.197 135.841 250.197 135.359C250.241 135.057 250.358 134.77 250.539 134.518C250.72 134.266 250.96 134.056 251.241 133.904Z" fill="#37474F"/>
<path d="M196.454 160.045L212.563 151.326C213.52 150.806 214.299 151.228 214.299 152.268V162.637C214.266 163.202 214.091 163.753 213.79 164.243C213.489 164.734 213.068 165.152 212.563 165.462L196.454 174.181C195.498 174.701 194.719 174.279 194.719 173.239V162.87C194.752 162.305 194.926 161.754 195.228 161.264C195.529 160.773 195.949 160.355 196.454 160.045Z" fill="#7A0B84"/>
<path d="M199.025 161.491L209.992 155.553C210.571 155.244 211.037 155.388 211.037 155.87C210.995 156.171 210.878 156.46 210.697 156.712C210.516 156.965 210.275 157.174 209.992 157.324L199.025 163.262C198.447 163.571 197.981 163.428 197.981 162.945C198.023 162.644 198.14 162.355 198.321 162.103C198.502 161.851 198.743 161.641 199.025 161.491Z" fill="#FAFAFA"/>
<path d="M197.981 166.721V169.735C197.981 170.36 198.447 170.609 199.025 170.3L209.992 164.362C210.296 164.177 210.549 163.926 210.731 163.632C210.912 163.337 211.017 163.007 211.037 162.667V159.653C211.037 159.027 210.571 158.779 209.992 159.087L199.025 164.995C198.718 165.185 198.463 165.44 198.281 165.74C198.1 166.04 197.997 166.376 197.981 166.721Z" fill="#FAFAFA"/>
<path d="M222.566 145.908L238.635 137.19C239.599 136.67 240.379 137.092 240.379 138.132V148.5C240.346 149.067 240.171 149.618 239.868 150.109C239.565 150.6 239.142 151.017 238.635 151.326L222.566 160.044C221.602 160.564 220.831 160.142 220.831 159.103V148.734C220.862 148.168 221.036 147.617 221.337 147.126C221.639 146.635 222.06 146.217 222.566 145.908Z" fill="#7A0B84"/>
<path d="M225.137 147.355L236.104 141.417C236.675 141.108 237.141 141.251 237.141 141.734C237.098 142.034 236.983 142.322 236.803 142.574C236.623 142.826 236.384 143.036 236.104 143.188L225.137 149.126C224.559 149.435 224.093 149.292 224.093 148.802C224.136 148.501 224.253 148.215 224.434 147.964C224.616 147.713 224.856 147.504 225.137 147.355Z" fill="#FAFAFA"/>
<path d="M224.093 152.584V155.599C224.093 156.224 224.559 156.473 225.137 156.164L236.104 150.226C236.406 150.039 236.657 149.788 236.837 149.493C237.017 149.199 237.121 148.869 237.141 148.53V145.516C237.141 144.891 236.667 144.642 236.096 144.951L225.129 150.889C224.827 151.075 224.575 151.326 224.395 151.621C224.215 151.915 224.112 152.245 224.093 152.584Z" fill="#FAFAFA"/>
<path d="M248.678 131.772L264.747 123.046C265.703 122.526 266.482 122.948 266.482 123.988V134.364C266.449 134.929 266.275 135.48 265.973 135.971C265.672 136.461 265.252 136.879 264.747 137.19L248.678 145.908C247.714 146.428 246.935 146.006 246.935 144.966V134.597C246.967 134.031 247.142 133.48 247.445 132.989C247.748 132.498 248.171 132.081 248.678 131.772Z" fill="#7A0B84"/>
<path d="M251.241 133.218L262.208 127.318C262.787 127.002 263.253 127.145 263.253 127.635C263.211 127.936 263.095 128.223 262.913 128.474C262.732 128.726 262.49 128.934 262.208 129.082L251.241 135.019C250.671 135.336 250.197 135.193 250.197 134.703C250.234 134.396 250.348 134.102 250.53 133.844C250.711 133.586 250.955 133.372 251.241 133.218Z" fill="#FAFAFA"/>
<path d="M250.197 138.448V141.462C250.197 142.08 250.671 142.336 251.241 142.027L262.208 136.082C262.512 135.897 262.766 135.647 262.947 135.352C263.129 135.057 263.234 134.727 263.253 134.387V131.372C263.253 130.747 262.787 130.491 262.208 130.807L251.241 136.745C250.936 136.932 250.683 137.184 250.502 137.479C250.32 137.775 250.216 138.107 250.197 138.448Z" fill="#FAFAFA"/>
<path d="M198.198 183.834L263.036 148.726C264.964 147.687 266.515 148.425 266.515 150.377C266.431 151.473 266.072 152.535 265.467 153.476C264.863 154.418 264.029 155.212 263.036 155.795L198.198 190.902C196.278 191.942 194.719 191.203 194.719 189.252C194.805 188.156 195.165 187.094 195.769 186.153C196.373 185.212 197.205 184.417 198.198 183.834Z" fill="#E0E0E0"/>
<path d="M198.198 197.977L263.036 162.87C264.964 161.83 266.515 162.569 266.515 164.52C266.431 165.617 266.072 166.679 265.467 167.62C264.863 168.562 264.029 169.356 263.036 169.938L198.198 205.053C196.278 206.093 194.719 205.355 194.719 203.395C194.805 202.3 195.165 201.238 195.769 200.297C196.373 199.356 197.205 198.561 198.198 197.977Z" fill="#E0E0E0"/>
<path d="M219.304 204.224L241.929 191.972C242.893 191.452 243.673 191.874 243.673 192.914V199.748C243.64 200.315 243.465 200.866 243.162 201.357C242.859 201.848 242.437 202.265 241.929 202.574L219.304 214.827C218.34 215.347 217.561 214.925 217.561 213.885V207.05C217.594 206.484 217.769 205.932 218.072 205.441C218.375 204.95 218.797 204.533 219.304 204.224Z" fill="#7A0B84"/>
<path d="M199.612 184.881C199.141 185.174 198.751 185.567 198.472 186.028C198.193 186.488 198.033 187.004 198.005 187.533C198.005 188.506 198.736 188.905 199.612 188.415C200.083 188.122 200.473 187.729 200.752 187.268C201.031 186.808 201.191 186.292 201.219 185.763C201.243 184.791 200.512 184.391 199.612 184.881Z" fill="#FAFAFA"/>
<path d="M204.786 182.078C204.315 182.37 203.923 182.763 203.644 183.224C203.365 183.685 203.206 184.201 203.179 184.73C203.179 185.702 203.902 186.102 204.786 185.612C205.257 185.319 205.647 184.926 205.926 184.465C206.205 184.005 206.365 183.489 206.393 182.96C206.417 181.988 205.686 181.573 204.786 182.078Z" fill="#FAFAFA"/>
<path d="M209.952 179.312C209.482 179.606 209.091 179.998 208.812 180.459C208.533 180.92 208.373 181.436 208.345 181.965C208.345 182.937 209.076 183.336 209.952 182.847C210.423 182.553 210.813 182.161 211.093 181.7C211.372 181.239 211.531 180.723 211.559 180.194C211.583 179.184 210.852 178.785 209.952 179.312Z" fill="#FAFAFA"/>
<path d="M215.126 176.472C214.655 176.764 214.264 177.157 213.985 177.618C213.706 178.079 213.547 178.595 213.52 179.124C213.52 180.096 214.251 180.495 215.126 180.006C215.597 179.712 215.988 179.32 216.267 178.859C216.546 178.398 216.706 177.882 216.733 177.353C216.757 176.381 216.026 175.982 215.126 176.472Z" fill="#FAFAFA"/>
<path d="M220.292 173.668C219.822 173.962 219.431 174.354 219.152 174.815C218.873 175.276 218.713 175.792 218.686 176.321C218.686 177.293 219.417 177.692 220.292 177.202C220.763 176.909 221.154 176.516 221.433 176.056C221.712 175.595 221.872 175.079 221.899 174.55C221.923 173.578 221.192 173.179 220.292 173.668Z" fill="#FAFAFA"/>
<path d="M225.459 170.865C224.988 171.158 224.597 171.551 224.318 172.012C224.039 172.473 223.879 172.988 223.852 173.518C223.852 174.49 224.583 174.889 225.459 174.399C225.93 174.107 226.321 173.714 226.601 173.254C226.88 172.793 227.039 172.276 227.066 171.747C227.09 170.775 226.367 170.375 225.459 170.865Z" fill="#FAFAFA"/>
<path d="M230.633 168.062C230.162 168.355 229.772 168.748 229.493 169.209C229.213 169.669 229.054 170.185 229.026 170.714C229.026 171.687 229.757 172.086 230.633 171.596C231.103 171.303 231.494 170.91 231.773 170.449C232.052 169.989 232.212 169.473 232.24 168.944C232.288 168.009 231.533 167.572 230.633 168.062Z" fill="#FAFAFA"/>
<path d="M199.612 199.032C199.142 199.327 198.752 199.72 198.473 200.18C198.194 200.641 198.034 201.156 198.005 201.685C198.005 202.664 198.736 203.056 199.612 202.567C200.082 202.275 200.473 201.884 200.752 201.424C201.031 200.965 201.191 200.45 201.219 199.922C201.243 198.942 200.512 198.55 199.612 199.032Z" fill="#FAFAFA"/>
<path d="M204.786 196.229C204.315 196.522 203.924 196.915 203.645 197.376C203.366 197.836 203.206 198.352 203.179 198.882C203.179 199.861 203.902 200.253 204.786 199.763C205.257 199.472 205.647 199.08 205.926 198.621C206.205 198.161 206.365 197.647 206.393 197.119C206.417 196.139 205.686 195.747 204.786 196.229Z" fill="#FAFAFA"/>
<path d="M209.952 193.426C209.483 193.72 209.093 194.113 208.814 194.574C208.535 195.034 208.374 195.55 208.345 196.079C208.345 197.058 209.076 197.45 209.952 196.96C210.423 196.669 210.813 196.277 211.092 195.818C211.372 195.358 211.531 194.844 211.559 194.315C211.583 193.336 210.852 192.936 209.952 193.426Z" fill="#FAFAFA"/>
<path d="M215.126 190.615C214.656 190.909 214.265 191.301 213.986 191.762C213.707 192.223 213.547 192.739 213.52 193.268C213.52 194.247 214.251 194.639 215.126 194.15C215.597 193.858 215.987 193.467 216.267 193.007C216.546 192.548 216.706 192.033 216.733 191.505C216.757 190.533 216.026 190.133 215.126 190.615Z" fill="#FAFAFA"/>
<path d="M220.292 187.82C219.822 188.113 219.431 188.506 219.152 188.967C218.873 189.427 218.713 189.943 218.686 190.472C218.686 191.452 219.417 191.844 220.292 191.354C220.763 191.062 221.154 190.671 221.433 190.212C221.712 189.752 221.872 189.237 221.899 188.709C221.923 187.729 221.192 187.33 220.292 187.82Z" fill="#FAFAFA"/>
<path d="M225.459 185.017C224.988 185.31 224.597 185.703 224.318 186.163C224.039 186.624 223.879 187.14 223.852 187.669C223.852 188.649 224.583 189.041 225.459 188.551C225.931 188.259 226.323 187.867 226.602 187.406C226.882 186.945 227.04 186.428 227.066 185.898C227.09 184.926 226.367 184.527 225.459 185.017Z" fill="#FAFAFA"/>
<path d="M230.633 182.214C230.162 182.507 229.772 182.9 229.493 183.36C229.213 183.821 229.054 184.337 229.026 184.866C229.026 185.846 229.757 186.237 230.633 185.748C231.104 185.455 231.495 185.062 231.774 184.601C232.053 184.141 232.213 183.625 232.24 183.095C232.288 182.123 231.533 181.724 230.633 182.214Z" fill="#FAFAFA"/>
<path d="M303.143 214.073C300.367 214.091 297.635 213.415 295.229 212.114C289.437 208.972 286.118 202.416 286.118 194.104C286.118 179.501 296.017 162.704 308.615 155.862C315.42 152.177 322.177 151.778 327.648 154.739C333.433 157.874 336.759 164.438 336.759 172.741C336.759 187.345 326.861 204.149 314.223 210.991C310.88 212.909 307.06 213.972 303.143 214.073ZM319.742 163.3C317.787 163.429 315.896 164.012 314.239 164.995C305.08 169.931 297.367 183.276 297.367 194.104C297.367 198.49 298.676 201.82 300.87 203.004C303.368 204.36 306.847 202.883 308.687 201.881C317.87 196.915 325.616 183.57 325.616 172.741C325.616 168.356 324.306 165.033 322.113 163.842C321.39 163.463 320.57 163.275 319.742 163.3Z" fill="#455A64"/>
<path d="M327.584 175.077C327.584 166.871 322.072 163.842 322.072 163.842C324.266 165.033 325.575 168.363 325.575 172.741C325.575 183.57 317.83 196.915 308.647 201.881C306.807 202.883 303.336 204.36 300.829 203.003C300.829 203.003 305.481 205.716 311.909 202.423C321.213 197.668 327.584 185.906 327.584 175.077Z" fill="#37474F"/>
<path d="M318.746 72.5286C318.69 71.1217 318.055 69.7899 316.974 68.8131C315.893 67.8363 314.45 67.2905 312.949 67.2905C311.448 67.2905 310.006 67.8363 308.925 68.8131C307.844 69.7899 307.208 71.1217 307.153 72.5286V158.967C307.194 159.451 307.373 159.917 307.671 160.314C307.969 160.712 308.376 161.027 308.848 161.228C310.118 161.83 311.522 162.143 312.945 162.143C314.369 162.143 315.772 161.83 317.043 161.228C317.517 161.029 317.925 160.714 318.225 160.316C318.525 159.919 318.705 159.452 318.746 158.967V72.5437V72.5286Z" fill="#37474F"/>
<path d="M314.118 91.8493C314.055 90.7593 313.718 89.6988 313.136 88.7535C312.554 87.8083 311.743 87.005 310.768 86.4087C310.424 86.1723 310.017 86.0289 309.592 85.9944C309.167 85.9598 308.74 86.0354 308.358 86.2128L294.073 93.9366L293.727 94.125C293.674 94.1453 293.626 94.1732 293.582 94.2078C293.339 94.3621 293.11 94.5361 292.9 94.7278C292.094 95.481 291.604 96.4809 291.519 97.5449C291.434 98.6088 291.76 99.6659 292.437 100.523C293.115 101.38 294.098 101.981 295.208 102.214C296.318 102.448 297.481 102.3 298.483 101.796L298.757 101.645L313.146 93.8763C313.485 93.6492 313.753 93.342 313.924 92.9859C314.095 92.6298 314.162 92.2376 314.118 91.8493Z" fill="#455A64"/>
<path d="M314.118 113.491C314.054 112.402 313.717 111.343 313.135 110.399C312.553 109.455 311.742 108.653 310.768 108.058C310.425 107.819 310.019 107.673 309.593 107.637C309.168 107.601 308.74 107.676 308.358 107.854L291.598 116.897L291.252 117.085C291.2 117.107 291.152 117.134 291.108 117.168C290.863 117.32 290.634 117.495 290.425 117.688C289.902 118.177 289.507 118.773 289.272 119.43C289.037 120.086 288.968 120.785 289.071 121.471C289.174 122.157 289.446 122.811 289.865 123.381C290.284 123.951 290.839 124.422 291.485 124.756C292.183 125.104 292.961 125.285 293.751 125.284C294.539 125.287 295.315 125.106 296.009 124.756C296.105 124.711 296.194 124.651 296.282 124.606L313.154 115.563C313.499 115.331 313.771 115.016 313.941 114.651C314.11 114.287 314.172 113.886 314.118 113.491Z" fill="#455A64"/>
</svg>
