<svg width="298" height="262" viewBox="0 0 298 262" fill="none" xmlns="http://www.w3.org/2000/svg">
<path d="M95.9086 0H93.1812V11.0238H95.9086V0Z" fill="#E0E0E0"/>
<path d="M88.4387 4.28096V6.74292L100.651 6.74292V4.28096L88.4387 4.28096Z" fill="#E0E0E0"/>
<path d="M162.534 54.3022H158.357V71.2058H162.534V54.3022Z" fill="#E0E0E0"/>
<path d="M151.079 60.8713V64.6425H169.805V60.8713H151.079Z" fill="#E0E0E0"/>
<path d="M212.629 5.09192H209.901V16.1157H212.629V5.09192Z" fill="#E0E0E0"/>
<path d="M205.153 9.36708V11.829H217.365V9.36708H205.153Z" fill="#E0E0E0"/>
<path d="M275.115 25.4654H270.938V42.3689H275.115V25.4654Z" fill="#E0E0E0"/>
<path d="M263.66 32.0287V35.7999H282.386V32.0287H263.66Z" fill="#E0E0E0"/>
<path d="M296.107 107.666H211.262V249.342H296.107V107.666Z" fill="#F5F5F5"/>
<path d="M286.384 244.638H290.601V164.204H286.384V244.638Z" fill="#E0E0E0"/>
<path d="M278.825 244.638H283.041V164.204H278.825V244.638Z" fill="#E0E0E0"/>
<path d="M271.259 244.638H275.475V164.204H271.259V244.638Z" fill="#E0E0E0"/>
<path d="M263.686 244.638H267.902V164.204H263.686V244.638Z" fill="#E0E0E0"/>
<path d="M256.492 244.638H260.708V164.204H256.492V244.638Z" fill="#E0E0E0"/>
<path d="M249.086 244.638H253.303V164.204H249.086V244.638Z" fill="#E0E0E0"/>
<path d="M241.527 244.638H245.743V164.204H241.527V244.638Z" fill="#E0E0E0"/>
<path d="M233.492 244.638H237.708V164.204H233.492V244.638Z" fill="#E0E0E0"/>
<path d="M225.926 244.638H230.142V164.204H225.926V244.638Z" fill="#E0E0E0"/>
<path d="M218.559 244.638H222.775V164.204H218.559V244.638Z" fill="#E0E0E0"/>
<path d="M286.121 159.373H290.338V116.975H286.121V159.373Z" fill="#E0E0E0"/>
<path d="M278.555 159.373H282.771V116.975H278.555V159.373Z" fill="#E0E0E0"/>
<path d="M270.989 159.373H275.205V116.975H270.989V159.373Z" fill="#E0E0E0"/>
<path d="M263.429 159.373H267.646V116.975H263.429V159.373Z" fill="#E0E0E0"/>
<path d="M256.235 159.373H260.452V116.975H256.235V159.373Z" fill="#E0E0E0"/>
<path d="M248.823 159.373H253.039V116.975H248.823V159.373Z" fill="#E0E0E0"/>
<path d="M241.257 159.373H245.473V116.975H241.257V159.373Z" fill="#E0E0E0"/>
<path d="M232.786 159.373H237.002V116.975H232.786V159.373Z" fill="#E0E0E0"/>
<path d="M225.22 159.373H229.436V116.975H225.22V159.373Z" fill="#E0E0E0"/>
<path d="M218.045 159.373H222.261V116.975H218.045V159.373Z" fill="#E0E0E0"/>
<path d="M209.029 146.716H149.045V249.342H209.029V146.716Z" fill="#F5F5F5"/>
<path d="M199.306 244.638H203.523V164.204H199.306V244.638Z" fill="#E0E0E0"/>
<path d="M191.734 244.638H195.95V164.204H191.734V244.638Z" fill="#E0E0E0"/>
<path d="M184.174 244.638H188.39V164.204H184.174V244.638Z" fill="#E0E0E0"/>
<path d="M176.608 244.638H180.824V164.204H176.608V244.638Z" fill="#E0E0E0"/>
<path d="M169.414 244.638H173.63V164.204H169.414V244.638Z" fill="#E0E0E0"/>
<path d="M162.008 244.638H166.224V164.204H162.008V244.638Z" fill="#E0E0E0"/>
<path d="M154.436 244.638H158.652V164.204H154.436V244.638Z" fill="#E0E0E0"/>
<path d="M199.043 159.373H203.259V151.767H199.043V159.373Z" fill="#E0E0E0"/>
<path d="M191.477 159.373H195.693V151.767H191.477V159.373Z" fill="#E0E0E0"/>
<path d="M183.904 159.373H188.121V151.767H183.904V159.373Z" fill="#E0E0E0"/>
<path d="M176.338 159.373H180.555V151.767H176.338V159.373Z" fill="#E0E0E0"/>
<path d="M169.151 159.373H173.367V151.767H169.151V159.373Z" fill="#E0E0E0"/>
<path d="M161.745 159.373H165.961V151.767H161.745V159.373Z" fill="#E0E0E0"/>
<path d="M154.179 159.373H158.395V151.767H154.179V159.373Z" fill="#E0E0E0"/>
<path d="M211.416 250.014C211.326 250.014 211.249 218.211 211.249 178.993C211.249 139.776 211.326 107.961 211.416 107.961C211.506 107.961 211.583 139.758 211.583 178.993C211.583 218.228 211.512 250.014 211.416 250.014Z" fill="#E0E0E0"/>
<path d="M288.233 62.754H223.859V107.961H288.233V62.754Z" fill="#F5F5F5"/>
<path d="M239.499 101.555H243.715V72.3354H239.499V101.555Z" fill="#E0E0E0"/>
<path d="M231.939 101.555H236.155V72.3354H231.939V101.555Z" fill="#E0E0E0"/>
<path d="M255.209 101.555H259.425V72.3354H255.209V101.555Z" fill="#E0E0E0"/>
<path d="M247.642 101.555H251.859V72.3354H247.642V101.555Z" fill="#E0E0E0"/>
<path d="M270.912 101.555H275.128V72.3354H270.912V101.555Z" fill="#E0E0E0"/>
<path d="M263.346 101.555H267.562V72.3354H263.346V101.555Z" fill="#E0E0E0"/>
<path d="M279.062 101.555H283.278V72.3354H279.062V101.555Z" fill="#E0E0E0"/>
<path d="M126.372 157.311H66.3884V249.678H126.372V157.311Z" fill="#F5F5F5"/>
<path d="M76.1108 182.266H71.8945V245.959H76.1108V182.266Z" fill="#E0E0E0"/>
<path d="M83.677 182.266H79.4607V245.959H83.677V182.266Z" fill="#E0E0E0"/>
<path d="M91.2431 182.266H87.0268V245.959H91.2431V182.266Z" fill="#E0E0E0"/>
<path d="M98.8092 182.266H94.593V245.959H98.8092V182.266Z" fill="#E0E0E0"/>
<path d="M106.003 182.266H101.787V245.959H106.003V182.266Z" fill="#E0E0E0"/>
<path d="M113.409 182.266H109.193V245.959H113.409V182.266Z" fill="#E0E0E0"/>
<path d="M120.975 182.266H116.759V245.959H120.975V182.266Z" fill="#E0E0E0"/>
<path d="M76.3739 163.075H72.1577V178.437H76.3739V163.075Z" fill="#E0E0E0"/>
<path d="M83.9401 163.075H79.7238V178.437H83.9401V163.075Z" fill="#E0E0E0"/>
<path d="M91.5062 163.075H87.2899V178.437H91.5062V163.075Z" fill="#E0E0E0"/>
<path d="M99.0724 163.075H94.8561V178.437H99.0724V163.075Z" fill="#E0E0E0"/>
<path d="M106.266 163.075H102.05V178.437H106.266V163.075Z" fill="#E0E0E0"/>
<path d="M113.672 163.075H109.456V178.437H113.672V163.075Z" fill="#E0E0E0"/>
<path d="M121.238 163.075H117.022V178.437H121.238V163.075Z" fill="#E0E0E0"/>
<path d="M69.5778 73.465H5.60242V249.678H69.5778V73.465Z" fill="#F5F5F5"/>
<path d="M46.3082 21.0165H30.5919V23.6696H46.3082V21.0165Z" fill="#F5F5F5"/>
<path d="M39.6084 0H37.1056V21.7927H39.6084V0Z" fill="#F5F5F5"/>
<path d="M60.6447 23.6696H16.2489V74.3281H60.6447V23.6696Z" fill="#F5F5F5"/>
<path d="M26.1895 29.9085H21.7808V70.8408H26.1895V29.9085Z" fill="#E0E0E0"/>
<path d="M34.0958 29.9085H29.687V70.8408H34.0958V29.9085Z" fill="#E0E0E0"/>
<path d="M42.0085 29.9085H37.5998V70.8408H42.0085V29.9085Z" fill="#E0E0E0"/>
<path d="M49.9148 29.9085H45.506V70.8408H49.9148V29.9085Z" fill="#E0E0E0"/>
<path d="M57.4361 29.9085H53.0273V70.8408H57.4361V29.9085Z" fill="#E0E0E0"/>
<path d="M15.973 80.6945H11.4744V242.576H15.973V80.6945Z" fill="#E0E0E0"/>
<path d="M24.0461 80.6945H19.5475V242.576H24.0461V80.6945Z" fill="#E0E0E0"/>
<path d="M32.1129 80.6945H27.6142V242.576H32.1129V80.6945Z" fill="#E0E0E0"/>
<path d="M40.1796 80.6945H35.6809V242.576H40.1796V80.6945Z" fill="#E0E0E0"/>
<path d="M47.8548 80.6945H43.3562V242.576H47.8548V80.6945Z" fill="#E0E0E0"/>
<path d="M55.7547 80.6945H51.2561V242.576H55.7547V80.6945Z" fill="#E0E0E0"/>
<path d="M63.8214 80.6945H59.3228V242.576H63.8214V80.6945Z" fill="#E0E0E0"/>
<path d="M298 250.217C298 250.298 231.259 250.367 149.006 250.367C66.7542 250.367 0 250.298 0 250.217C0 250.136 66.7028 250.054 149 250.054C231.297 250.054 298 250.136 298 250.217Z" fill="#263238"/>
<path d="M206.314 45.3291L200.243 46.3081C197.194 49.4165 192.967 51.383 188.393 51.821C183.819 52.2591 179.229 51.137 175.525 48.6753C171.821 46.2136 169.272 42.5904 168.377 38.5178C167.482 34.4452 168.307 30.2178 170.69 26.6665C173.073 23.1152 176.841 20.4968 181.254 19.3261C185.667 18.1554 190.405 18.517 194.538 20.3397C198.671 22.1625 201.899 25.3147 203.587 29.1767C205.276 33.0387 205.303 37.3311 203.664 41.2103L206.314 45.3291Z" fill="white"/>
<path d="M206.314 45.3291C206.314 45.3291 206.244 45.2364 206.122 45.0568L205.602 44.2632L203.606 41.2335H203.715C203.702 41.2445 203.685 41.2506 203.667 41.2506C203.649 41.2506 203.632 41.2445 203.619 41.2335C203.61 41.2226 203.605 41.2094 203.605 41.1959C203.605 41.1823 203.61 41.1691 203.619 41.1582C204.677 38.6087 205.028 35.864 204.639 33.1641C204.516 32.3153 204.318 31.4766 204.049 30.6558C203.741 29.7846 203.359 28.9363 202.906 28.1185C201.937 26.2978 200.601 24.6557 198.966 23.2757C197.085 21.6915 194.856 20.4812 192.424 19.7229C189.992 18.9646 187.411 18.6751 184.848 18.8731C182.012 19.1269 179.278 19.9653 176.858 21.3235C174.315 22.7465 172.208 24.7222 170.729 27.07C168.489 30.606 167.777 34.7653 168.732 38.7466C169.687 42.7279 172.24 46.2494 175.899 48.6328C179.559 51.0161 184.066 52.0926 188.553 51.6548C193.039 51.217 197.187 49.2959 200.198 46.2617C200.198 46.2617 200.198 46.2617 200.237 46.2617L204.729 45.584L205.903 45.4102L206.314 45.3522L205.935 45.4276L204.793 45.6245L200.256 46.395H200.301C198.279 48.4816 195.708 50.0753 192.825 51.0292C189.247 52.2126 185.352 52.3714 181.67 51.484C177.989 50.5966 174.7 48.7061 172.252 46.0702C169.804 43.4343 168.316 40.1811 167.991 36.7541C167.666 33.327 168.519 29.8928 170.434 26.9194L171.031 26.0215C171.249 25.7376 171.48 25.4422 171.705 25.1815C172.164 24.6316 172.656 24.1055 173.181 23.6059C173.431 23.351 173.733 23.1366 174.002 22.9049C174.269 22.6656 174.552 22.4412 174.849 22.233C175.43 21.8112 176.041 21.4242 176.678 21.0744C179.142 19.6942 181.924 18.8439 184.809 18.5892C187.419 18.3911 190.046 18.6905 192.519 19.4679C194.992 20.2453 197.256 21.4834 199.165 23.1019C200.816 24.5069 202.163 26.1765 203.137 28.0258C203.586 28.8664 203.96 29.7382 204.254 30.6326C204.523 31.4648 204.716 32.3152 204.832 33.1757C205.208 35.9051 204.826 38.676 203.721 41.2393L203.606 41.1814C203.62 41.1715 203.637 41.1661 203.654 41.1661C203.672 41.1661 203.689 41.1715 203.702 41.1814L205.627 44.2922L206.122 45.08L206.314 45.3291Z" fill="#263238"/>
<path d="M186.26 42.0851L177.237 36.6398L179.342 33.8013L185.393 37.4508L192.914 28.4603L195.937 30.5226L186.26 42.0851Z" fill="#BA68C8"/>
<path d="M101.89 43.7245L104.912 38.3545C103.666 35.3139 103.342 32.028 103.973 28.8364C104.605 25.6449 106.17 22.6636 108.505 20.2007C110.841 17.7379 113.863 15.883 117.259 14.8277C120.656 13.7724 124.302 13.5551 127.822 14.1983C130.969 14.7664 133.921 16.0041 136.431 17.8087C138.942 19.6132 140.939 21.9325 142.257 24.5738C143.575 27.215 144.176 30.1021 144.01 32.9951C143.844 35.8881 142.915 38.7036 141.301 41.2075C139.687 43.7115 137.435 45.8317 134.731 47.392C132.027 48.9523 128.949 49.9077 125.754 50.1787C122.559 50.4498 119.338 50.0287 116.36 48.9505C113.381 47.8723 110.73 46.168 108.628 43.9793L101.89 43.7245Z" fill="white"/>
<path d="M101.89 43.7245H102.339L103.622 43.7592L108.602 43.9099L108.538 44.0025C108.528 43.988 108.524 43.9703 108.529 43.9534C108.533 43.9366 108.544 43.922 108.561 43.9128C108.577 43.9035 108.596 43.9005 108.615 43.9043C108.634 43.9081 108.65 43.9184 108.66 43.933C110.873 46.2082 113.678 47.9502 116.823 49.0018C117.797 49.3316 118.799 49.5893 119.82 49.7722C120.915 49.9569 122.024 50.0692 123.138 50.1082C125.914 50.206 128.681 49.7801 131.265 48.8577C133.848 47.9354 136.189 46.5369 138.14 44.7516C140.091 42.9663 141.607 40.8334 142.593 38.4891C143.579 36.1448 144.013 33.6407 143.866 31.1366C143.834 30.7832 143.834 30.4241 143.789 30.0707C143.744 29.7174 143.667 29.364 143.603 29.0106L143.513 28.4777C143.475 28.3039 143.417 28.1301 143.372 27.9563L143.07 26.902C142.968 26.5545 142.801 26.2185 142.672 25.8767C142.547 25.5301 142.401 25.1898 142.236 24.8572C141.905 24.1848 141.53 23.531 141.113 22.8992C140.895 22.5864 140.702 22.262 140.471 21.9549L139.746 21.0686L139.374 20.6573L138.97 20.2518L138.161 19.435C137.036 18.417 135.785 17.519 134.432 16.7587C131.81 15.2955 128.855 14.3865 125.788 14.0998C123.005 13.8655 120.199 14.1565 117.547 14.9544C114.896 15.7522 112.457 17.0394 110.386 18.7341C108.576 20.2139 107.081 21.981 105.978 23.9477C105.74 24.4169 105.445 24.8629 105.265 25.338L104.7 26.734C104.411 27.6365 104.18 28.5533 104.007 29.4799C103.509 32.4747 103.854 35.5344 105.008 38.3777C105.015 38.3946 105.015 38.4129 105.008 38.4298C104.014 40.1677 103.25 41.4769 102.73 42.3863L102.133 43.4117C101.999 43.6434 101.922 43.765 101.922 43.765L102.101 43.4291C102.23 43.1858 102.416 42.8498 102.66 42.4037L104.88 38.3487V38.4009C103.685 35.5426 103.311 32.4573 103.796 29.4335C103.963 28.4957 104.19 27.5673 104.476 26.6529L105.047 25.2395C105.254 24.7573 105.49 24.2855 105.753 23.826C106.865 21.8308 108.372 20.0363 110.2 18.5314C114.099 15.3409 119.211 13.6318 124.472 13.7602C129.732 13.8887 134.735 15.8447 138.437 19.2207L139.258 20.0491L139.675 20.4604L140.041 20.9064L140.722 21.8159C140.953 22.1229 141.158 22.4531 141.363 22.7775C141.791 23.4 142.175 24.0462 142.512 24.7123C142.705 25.0425 142.807 25.4075 142.961 25.7493C143.115 26.091 143.263 26.4386 143.366 26.792L143.667 27.8636C143.712 28.0374 143.776 28.217 143.815 28.3966L143.905 28.9353C143.969 29.2945 144.027 29.6536 144.091 30.0128C144.155 30.372 144.142 30.7369 144.168 31.0961C144.313 33.6346 143.871 36.1727 142.87 38.5484C141.868 40.9241 140.328 43.0853 138.35 44.8938C136.371 46.7024 133.996 48.1188 131.377 49.0525C128.758 49.9862 125.952 50.4168 123.138 50.3168C122.01 50.2785 120.888 50.1603 119.781 49.9634C115.418 49.159 111.474 47.0683 108.57 44.0199L108.686 43.9504C108.697 43.9627 108.703 43.9781 108.703 43.9939C108.703 44.0097 108.697 44.025 108.686 44.0373H108.647L103.622 43.7998L102.339 43.7361L101.89 43.7245Z" fill="#263238"/>
<path d="M124.646 40.6891H114.782V22.54H124.646V40.6891ZM115.424 40.1098H124.004V23.1193H115.424V40.1098Z" fill="#263238"/>
<path d="M118.966 25.2163H116.938V27.4292H118.966V25.2163Z" fill="#263238"/>
<path d="M122.49 25.2163H120.462V27.4292H122.49V25.2163Z" fill="#263238"/>
<path d="M118.966 28.6689H116.938V30.8818H118.966V28.6689Z" fill="#263238"/>
<path d="M122.49 28.6689H120.462V30.8818H122.49V28.6689Z" fill="#263238"/>
<path d="M118.966 32.1272H116.938V34.3401H118.966V32.1272Z" fill="#263238"/>
<path d="M122.49 32.1272H120.462V34.3401H122.49V32.1272Z" fill="#263238"/>
<path d="M118.966 35.6898H116.938V37.9027H118.966V35.6898Z" fill="#263238"/>
<path d="M122.49 35.6898H120.462V37.9027H122.49V35.6898Z" fill="#263238"/>
<path d="M128.041 33.6971H126.013V35.91H128.041V33.6971Z" fill="#263238"/>
<path d="M131.564 33.6971H129.536V35.91H131.564V33.6971Z" fill="#263238"/>
<path d="M128.041 36.7962H126.013V39.0091H128.041V36.7962Z" fill="#263238"/>
<path d="M131.564 36.7962H129.536V39.0091H131.564V36.7962Z" fill="#263238"/>
<path d="M133.598 40.689H123.972V31.6638H133.598V40.689ZM124.614 40.1097H132.956V32.243H124.614V40.1097Z" fill="#263238"/>
<path d="M131.795 24.6833H127.271V30.4936H131.795V24.6833Z" fill="#455A64"/>
<path d="M129.53 25.674H126.302L127.919 23.8434L129.53 22.0187L131.147 23.8434L132.764 25.674H129.53Z" fill="#455A64"/>
<path d="M232.825 242.362V243.022C232.825 243.022 220.548 247.592 220.439 249.707L244.902 249.382L244.453 242.037C242.654 242.841 240.684 243.287 238.678 243.343C236.671 243.399 234.675 243.064 232.825 242.362Z" fill="#263238"/>
<path d="M244.909 249.382L244.799 247.645L221.395 248.6C221.395 248.6 220.311 249.041 220.445 249.759L244.909 249.382Z" fill="#455A64"/>
<path d="M232.748 243.103C232.748 243.207 233.351 243.248 233.941 243.59C234.532 243.931 234.852 244.377 234.962 244.331C235.071 244.285 234.885 243.665 234.159 243.271C233.434 242.877 232.715 242.987 232.748 243.103Z" fill="white"/>
<path d="M230.193 244.076C230.193 244.18 230.688 244.354 231.105 244.806C231.522 245.258 231.637 245.739 231.746 245.733C231.856 245.727 231.933 245.113 231.406 244.574C230.88 244.036 230.193 243.972 230.193 244.076Z" fill="white"/>
<path d="M228.782 246.868C228.891 246.868 229.051 246.347 228.73 245.762C228.409 245.177 227.851 244.945 227.806 245.038C227.761 245.13 228.108 245.437 228.358 245.924C228.608 246.411 228.666 246.857 228.782 246.868Z" fill="white"/>
<path d="M250.318 235.706L239.903 238.336L242.502 243.665L239.8 257.157C239.726 257.527 239.805 257.908 240.023 258.229C240.241 258.55 240.582 258.786 240.981 258.894C241.291 258.973 241.62 258.972 241.929 258.891C242.239 258.811 242.517 258.653 242.733 258.437C245.03 256.12 253.437 247.511 253.238 246.463L252.905 243.659C252.834 243.08 252.212 241.695 252.212 241.568L250.318 235.706Z" fill="#263238"/>
<path d="M241.289 258.964L253.142 245.501L253.2 246.115C253.242 246.367 253.221 246.625 253.137 246.869C253.054 247.112 252.911 247.336 252.719 247.523C251.788 248.878 249.144 251.954 242.778 258.454C242.593 258.641 242.362 258.784 242.103 258.873C241.843 258.962 241.564 258.993 241.289 258.964Z" fill="#455A64"/>
<path d="M244.414 252.325C243.971 251.903 243.441 251.56 242.855 251.317C242.23 251.157 241.577 251.102 240.93 251.155C240.93 251.12 241.109 250.987 241.495 250.912C241.994 250.818 242.512 250.855 242.99 251.016C243.467 251.172 243.884 251.45 244.19 251.815C244.402 252.094 244.453 252.308 244.414 252.325Z" fill="white"/>
<path d="M243.433 254.359C242.937 254.164 242.429 253.996 241.912 253.855C241.372 253.812 240.83 253.797 240.288 253.808C240.529 253.647 240.808 253.54 241.103 253.493C241.399 253.447 241.702 253.464 241.989 253.542C242.983 253.716 243.516 254.312 243.433 254.359Z" fill="white"/>
<path d="M246.346 249.655C245.608 249.301 244.843 248.997 244.055 248.745C243.232 248.592 242.398 248.491 241.559 248.444C242.389 248.179 243.295 248.179 244.126 248.444C245.002 248.597 245.789 249.026 246.346 249.655Z" fill="white"/>
<path d="M242.38 241.834C242.484 242.434 242.525 243.041 242.502 243.648C242.374 244.43 242.188 245.432 241.982 246.515C241.732 247.795 241.488 248.954 241.296 249.794C241.222 250.252 241.098 250.702 240.923 251.138C240.925 250.674 240.979 250.212 241.084 249.759C241.219 248.913 241.424 247.749 241.674 246.463C241.886 245.38 242.091 244.383 242.265 243.613C242.25 243.018 242.288 242.423 242.38 241.834Z" fill="#455A64"/>
<path d="M257.198 154.982C258.019 151.408 260.099 144.943 259.284 141.966C257.358 135.066 254.053 131.075 249.503 122.316H246.121L213.662 121.806L211.005 127.124C208.053 134.29 206.038 138.565 205.23 143.808C204.273 149.844 205.948 158.591 209.67 167.425C217.692 186.489 222.172 201.736 222.505 205.843C222.839 209.95 223.295 214.191 227.517 227.196C230.591 236.69 232.869 242.362 232.869 242.362C236.078 243.995 239.46 244.435 242.547 242.848L251.968 239.569C251.968 239.569 249.08 217.18 245.711 211.236C243.285 206.961 239.293 204.934 241.167 199.361C243.041 193.788 254.682 165.96 257.198 154.982Z" fill="#263238"/>
<path d="M219.207 136.903C219.254 136.949 219.297 137 219.335 137.053L219.694 137.499L221.068 139.266L226.202 145.945V145.974V146.003C225.951 148.506 225.855 151.408 225.682 154.646C225.509 157.884 225.323 161.441 225.124 165.264C224.925 169.088 224.662 173.177 224.418 177.458C224.174 181.739 223.891 186.223 223.417 190.828C222.922 194.657 222.486 198.423 222.845 202.037C222.942 202.941 223.064 203.833 223.25 204.708C223.414 205.574 223.65 206.428 223.956 207.263C224.597 208.885 225.406 210.46 226.144 211.99C229.141 218.113 231.92 223.575 234.281 228.181L239.877 239.048L241.385 242.014C241.546 242.344 241.674 242.593 241.77 242.784C241.867 242.976 241.892 243.051 241.892 243.051C241.892 243.051 241.835 242.97 241.738 242.796L241.328 242.037C240.962 241.354 240.442 240.363 239.768 239.1L234.114 228.25C231.753 223.662 228.923 218.2 225.913 212.082C225.169 210.547 224.386 208.995 223.699 207.338C223.39 206.492 223.152 205.627 222.987 204.749C222.794 203.862 222.666 202.964 222.569 202.055C222.204 198.4 222.64 194.611 223.134 190.782C223.609 186.2 223.853 181.71 224.142 177.458C224.431 173.206 224.649 169.088 224.873 165.264C225.098 161.441 225.29 157.879 225.477 154.646C225.663 151.414 225.778 148.506 226.048 146.003V146.055C223.879 143.159 222.159 140.894 220.972 139.33L219.637 137.54L219.303 137.076C219.264 137.022 219.232 136.964 219.207 136.903Z" fill="#455A64"/>
<path d="M223.532 74.3108L225.528 69.7634L237.407 69.1841L242.258 69.7634L242.791 71.0262L246.083 123.614C246.083 123.614 234.577 125.711 228.826 124.981C223.076 124.251 216.306 121.882 216.306 121.882V91.9732L223.532 74.3108Z" fill="#F5F5F5"/>
<path d="M241.411 76.4483C241.411 76.4483 241.411 76.483 241.328 76.541L241.071 76.8016C240.846 77.0276 240.506 77.3809 240.057 77.7517C238.832 78.8487 237.534 79.876 236.168 80.8277L236.11 80.8682L236.065 80.8161C234.78 79.5455 233.588 78.2006 232.497 76.7901C232.375 76.6336 232.26 76.4715 232.144 76.3266H232.292C231.272 77.5605 230.309 78.7307 229.436 79.8023C229.324 79.939 229.19 80.06 229.038 80.1615C228.961 80.2167 228.873 80.2575 228.778 80.2813C228.683 80.3052 228.584 80.3117 228.486 80.3005C228.304 80.2648 228.139 80.1799 228.011 80.0572C227.883 79.9414 227.787 79.8197 227.684 79.7097L226.555 78.4352L224.938 76.5873L224.508 76.0833C224.455 76.0269 224.408 75.9668 224.366 75.9037L224.533 76.0659L224.989 76.5526L226.651 78.3657L227.793 79.6286C227.999 79.8487 228.204 80.1152 228.512 80.1615C228.82 80.2078 229.096 79.9645 229.308 79.7154L232.151 76.2397L232.221 76.147L232.292 76.2397L232.638 76.6974C233.729 78.1024 234.912 79.4468 236.181 80.7234H236.072C237.441 79.7847 238.75 78.7771 239.993 77.7053C240.448 77.3114 240.795 76.9986 241.039 76.7843L241.315 76.541C241.343 76.5067 241.375 76.4756 241.411 76.4483Z" fill="#263238"/>
<g opacity="0.3">
<path d="M227.838 79.785C227.838 79.785 229.346 81.4591 229.763 81.0362C230.181 80.6134 232.42 77.4968 232.683 77.3694C232.946 77.2419 235.648 81.6097 236.707 81.3085C237.766 81.0073 241.539 77.5953 241.539 77.5953L241.61 76.2571L236.117 80.7698L232.221 76.2687L228.936 80.121C228.936 80.121 228.242 80.6308 227.838 79.785Z" fill="black"/>
</g>
<path d="M230.367 125.299C230.351 125.136 230.351 124.971 230.367 124.807C230.367 124.46 230.367 123.985 230.418 123.394C230.476 122.142 230.553 120.376 230.649 118.18C230.854 113.795 231.13 107.753 231.387 101.051C231.644 94.3483 231.83 88.3063 231.965 83.9153C232.029 81.743 232.087 79.9762 232.125 78.7018C232.151 78.1109 232.17 77.6417 232.183 77.2941C232.183 77.1291 232.198 76.9644 232.228 76.8017C232.243 76.9655 232.243 77.1303 232.228 77.2941V78.7076C232.228 79.9646 232.196 81.7314 232.17 83.9211C232.099 88.3063 231.945 94.3483 231.695 101.062C231.445 107.776 231.124 113.806 230.861 118.192C230.72 120.358 230.604 122.125 230.521 123.405C230.476 123.985 230.437 124.465 230.405 124.819C230.404 124.98 230.391 125.14 230.367 125.299Z" fill="#263238"/>
<g opacity="0.3">
<path d="M219.9 104.074L213.662 141.039L214.143 145.042C214.689 145.621 215.786 145.418 216.338 144.862C216.837 144.259 217.136 143.539 217.198 142.788C219.592 130.003 220.875 117.004 219.9 104.074Z" fill="black"/>
</g>
<path d="M211.121 74.4498C209.976 74.7828 208.937 75.3616 208.095 76.1365C207.252 76.9114 206.63 77.8592 206.282 78.8987L198.851 102.563L204.947 118.783L211.313 109.004L215.806 73.6156L211.121 74.4498Z" fill="#BA68C8"/>
<path d="M219.707 72.932L212.648 74.1775L210.672 108.002C210.672 108.419 211.134 114.953 211.134 114.953L198.94 139.527C201.661 143.906 209.016 145.963 214.201 147.057C214.201 147.057 219.451 113.459 219.791 106.056C220.131 98.6523 225.4 69.8676 225.4 69.8676L219.707 72.932Z" fill="#BA68C8"/>
<path d="M200.468 136.74L200.513 136.63L200.667 136.306L201.257 135.066C201.777 133.983 202.541 132.419 203.478 130.467L211.076 114.896V114.93C211.018 113.256 210.948 111.518 210.858 109.717C210.652 105.714 210.408 101.896 210.248 98.4264C210.088 94.9565 209.985 91.8226 209.953 89.1926C209.921 86.5627 209.953 84.4367 209.953 82.9711C209.953 82.2412 209.985 81.6735 209.998 81.2796C209.998 81.0884 209.998 80.9436 209.998 80.8393C209.998 80.7351 209.998 80.6887 209.998 80.6887C209.998 80.6887 209.998 80.7409 209.998 80.8393V81.2796C209.998 81.6735 209.998 82.2412 209.998 82.9711C209.998 84.4367 209.998 86.5685 210.043 89.1926C210.088 91.8168 210.197 94.9449 210.376 98.4207C210.556 101.896 210.774 105.708 211.018 109.711C211.108 111.489 211.179 113.233 211.23 114.924V114.959L203.58 130.513C202.618 132.454 201.848 133.989 201.309 135.089C201.045 135.622 200.834 136.034 200.667 136.318C200.596 136.457 200.545 136.561 200.5 136.636C200.494 136.672 200.483 136.707 200.468 136.74Z" fill="#263238"/>
<path d="M219.457 102.383C219.457 102.383 219.457 102.354 219.425 102.302L219.361 102.064C219.303 101.844 219.226 101.543 219.13 101.155C218.944 100.361 218.687 99.2085 218.443 97.766C218.199 96.3236 217.968 94.6147 217.801 92.6973C217.634 90.7799 217.468 88.6771 217.352 86.4642C217.314 85.6358 217.269 84.8248 217.23 84.0312L217.172 82.8726C217.172 82.6814 217.172 82.4903 217.172 82.2933V82.0037V81.8589C217.172 81.8589 217.172 81.8125 217.172 81.7836C217.172 81.7546 217.172 81.7836 217.172 81.7314V81.6967C217.172 81.6967 217.249 81.6677 217.262 81.6967C217.275 81.7256 217.307 81.6967 217.326 81.743H217.204L219.091 80.5497V80.6771L217.025 79.7445H216.967V79.6923C217.275 78.6438 217.647 77.7054 217.968 76.8828C218.289 76.0602 218.61 75.3419 218.847 74.7568C219.085 74.1717 219.303 73.7199 219.444 73.4071C219.515 73.2623 219.573 73.1464 219.611 73.0537C219.65 72.961 219.675 72.9379 219.675 72.9379C219.666 72.9819 219.651 73.0247 219.63 73.0653L219.489 73.4245C219.354 73.7489 219.168 74.2065 218.924 74.7858C218.681 75.3651 218.398 76.0892 218.084 76.9176C217.769 77.7459 217.41 78.6554 217.108 79.7271L217.07 79.6518L219.123 80.5033L219.252 80.5555L219.136 80.6308L217.256 81.8241H217.134C217.134 81.8241 217.198 81.7836 217.192 81.7836C217.197 81.7861 217.202 81.7874 217.208 81.7874C217.213 81.7874 217.219 81.7861 217.224 81.7836H217.256V81.9979V82.2817L217.288 82.861C217.288 83.2434 217.326 83.6373 217.346 84.0196C217.384 84.8132 217.429 85.6242 217.468 86.4526C217.583 88.6655 217.724 90.7683 217.904 92.6799C218.084 94.5916 218.302 96.312 218.546 97.7487C218.79 99.1853 219.014 100.338 219.187 101.137C219.271 101.526 219.342 101.833 219.386 102.053C219.386 102.151 219.425 102.232 219.438 102.29C219.451 102.348 219.457 102.383 219.457 102.383Z" fill="#263238"/>
<path d="M254.413 118.018L258.905 77.0913L246.282 72.9147C246.282 72.9147 243.323 70.4585 241.751 69.1899L241.193 75.6084C241.193 75.6084 239.486 101.879 242.175 115.11C244.864 128.341 244.485 127.889 246.449 136.497C247.88 142.759 248.117 148.228 250.299 148.778C252.481 149.328 263.365 145.731 263.365 145.731L254.413 118.018Z" fill="#BA68C8"/>
<path d="M258.899 77.0913C258.899 77.0913 263.84 78.7886 264.584 84.5293C265.13 88.7697 268.018 112.99 264.995 116.008C261.38 119.516 257.427 122.726 253.181 125.601L246.121 117.311L252.821 110.661L256.601 81.3201L258.899 77.0913Z" fill="#BA68C8"/>
<path d="M244.889 100.975C244.886 100.948 244.886 100.921 244.889 100.894C244.889 100.836 244.889 100.761 244.934 100.668C244.981 100.46 245.045 100.17 245.127 99.7994C245.281 99.0463 245.512 97.9514 245.724 96.5901C246.173 93.8675 246.558 90.0847 246.776 85.8907C246.827 84.9021 246.879 83.9366 246.93 82.9943C246.93 82.5251 246.975 82.0674 247.001 81.6156L247.039 80.9494C247.039 80.8393 247.039 80.7293 247.039 80.6192V80.4628C247.043 80.4378 247.043 80.4125 247.039 80.3875C247.056 80.3924 247.074 80.3924 247.09 80.3875H247.142H247.026L245.146 79.1884L245.037 79.1247L245.159 79.0725L247.212 78.221L247.174 78.2905C246.993 77.5442 246.854 76.7902 246.757 76.0313C246.661 75.3593 246.571 74.7858 246.468 74.3224C246.365 73.8589 246.256 73.4998 246.179 73.2565L246.077 72.9842C246.077 72.9263 246.044 72.8915 246.077 72.8915C246.094 72.9195 246.109 72.9485 246.121 72.9784C246.121 73.0422 246.192 73.129 246.237 73.2449C246.373 73.5911 246.482 73.9453 246.564 74.305C246.68 74.7742 246.782 75.3477 246.892 76.0139C246.997 76.7693 247.145 77.5195 247.334 78.2615V78.3079H247.283L245.262 79.2173V79.1015L247.148 80.289H247.026C247.045 80.2745 247.067 80.2646 247.09 80.2601C247.112 80.2554 247.134 80.2554 247.155 80.2601C247.155 80.2601 247.155 80.2948 247.155 80.3122V80.5671C247.155 80.6771 247.155 80.7872 247.155 80.8973C247.155 81.1174 247.155 81.3375 247.123 81.5634C247.123 82.0153 247.078 82.4729 247.058 82.9421C247.007 83.8748 246.962 84.8422 246.911 85.8386C246.746 89.4238 246.376 92.999 245.801 96.5496C245.57 97.9109 245.319 98.9999 245.159 99.753C245.063 100.118 244.992 100.408 244.934 100.616C244.909 100.709 244.889 100.784 244.876 100.842C244.902 100.952 244.896 100.975 244.889 100.975Z" fill="#263238"/>
<path d="M262.274 111.64C262.274 111.64 261.831 111.373 261.074 111.061C260.628 110.866 260.164 110.705 259.688 110.58C259.102 110.433 258.503 110.336 257.897 110.29C257.292 110.255 256.684 110.271 256.081 110.337C255.589 110.394 255.104 110.491 254.631 110.626C253.822 110.852 253.347 111.09 253.347 111.061C253.444 110.987 253.553 110.927 253.668 110.881C253.795 110.818 253.926 110.762 254.06 110.713C254.235 110.638 254.415 110.572 254.599 110.516C255.076 110.367 255.568 110.258 256.068 110.192C257.298 110.031 258.551 110.116 259.739 110.441C260.22 110.574 260.686 110.747 261.132 110.956C261.305 111.036 261.472 111.125 261.632 111.223C261.759 111.289 261.881 111.363 261.998 111.443C262.098 111.499 262.191 111.565 262.274 111.64Z" fill="#263238"/>
<g opacity="0.3">
<path d="M246.288 73.4418C246.288 73.4418 248.567 78.2383 248.214 78.6554C247.861 79.0725 246.699 79.339 246.699 79.339C246.699 79.339 248.663 80.1094 248.663 80.7872C248.663 82.1427 246.551 90.16 246.551 90.16L247.071 80.3643L245.191 79.2057L247.245 78.3426L246.288 73.4418Z" fill="black"/>
</g>
<path d="M255.375 86.9449C255.392 87.0564 255.392 87.1695 255.375 87.2809C255.375 87.53 255.337 87.8602 255.311 88.2368C255.241 89.1115 255.138 90.299 255.016 91.753C254.727 94.7595 254.342 98.8377 253.912 103.339C253.765 104.741 253.63 106.102 253.495 107.394C253.427 108.043 253.35 108.674 253.264 109.288C253.201 109.888 253.085 110.483 252.918 111.066L248.021 115.66L246.635 116.911C246.48 117.069 246.308 117.213 246.121 117.34C246.254 117.167 246.405 117.006 246.571 116.859L247.893 115.55L252.667 110.968V111.014C252.818 110.443 252.923 109.862 252.982 109.276C253.059 108.668 253.129 108.037 253.2 107.388C253.328 106.09 253.463 104.729 253.604 103.333C254.073 98.8319 254.496 94.7537 254.804 91.7472C254.971 90.2932 255.112 89.1057 255.209 88.2368C255.26 87.8544 255.305 87.5358 255.337 87.2867C255.334 87.1718 255.347 87.0569 255.375 86.9449Z" fill="#263238"/>
<path d="M200.185 98.3163L195.289 108.164L190.668 103.489L184.501 107.417L191.747 117.908C194.025 120.544 196.2 122.339 198.677 122.055C199.176 121.993 199.666 121.887 200.141 121.737C203.542 120.688 205.884 118.626 206.77 115.481L209.574 102.788L200.185 98.3163Z" fill="#BA68C8"/>
<path d="M200.692 115.903C200.65 115.767 200.618 115.627 200.596 115.486C200.545 115.22 200.455 114.832 200.333 114.357C200.211 113.882 200.044 113.326 199.826 112.712C199.608 112.098 199.332 111.437 199.005 110.759C198.677 110.082 198.312 109.45 197.965 108.888C197.618 108.326 197.266 107.84 196.964 107.44C196.662 107.04 196.399 106.716 196.219 106.502C196.119 106.393 196.027 106.279 195.944 106.16C196.059 106.255 196.164 106.36 196.258 106.473C196.457 106.681 196.726 106.994 197.041 107.388C197.355 107.782 197.683 108.274 198.074 108.83C198.462 109.44 198.815 110.066 199.133 110.707C199.46 111.391 199.73 112.063 199.948 112.677C200.166 113.291 200.32 113.835 200.429 114.339C200.538 114.843 200.609 115.208 200.648 115.498C200.676 115.632 200.691 115.767 200.692 115.903Z" fill="#263238"/>
<path d="M227.691 35.5971L227.652 35.7477C227.685 35.7188 227.685 35.6492 227.691 35.5971Z" fill="#263238"/>
<path d="M215.825 63.93C215.908 62.3543 215.254 60.8308 214.702 59.3304C214.15 57.8301 213.694 56.2081 214.163 54.6962C214.753 52.7845 216.659 51.4522 217.686 49.6911C218.713 47.9301 218.79 45.8505 218.969 43.8635C219.149 41.8766 219.521 39.768 220.984 38.2676C222.833 36.3676 227.671 36.0258 229.969 37.4914C230.322 48.799 230.213 59.9966 227.53 71.0494C221.414 71.2869 218.315 70.2094 212.982 67.51C214.682 67.1798 215.741 65.5114 215.825 63.93Z" fill="#263238"/>
<path d="M242.053 71.0957L244.267 43.6376C244.299 43.0315 244.078 42.4366 243.648 41.9701C243.218 41.5037 242.61 41.1996 241.944 41.1177L227.825 37.5087C223.282 36.9295 220.092 41.9461 219.675 46.0648C219.213 50.6412 218.847 56.2486 219.342 59.6838C220.336 66.5947 226.15 67.62 226.15 67.62C226.028 71.0262 226.073 71.0957 226.073 71.0957L232.305 76.2398L242.053 71.0957Z" fill="#FFBF9D"/>
<path d="M221.735 52.043C221.725 52.2728 221.814 52.4971 221.984 52.6682C222.155 52.8392 222.392 52.9433 222.646 52.9583C222.771 52.9702 222.896 52.9597 223.016 52.9272C223.135 52.8948 223.246 52.8411 223.343 52.7693C223.439 52.6976 223.518 52.6092 223.576 52.5093C223.634 52.4094 223.669 52.3001 223.68 52.1878C223.689 51.9584 223.599 51.7349 223.429 51.5642C223.259 51.3934 223.022 51.2889 222.768 51.2725C222.644 51.2606 222.519 51.2711 222.399 51.3036C222.28 51.336 222.168 51.3897 222.072 51.4615C221.976 51.5332 221.897 51.6217 221.839 51.7215C221.781 51.8214 221.746 51.9307 221.735 52.043Z" fill="#263238"/>
<path d="M220.92 49.0423C221.036 49.1582 221.793 48.6832 222.845 48.7121C223.898 48.7411 224.655 49.2393 224.771 49.1234C224.886 49.0076 224.713 48.8627 224.386 48.631C223.938 48.3356 223.4 48.1718 222.845 48.1618C222.299 48.1462 221.762 48.2883 221.312 48.5673C220.978 48.7585 220.875 48.967 220.92 49.0423Z" fill="#263238"/>
<path d="M230.707 52.211C230.696 52.4408 230.786 52.6652 230.956 52.8362C231.126 53.0073 231.364 53.1114 231.618 53.1263C231.742 53.1383 231.868 53.1277 231.987 53.0953C232.107 53.0628 232.218 53.0092 232.314 52.9374C232.411 52.8656 232.49 52.7772 232.548 52.6773C232.606 52.5775 232.641 52.4682 232.651 52.3559C232.662 52.1261 232.572 51.9017 232.402 51.7307C232.232 51.5596 231.994 51.4555 231.74 51.4406C231.616 51.4278 231.49 51.4378 231.37 51.4699C231.25 51.502 231.138 51.5556 231.042 51.6276C230.946 51.6995 230.866 51.7882 230.809 51.8885C230.751 51.9887 230.716 52.0984 230.707 52.211Z" fill="#263238"/>
<path d="M231.252 49.4594C231.374 49.5752 232.131 49.1002 233.177 49.1292C234.224 49.1581 234.987 49.6563 235.103 49.5405C235.218 49.4246 235.045 49.2798 234.718 49.0539C234.271 48.7557 233.733 48.5898 233.177 48.5789C232.631 48.5633 232.094 48.7053 231.644 48.9844C231.316 49.1987 231.195 49.4072 231.252 49.4594Z" fill="#263238"/>
<path d="M227.216 56.405C226.667 56.2304 226.095 56.1213 225.515 56.0806C225.246 56.0517 224.995 55.9937 224.957 55.8257C224.94 55.5754 225.009 55.3264 225.156 55.1132C225.425 54.5339 225.714 53.9546 226.009 53.2885C227.196 50.6875 228.063 48.5499 227.934 48.5036C227.806 48.4572 226.76 50.5369 225.573 53.1379C225.29 53.7751 225.015 54.3891 224.758 54.9742C224.577 55.2623 224.516 55.599 224.585 55.9242C224.622 56.0097 224.681 56.0866 224.755 56.1496C224.829 56.2127 224.918 56.2603 225.015 56.2892C225.163 56.3292 225.316 56.3526 225.47 56.3587C226.048 56.4378 226.634 56.4533 227.216 56.405Z" fill="#263238"/>
<path d="M226.138 67.62C229.719 67.7583 233.273 66.9984 236.405 65.4245C236.861 64.4745 234.365 68.8597 226.08 69.4216L226.138 67.62Z" fill="#BA68C8"/>
<path d="M227.293 58.6643C227.538 58.3553 227.863 58.1055 228.24 57.9368C228.617 57.7681 229.035 57.6857 229.455 57.6969C229.731 57.7077 229.999 57.7787 230.237 57.9038C230.475 58.029 230.676 58.2044 230.822 58.4152C230.966 58.653 231.035 58.9218 231.021 59.1924C231.008 59.4631 230.912 59.7252 230.745 59.9503C230.547 60.1815 230.277 60.3537 229.969 60.4446C229.661 60.5355 229.33 60.5409 229.019 60.4601C228.44 60.2719 227.919 59.9622 227.498 59.5564C227.364 59.4563 227.255 59.332 227.177 59.1914C227.139 59.1138 227.124 59.0284 227.134 58.944C227.144 58.8595 227.179 58.779 227.235 58.7106" fill="#BA68C8"/>
<path d="M230.29 57.1523C230.116 57.1523 230.084 58.1661 229.083 58.8902C228.082 59.6143 226.876 59.4695 226.856 59.5969C226.837 59.7244 227.126 59.8055 227.639 59.8286C228.307 59.8537 228.963 59.6672 229.494 59.3015C230.003 58.9468 230.339 58.4275 230.431 57.8533C230.501 57.3956 230.367 57.1523 230.29 57.1523Z" fill="#263238"/>
<path d="M230.912 45.5666C231.008 45.8273 232.061 45.7346 233.293 45.8968C234.525 46.059 235.513 46.395 235.68 46.169C235.757 46.059 235.59 45.8099 235.199 45.5492C234.672 45.2328 234.069 45.0343 233.441 44.9699C232.812 44.8841 232.17 44.9337 231.567 45.1147C231.105 45.219 230.874 45.416 230.912 45.5666Z" fill="#E0E0E0"/>
<path d="M221.395 45.7578C221.575 45.9779 222.306 45.7578 223.173 45.7578C224.039 45.7578 224.777 45.9431 224.957 45.723C225.034 45.6129 224.925 45.3986 224.61 45.1843C224.188 44.9211 223.686 44.7834 223.173 44.7904C222.66 44.7881 222.158 44.9276 221.735 45.1901C221.421 45.4334 221.318 45.6535 221.395 45.7578Z" fill="#263238"/>
<path d="M226.131 37.4566C227.415 34.6297 230.27 34.033 233.306 33.7376C236.341 33.4421 240.846 34.5775 243.356 36.0547C245.442 37.202 247.317 38.6367 248.913 40.3067C250.261 41.8765 250.838 43.6665 251.698 45.4739C252.982 48.2892 252.918 51.4 253.097 54.4239C253.33 58.223 254.003 61.9896 255.106 65.662C255.504 66.9828 255.908 68.5584 253.822 69.3173C253.435 69.4529 253.029 69.5424 252.616 69.5838C249.407 69.9313 246.301 70.8756 242.727 71.0783H240.525C237.734 71.0783 236.303 69.4563 236.399 67.3999C236.688 61.1841 240.044 50.9771 240.416 49.0191C240.436 49.0423 241.597 35.626 226.131 37.4566Z" fill="#263238"/>
<path d="M227.139 37.3987C227.605 37.7495 227.987 38.1819 228.263 38.6697C228.538 39.1576 228.702 39.6908 228.743 40.2372C228.91 41.3205 228.839 42.4327 229.064 43.5044C229.299 44.5813 229.817 45.5915 230.576 46.4495C231.334 47.3075 232.31 47.9882 233.421 48.4341C234.134 48.7063 235.103 48.8222 235.546 48.2487C235.519 49.0125 235.751 49.7654 236.209 50.4079C236.667 51.0503 237.331 51.5518 238.113 51.8461C239.242 52.2574 240.506 52.1878 241.693 52.4254C242.881 52.6629 244.126 53.3986 244.19 54.4992L244.69 46.8584L242.31 40.104L234.994 36.1822L227.139 37.3987Z" fill="#263238"/>
<path d="M240.128 49.9924C239.881 49.8379 239.647 49.6675 239.428 49.4826C238.878 48.9323 238.481 48.2708 238.273 47.5536C237.981 46.489 237.811 45.3999 237.766 44.3038C237.709 42.9516 237.535 41.6055 237.246 40.2778C236.951 38.9363 236.264 37.6903 235.257 36.6688C234.806 36.2309 234.262 35.8784 233.659 35.6319C233.131 35.421 232.566 35.2955 231.99 35.2611C231.156 35.2004 230.322 35.381 229.609 35.7767C229.497 35.8346 229.392 35.9025 229.295 35.9795C229.217 36.0301 229.146 36.0884 229.083 36.1532C229.026 36.2039 228.972 36.2581 228.923 36.3154C229.143 36.1303 229.381 35.9636 229.635 35.8173C230.346 35.4478 231.167 35.286 231.984 35.3538C233.211 35.4334 234.359 35.9327 235.193 36.7499C236.169 37.7627 236.832 38.9893 237.118 40.3067C237.403 41.6274 237.579 42.9654 237.644 44.3096C237.694 45.4152 237.877 46.5126 238.19 47.5826C238.409 48.3088 238.825 48.974 239.402 49.5174C239.613 49.7115 239.858 49.8721 240.128 49.9924Z" fill="white"/>
<path d="M246.455 49.0713C246.072 49.0308 245.697 48.9451 245.339 48.8164C244.388 48.401 243.581 47.7602 243.003 46.9627C242.585 46.4279 242.226 45.8575 241.931 45.2596C241.614 44.564 241.413 43.83 241.334 43.0815C241.225 42.2936 241.193 41.4537 241.09 40.5848C241.032 40.1561 240.968 39.71 240.859 39.2698C240.743 38.8222 240.58 38.3858 240.371 37.9664C239.549 36.3591 238.088 35.0895 236.277 34.4096C234.803 33.8648 233.173 33.7652 231.631 34.1257C230.595 34.3563 229.624 34.7806 228.782 35.3712C228.474 35.5851 228.19 35.8257 227.934 36.0895C227.957 36.0775 227.976 36.0618 227.992 36.0432L228.159 35.9099C228.23 35.8462 228.319 35.7709 228.429 35.6898C228.538 35.6087 228.666 35.5044 228.82 35.4117C229.665 34.8429 230.631 34.4368 231.657 34.2184C233.176 33.8787 234.777 33.9842 236.226 34.5196C237.992 35.1916 239.421 36.4296 240.237 37.9954C240.438 38.4081 240.597 38.8366 240.712 39.2756C240.813 39.7062 240.89 40.1412 240.943 40.579C241.045 41.4363 241.084 42.2763 241.193 43.0757C241.284 43.8342 241.501 44.5761 241.835 45.277C242.137 45.8872 242.504 46.4692 242.932 47.0148C243.53 47.8175 244.36 48.4567 245.332 48.8627C245.601 48.9547 245.881 49.0169 246.166 49.0481H246.391L246.455 49.0713Z" fill="#455A64"/>
<path d="M235.546 48.2487C235.546 48.2487 235.546 48.2487 235.546 48.3124C235.546 48.3761 235.546 48.4225 235.546 48.4978C235.546 48.5731 235.546 48.689 235.59 48.8106C235.635 48.9323 235.648 49.0713 235.687 49.2277C235.791 49.6091 235.952 49.9756 236.168 50.3168C236.461 50.7703 236.854 51.1647 237.323 51.4753C238.621 52.2417 240.169 52.587 241.713 52.4543C242.632 52.4138 243.544 52.2856 244.434 52.072C245.405 51.8524 246.338 51.5132 247.206 51.064L247.379 50.9713H247.18C246.065 50.8292 244.982 50.5281 243.972 50.0792H243.914L243.869 50.2009C246.136 50.5309 248.46 50.155 250.46 49.135L250.594 49.0655L250.447 49.0249C249.037 48.642 247.714 48.0359 246.539 47.235C245.621 46.6038 244.915 45.7557 244.498 44.7846C244.256 44.1435 244.143 43.4687 244.164 42.7918C244.164 42.5659 244.196 42.3863 244.209 42.2531V42.0909V42.0446C244.211 42.06 244.211 42.0755 244.209 42.0909V42.2299C244.209 42.3574 244.171 42.5369 244.138 42.7687C244.102 43.4535 244.204 44.1387 244.44 44.7904C244.867 45.7898 245.596 46.661 246.545 47.3045C247.729 48.1171 249.063 48.7348 250.485 49.1292V49.0192C248.511 50.019 246.22 50.3865 243.984 50.0619L243.49 49.9866L243.94 50.1835H243.997C245.008 50.6349 246.091 50.9398 247.206 51.0872V50.9656C246.346 51.4087 245.425 51.7458 244.466 51.9677C243.587 52.1817 242.686 52.3099 241.777 52.35C240.26 52.4886 238.735 52.1599 237.452 51.4174C236.984 51.1074 236.592 50.7128 236.303 50.2588C236.088 49.9214 235.92 49.5615 235.802 49.1871C235.764 49.0307 235.725 48.8975 235.7 48.7759C235.674 48.6542 235.661 48.5499 235.642 48.4688C235.623 48.3877 235.642 48.3298 235.61 48.2835C235.589 48.2702 235.568 48.2586 235.546 48.2487Z" fill="#455A64"/>
<path d="M251.191 67.0523C251.23 67.0523 250.768 63.3681 250.158 58.8381C249.548 54.308 249.016 50.6354 248.977 50.6354C248.939 50.6354 249.401 54.3196 250.01 58.8496C250.62 63.3797 251.146 67.0523 251.191 67.0523Z" fill="#455A64"/>
<path d="M235.738 119.037C235.134 118.925 234.51 118.927 233.907 119.044C233.304 119.16 232.734 119.389 232.234 119.715C230.643 120.769 227.915 122.171 225.175 121.685C220.92 120.926 218.61 117.323 219.56 112.995C220.509 108.668 224.148 106.085 228.409 106.843C231.162 107.33 233.1 109.554 234.134 111.078C234.461 111.548 234.892 111.953 235.4 112.267C235.908 112.581 236.481 112.797 237.086 112.903C237.669 113.006 238.269 113.005 238.852 112.9C239.434 112.794 239.988 112.585 240.482 112.286C240.975 111.987 241.399 111.603 241.728 111.156C242.057 110.709 242.285 110.208 242.399 109.682L247.123 84.0427L202.637 77.0276L172.231 72.2717L167.482 96.6017C167.001 98.8145 169.061 100.778 171.512 101.236C172.116 101.348 172.739 101.344 173.341 101.227C173.943 101.109 174.511 100.879 175.01 100.552C176.601 99.4981 179.335 98.0962 182.069 98.5828C186.33 99.3417 188.641 102.945 187.691 107.301C186.741 111.657 183.096 114.212 178.835 113.453C176.088 112.966 174.144 110.742 173.11 109.219C172.784 108.747 172.353 108.341 171.845 108.026C171.337 107.711 170.763 107.494 170.158 107.388C169.575 107.281 168.974 107.28 168.391 107.385C167.807 107.489 167.252 107.697 166.759 107.997C166.265 108.296 165.842 108.682 165.515 109.13C165.187 109.578 164.962 110.081 164.851 110.609L159.152 139.26L203.895 146.368L230.142 150.539L233.351 151.055L239.287 123.869C239.412 123.341 239.419 122.795 239.308 122.265C239.196 121.734 238.969 121.229 238.638 120.779C238.308 120.329 237.881 119.943 237.383 119.644C236.885 119.345 236.326 119.139 235.738 119.037Z" fill="#455A64"/>
<path d="M191.426 102.754C191.432 102.609 191.405 102.464 191.346 102.33C191.287 102.195 191.198 102.072 191.084 101.971C190.97 101.869 190.833 101.789 190.683 101.738C190.533 101.686 190.373 101.663 190.213 101.67C189.841 101.67 189.359 101.711 188.769 101.763C187.235 101.902 182.698 103.918 182.576 104.729C182.494 105.019 182.496 105.324 182.583 105.613C182.669 105.902 182.837 106.167 183.07 106.38C183.07 106.38 182.185 107.44 182.505 108.321C182.788 109.068 184.123 109.329 184.123 109.329C184.123 109.329 183.134 110.365 184.123 111.107C184.476 111.362 185.188 111.854 185.348 112.022C185.413 112.244 185.508 112.458 185.631 112.659C185.853 112.942 186.14 113.178 186.472 113.352C186.804 113.526 187.174 113.633 187.556 113.667H187.813C188.305 113.711 188.796 113.583 189.186 113.308C190.957 112.086 195.976 108.541 196.072 107.556C196.072 107.556 197.028 106.884 196.656 106.183C196.284 105.482 194.853 105.783 194.853 105.783C195.047 105.642 195.187 105.449 195.252 105.231C195.316 105.013 195.302 104.783 195.212 104.573C194.885 103.831 192.35 103.895 191.201 104.034C190.283 104.138 187.729 104.515 187.729 104.515C187.729 104.515 191.13 103.46 191.329 102.939C191.37 102.881 191.403 102.819 191.426 102.754Z" fill="#FFBF9D"/>
<path d="M196.123 107.579C196.017 107.652 195.903 107.716 195.783 107.77C195.558 107.88 195.231 108.037 194.814 108.222C193.993 108.593 192.825 109.056 191.516 109.514C190.206 109.972 188.993 110.336 188.114 110.591C187.678 110.719 187.325 110.812 187.075 110.881C186.949 110.918 186.82 110.947 186.69 110.968C186.81 110.915 186.934 110.871 187.062 110.835L188.089 110.516C188.961 110.244 190.155 109.861 191.471 109.41C192.786 108.958 193.941 108.5 194.776 108.153L195.764 107.73C195.88 107.672 196 107.622 196.123 107.579Z" fill="#BA68C8"/>
<path d="M195.058 105.778C194.937 105.815 194.813 105.84 194.686 105.853C194.448 105.893 194.102 105.951 193.672 106.038C192.818 106.206 191.657 106.496 190.386 106.861C189.744 107.04 189.141 107.203 188.596 107.371C188.05 107.539 187.569 107.724 187.171 107.875C186.773 108.025 186.452 108.17 186.228 108.263C186.117 108.319 186.001 108.366 185.881 108.402L185.964 108.35L186.208 108.222C186.42 108.118 186.735 107.967 187.132 107.805C187.53 107.643 188.012 107.452 188.557 107.272C189.103 107.093 189.712 106.93 190.348 106.751C191.435 106.434 192.541 106.17 193.659 105.957C194.082 105.882 194.435 105.836 194.679 105.807L195.058 105.778Z" fill="#BA68C8"/>
<path d="M187.781 104.538C187.61 104.642 187.427 104.73 187.235 104.799C186.889 104.943 186.401 105.129 185.862 105.332C185.323 105.534 184.848 105.725 184.501 105.87C184.319 105.956 184.13 106.032 183.937 106.096C184.097 105.978 184.274 105.879 184.463 105.801C184.901 105.584 185.353 105.39 185.817 105.221C186.356 105.019 186.844 104.845 187.197 104.717C187.385 104.642 187.581 104.582 187.781 104.538Z" fill="#BA68C8"/>
<path d="M194.525 109.375C194.457 109.462 194.38 109.544 194.294 109.618C194.134 109.763 193.896 109.972 193.595 110.197C192.992 110.701 192.119 111.356 191.169 112.069C190.938 112.248 190.713 112.439 190.476 112.602C190.256 112.763 190.024 112.912 189.783 113.048C189.375 113.283 188.929 113.459 188.461 113.569C188.145 113.646 187.817 113.671 187.492 113.644C187.403 113.641 187.315 113.631 187.229 113.615H187.139C187.256 113.609 187.374 113.609 187.492 113.615C187.811 113.622 188.13 113.583 188.435 113.499C188.89 113.382 189.322 113.205 189.719 112.972C189.954 112.835 190.181 112.686 190.399 112.526C190.63 112.364 190.848 112.179 191.086 111.993C192.035 111.263 192.921 110.632 193.537 110.151L194.256 109.572C194.34 109.5 194.43 109.435 194.525 109.375Z" fill="#BA68C8"/>
<path d="M244.844 118.939C244.844 118.939 243.253 117.398 241.912 117.149C240.57 116.9 238.703 117.114 238.388 116.906C238.074 116.697 237.368 115.874 236.733 116.384C236.097 116.894 235.071 118.927 237.785 119.924L239.71 120.208C239.456 121.027 239.069 121.808 238.562 122.525C237.971 123.145 230.033 129.667 230.033 129.667C230.033 129.667 229.077 130.293 229.353 131.098C229.629 131.903 231.47 131.735 231.47 131.735C231.778 132.071 232.174 132.331 232.623 132.491C233.072 132.652 233.559 132.706 234.037 132.651C234.778 132.533 235.502 132.338 236.194 132.071C236.593 132.453 237.121 132.705 237.694 132.79C238.268 132.874 238.857 132.787 239.37 132.541C241.219 131.666 249.099 125.317 249.099 125.317L247.116 119.008L244.844 118.939Z" fill="#FFBF9D"/>
<path d="M246.686 117.699L244.71 118.945C247.161 121.175 249.022 123.156 248.515 125.832L252.327 124.436C252.327 124.436 252.654 119.084 246.686 117.699Z" fill="#FFBF9D"/>
<path d="M237.458 128.184C236.711 129.032 235.8 129.75 234.769 130.304C233.8 130.938 232.713 131.411 231.56 131.701C231.522 131.614 232.966 131.023 234.589 130.05C236.213 129.076 237.387 128.121 237.458 128.184Z" fill="#BA68C8"/>
<path d="M240.224 129.563C239.718 130.276 239.06 130.891 238.289 131.373C237.518 131.856 236.649 132.195 235.732 132.373C235.7 132.286 236.855 131.903 238.087 131.121C239.319 130.339 240.128 129.517 240.224 129.563Z" fill="#BA68C8"/>
<path d="M126.969 85.9891L129.382 84.6857L132.559 92.4134L129.985 93.85L126.969 85.9891Z" fill="#F5F5F5"/>
<path d="M84.7037 36.1474C84.5663 33.1524 83.1857 30.3137 80.8364 28.1952C78.4871 26.0767 75.3409 24.8334 72.0229 24.7123H71.3426C63.9369 24.8224 59.9132 30.5631 60.2405 37.2365L61.1774 64.1154L72.8764 68.1704L77.4007 64.4166C77.4007 62.5339 77.4007 58.6237 77.4456 58.6237C77.4905 58.6237 84.5882 57.8938 84.9668 51.4927C85.153 48.3356 84.954 41.9345 84.7037 36.1474Z" fill="#FFBF9D"/>
<path d="M77.4456 58.56C74.1661 58.4334 70.9962 57.4581 68.3136 55.7505C68.3136 55.7505 70.3158 60.6512 77.4264 60.3384L77.4456 58.56Z" fill="#BA68C8"/>
<path d="M82.2587 41.6738C82.252 41.913 82.1411 42.1402 81.9501 42.3061C81.7591 42.472 81.5034 42.5633 81.2383 42.5601C81.109 42.5656 80.9798 42.5474 80.8586 42.5064C80.7373 42.4655 80.6266 42.4028 80.533 42.3221C80.4393 42.2414 80.3649 42.1444 80.314 42.0369C80.2632 41.9295 80.2371 41.8138 80.2372 41.697C80.2439 41.4588 80.3539 41.2325 80.5435 41.0668C80.7331 40.9011 80.9872 40.8091 81.2511 40.8107C81.3805 40.806 81.5096 40.8248 81.6308 40.866C81.752 40.9071 81.8629 40.9698 81.9568 41.0502C82.0507 41.1307 82.1258 41.2273 82.1777 41.3344C82.2295 41.4416 82.2571 41.5569 82.2587 41.6738Z" fill="#263238"/>
<path d="M83.0673 38.9222C82.9325 39.0381 82.1881 38.4935 81.0971 38.4588C80.0062 38.424 79.1719 38.8816 79.0756 38.7542C78.9794 38.6268 79.159 38.4877 79.5184 38.2734C80.002 37.9952 80.5693 37.8596 81.142 37.8853C81.7101 37.9048 82.2564 38.0874 82.7015 38.4066C83.0288 38.6499 83.1314 38.8701 83.0673 38.9222Z" fill="#263238"/>
<path d="M72.7737 41.6738C72.7653 41.9125 72.6539 42.1388 72.4633 42.3044C72.2727 42.47 72.0179 42.5618 71.7533 42.5601C71.6239 42.5648 71.4948 42.546 71.3736 42.5048C71.2524 42.4637 71.1416 42.401 71.0477 42.3206C70.9538 42.2401 70.8787 42.1435 70.8268 42.0364C70.7749 41.9293 70.7474 41.8139 70.7458 41.697C70.7558 41.4588 70.8676 41.2333 71.0579 41.0681C71.2482 40.9028 71.5021 40.8105 71.7662 40.8107C71.8955 40.806 72.0247 40.8248 72.1459 40.866C72.2671 40.9071 72.3779 40.9698 72.4718 41.0502C72.5657 41.1307 72.6408 41.2273 72.6927 41.3344C72.7445 41.4416 72.7721 41.5569 72.7737 41.6738Z" fill="#263238"/>
<path d="M72.363 38.7542C72.2347 38.8642 71.4902 38.3255 70.3993 38.285C69.3083 38.2444 68.474 38.7136 68.3714 38.5862C68.2687 38.4587 68.4548 38.3197 68.8142 38.1054C69.3 37.8271 69.8695 37.6915 70.4442 37.7173C71.0105 37.7397 71.5552 37.9198 72.0036 38.2328C72.3245 38.4819 72.4272 38.702 72.363 38.7542Z" fill="#263238"/>
<path d="M75.9311 46.4645C76.5126 46.3207 77.1122 46.2448 77.7151 46.2386C77.9975 46.2386 78.2606 46.1864 78.3184 46.0127C78.3512 45.7553 78.2976 45.4949 78.1644 45.2654C77.9333 44.6455 77.683 43.9967 77.4264 43.319C76.406 40.55 75.6808 38.2792 75.8092 38.2386C75.9375 38.1981 76.8552 40.4168 77.8756 43.1857C78.1194 43.8693 78.3569 44.5181 78.5751 45.1437C78.74 45.4521 78.7765 45.8037 78.6778 46.1343C78.6325 46.2213 78.5664 46.2981 78.4843 46.3592C78.4022 46.4203 78.3061 46.4642 78.2029 46.4877C78.0466 46.5165 77.8874 46.5301 77.728 46.5282C77.1284 46.5724 76.525 46.551 75.9311 46.4645Z" fill="#263238"/>
<path d="M72.8572 35.684C72.6967 35.9331 71.6507 35.6261 70.3672 35.5566C69.0837 35.487 67.9927 35.6203 67.8772 35.3596C67.8259 35.2322 68.0505 35.012 68.519 34.8267C69.1304 34.6046 69.7899 34.5116 70.4473 34.5548C71.1046 34.598 71.7423 34.7762 72.3117 35.0758C72.7416 35.3248 72.9277 35.5681 72.8572 35.684Z" fill="#263238"/>
<path d="M83.247 36.0316C83.0159 36.2459 82.1367 35.9968 81.065 35.9563C79.9933 35.9157 79.0885 36.0605 78.8895 35.823C78.7997 35.7072 78.9473 35.487 79.3516 35.2843C79.9046 35.0418 80.5168 34.9301 81.1308 34.9594C81.7447 34.9888 82.3404 35.1584 82.8619 35.4523C83.2341 35.7188 83.3496 35.9215 83.247 36.0316Z" fill="#263238"/>
<path d="M60.6062 41.9519C60.4843 41.8997 55.7867 40.4689 55.7418 44.8483C55.6969 49.2277 60.5806 48.3704 60.5934 48.2429C60.6062 48.1155 60.6062 41.9519 60.6062 41.9519Z" fill="#FFBF9D"/>
<path d="M59.1559 46.5746C59.1559 46.5746 59.0725 46.6267 58.9313 46.6846C58.8298 46.7235 58.7207 46.7435 58.6104 46.7435C58.5002 46.7435 58.3911 46.7235 58.2896 46.6846C57.9771 46.5032 57.7243 46.2496 57.5572 45.9501C57.3902 45.6505 57.3151 45.3161 57.3398 44.9815C57.3305 44.6067 57.4138 44.2346 57.5836 43.8925C57.632 43.7569 57.7155 43.6336 57.8271 43.5329C57.9386 43.4322 58.0752 43.3569 58.2254 43.3132C58.3225 43.2925 58.4245 43.3026 58.5144 43.3416C58.6043 43.3806 58.6767 43.4462 58.7195 43.5275C58.7837 43.655 58.7195 43.7419 58.7773 43.7476C58.835 43.7534 58.88 43.6723 58.8479 43.4928C58.8208 43.3829 58.7528 43.2848 58.6554 43.2147C58.5237 43.1236 58.3581 43.0821 58.1933 43.0988C57.9926 43.133 57.805 43.2133 57.6488 43.3321C57.4925 43.4508 57.3728 43.6039 57.3013 43.7766C57.0898 44.1532 56.984 44.571 56.9932 44.9931C56.9932 45.8794 57.5066 46.731 58.2061 46.899C58.3365 46.9341 58.4738 46.9424 58.6082 46.9234C58.7426 46.9043 58.8705 46.8584 58.9826 46.7889C59.1174 46.6788 59.1559 46.5861 59.1559 46.5746Z" fill="#BA68C8"/>
<path d="M72.5042 47.0727C72.671 47.0727 72.6774 48.0691 73.6401 48.8106C74.6027 49.5521 75.7835 49.3899 75.7899 49.5463C75.7963 49.7027 75.5268 49.7432 75.0262 49.7548C74.3701 49.7602 73.7332 49.5549 73.2293 49.1755C72.7414 48.8199 72.4261 48.3067 72.3502 47.7447C72.3052 47.3045 72.4272 47.0669 72.5042 47.0727Z" fill="#263238"/>
<path d="M94.5096 30.3777C94.4234 30.1289 94.232 29.9207 93.9769 29.7984C93.413 29.5582 92.7882 29.4582 92.1672 29.5088C90.619 29.4691 89.1017 29.1083 87.7327 28.4545C88.2154 28.2476 88.6592 27.9739 89.0483 27.6435C89.4673 27.3045 89.7742 26.8675 89.9351 26.3809C90.0959 25.8942 90.1044 25.3768 89.9596 24.8861C89.9403 24.7936 89.8963 24.7068 89.8314 24.6331C89.7666 24.5594 89.6828 24.5011 89.5874 24.4632C89.2729 24.3705 88.9906 24.6486 88.766 24.8687C88.4813 25.2089 88.1006 25.4738 87.6637 25.6358C87.2269 25.7979 86.7498 25.851 86.2824 25.7898C85.6354 25.7447 85.0081 25.5685 84.447 25.2742C84.4224 25.2558 84.4007 25.2344 84.3828 25.2105L83.6513 24.5269C81.8415 22.8702 80.2821 21.7232 78.6713 21.1149C76.3097 20.2286 72.3502 19.8405 69.8666 20.4024C67.3831 20.9643 65.1434 22.7195 64.7712 25.0367C63.3978 23.9592 61.3122 23.9476 59.6372 24.5443H59.5923C57.7056 25.1236 56.6146 26.9136 56.037 28.6398C56.037 28.7325 55.9793 28.831 55.9472 28.9237C55.3001 29.8347 54.4197 30.5917 53.3802 31.1308C53.2005 31.2235 52.9888 31.3393 52.9631 31.5305C52.9722 31.6236 53.0062 31.7133 53.0621 31.792C53.1179 31.8706 53.1941 31.936 53.284 31.9823C53.7361 32.2726 54.253 32.4703 54.7985 32.5616C54.621 32.9634 54.4063 33.351 54.1567 33.7202C53.945 34.0446 53.6883 34.4327 53.8679 34.7687C53.9434 34.896 54.0598 34.9996 54.2019 35.0658C54.344 35.132 54.5051 35.1577 54.6637 35.1394C54.9803 35.0798 55.2796 34.9614 55.5429 34.7919L54.9012 36.1474C55.5833 36.2556 56.284 36.2199 56.9483 36.0431C57.3269 37.6651 57.5901 40.6774 58.0393 41.7722C59.3228 41.807 59.6436 41.6854 60.2918 41.8823C61.1325 42.143 60.7924 43.4869 61.8897 43.1162C62.4481 42.925 63.3337 41.0308 63.5262 40.5152C64.8089 37.113 65.2685 33.502 64.8739 29.9259C65.668 29.1937 66.6087 28.604 67.6462 28.188L67.5628 28.2575C69.5586 27.6782 71.8111 27.0642 73.685 27.9215C75.1417 28.5935 75.9824 29.9722 77.0606 31.0728C77.9694 32.0801 79.1045 32.9019 80.391 33.484C81.6775 34.0662 83.0862 34.3954 84.524 34.4501C84.7807 36.3849 84.8192 39.5536 84.9027 41.361L86.661 37.7636C86.8022 37.5493 86.9177 37.3349 87.0333 37.1264L87.0718 37.0627C87.2428 36.7143 87.4335 36.374 87.6429 36.0431C87.8784 36.1883 88.1607 36.2586 88.4453 36.2429C88.7299 36.2272 89.0007 36.1264 89.2148 35.9564C89.4289 35.7864 89.5742 35.5568 89.6277 35.304C89.6812 35.0512 89.6399 34.7895 89.5104 34.5601C89.3456 34.3405 89.1443 34.1451 88.9136 33.9809C89.1555 34.1987 89.4561 34.3559 89.7858 34.4372C90.1154 34.5184 90.4628 34.5209 90.7939 34.4443C91.1175 34.3534 91.3992 34.1695 91.5962 33.9205C91.7932 33.6716 91.8945 33.3714 91.8848 33.0656C91.8622 32.8574 91.7791 32.6583 91.6439 32.4884C91.5087 32.3185 91.3261 32.1839 91.1147 32.0982C92.0037 32.1736 92.8974 32.0083 93.6817 31.6232C94.1759 31.3683 94.6764 30.9512 94.5096 30.3777Z" fill="#263238"/>
<path d="M66.998 25.7956C66.7416 25.971 66.5012 26.1647 66.2792 26.3749C65.7101 26.9825 65.3254 27.713 65.1626 28.4951C65.0311 29.0297 64.9623 29.5753 64.9573 30.1229C64.9573 30.7021 64.9958 31.3509 65.0343 32.0171C65.0828 32.7174 65.0828 33.4197 65.0343 34.1199C65.0081 34.4941 64.9501 34.866 64.861 35.2322C64.7924 35.6227 64.6158 35.9912 64.3476 36.3038C64.2224 36.4277 64.0637 36.52 63.8871 36.5718C63.7105 36.6236 63.522 36.633 63.3401 36.5993C62.9926 36.5338 62.6776 36.3693 62.4416 36.13C62.0729 35.6435 61.8516 35.0783 61.7999 34.4907H61.9539C61.733 34.9717 61.4346 35.4207 61.0683 35.823C60.7176 36.2 60.2182 36.4389 59.6757 36.4892C59.4242 36.5084 59.1716 36.4664 58.9441 36.3676C58.738 36.2636 58.5688 36.1089 58.4564 35.9215C58.3483 35.7446 58.2972 35.544 58.3088 35.3422C58.3212 35.1563 58.4052 34.98 58.5462 34.844L58.6168 34.9078C58.1893 35.3423 57.6643 35.6898 57.0766 35.9273C56.8777 36.0084 56.7109 36.0547 56.6018 36.0895C56.5472 36.105 56.4914 36.1166 56.4349 36.1243L56.5953 36.0605C56.698 36.0258 56.8585 35.9678 57.0574 35.881C57.6249 35.6303 58.1311 35.2797 58.5462 34.8498L58.6168 34.9078C58.497 35.0413 58.427 35.2056 58.4166 35.3772C58.4062 35.5488 58.4561 35.719 58.5591 35.8636C58.6624 36.0301 58.8159 36.1667 59.0019 36.2575C59.2023 36.3415 59.4233 36.3775 59.6436 36.3618C60.1447 36.3059 60.6035 36.0802 60.9271 35.7303C61.2794 35.334 61.5649 34.8928 61.7742 34.4212L61.8833 34.2184L61.9282 34.4385C61.9843 35.0039 62.2058 35.5457 62.57 36.0084C62.78 36.2225 63.0616 36.3689 63.3722 36.4255C63.5271 36.4556 63.6881 36.4484 63.839 36.4047C63.9899 36.361 64.1255 36.2823 64.2321 36.1764C64.4824 35.8843 64.6459 35.5394 64.707 35.1742C64.793 34.8173 64.8509 34.4553 64.8802 34.091C64.9287 33.3946 64.9287 32.6961 64.8802 31.9997C64.8417 31.3336 64.8032 30.6963 64.8225 30.0997C64.8336 29.5438 64.9088 28.9905 65.0471 28.4487C65.2238 27.6635 65.6267 26.9342 66.2151 26.3343C66.4386 26.1143 66.7037 25.9319 66.998 25.7956Z" fill="#455A64"/>
<path d="M88.92 32.243L88.8622 32.2836L88.6825 32.3994C88.5857 32.4624 88.485 32.5205 88.3809 32.5732C88.2394 32.6458 88.0938 32.7115 87.9445 32.7702C86.9875 33.1526 85.9393 33.3119 84.8963 33.2336C83.3436 33.128 81.8585 32.6167 80.6222 31.7622C79.1294 30.7078 77.8912 29.389 76.9836 27.8868C76.4766 27.1048 76.0594 26.3053 75.6102 25.5697C75.1935 24.8499 74.6663 24.1869 74.0444 23.6001C73.4851 23.0655 72.7854 22.667 72.01 22.4415C71.6598 22.3509 71.2961 22.3098 70.9319 22.3199C70.5938 22.3336 70.2593 22.3882 69.9372 22.4821C69.3839 22.6486 68.8747 22.9169 68.442 23.2699C68.1179 23.5389 67.8447 23.8539 67.6334 24.2025C67.4606 24.5066 67.3333 24.8299 67.2547 25.1642C67.2547 25.1642 67.2547 25.1642 67.2547 25.0946C67.2547 25.0251 67.2547 24.9788 67.2868 24.8977C67.3487 24.647 67.4435 24.4039 67.5692 24.1736C67.7764 23.814 68.0498 23.4888 68.3778 23.212C68.815 22.8456 69.3334 22.5672 69.8987 22.3952C70.2311 22.2969 70.5763 22.2385 70.9255 22.2214C71.3046 22.2085 71.6836 22.2495 72.0486 22.343C72.8462 22.5648 73.5698 22.963 74.1535 23.5016C74.788 24.0963 75.326 24.7692 75.7514 25.5001C76.2135 26.2416 76.6242 27.041 77.1247 27.8173C78.0257 29.3018 79.2452 30.6093 80.7121 31.6637C81.9236 32.508 83.378 33.0207 84.9027 33.1409C85.9301 33.2246 86.9647 33.0836 87.9189 32.7296C88.2622 32.5842 88.5965 32.4217 88.92 32.243Z" fill="#455A64"/>
<path d="M89.6002 29.4509C89.6002 29.4509 89.5168 29.5146 89.3435 29.6073C89.1013 29.7388 88.8481 29.8531 88.5863 29.9491C88.1974 30.0927 87.796 30.2071 87.3862 30.2909C86.8811 30.3856 86.368 30.4418 85.8524 30.4588C85.3365 30.4624 84.8212 30.4256 84.3123 30.3488C83.8992 30.2797 83.4934 30.1789 83.0994 30.0476C82.8345 29.9628 82.5771 29.8601 82.3293 29.7405C82.2319 29.7022 82.1412 29.6514 82.0597 29.5899C82.0597 29.5899 82.464 29.7521 83.1379 29.9491C83.5323 30.0629 83.9356 30.15 84.3443 30.2098C84.8432 30.2799 85.3476 30.3128 85.8524 30.3082C86.357 30.2945 86.8594 30.2422 87.3541 30.1518C87.7574 30.0775 88.1542 29.9768 88.5413 29.8506C89.2023 29.6247 89.5874 29.4277 89.6002 29.4509Z" fill="#455A64"/>
<path d="M81.8736 230.359L81.9763 242.784C81.9763 242.784 95.9984 246.839 96.2679 249.157L69.5842 250.199L68.5446 230.845L81.8736 230.359Z" fill="#263238"/>
<path d="M73.6721 242.078C73.4183 242.159 73.2066 242.323 73.0776 242.536C72.9486 242.75 72.9112 242.999 72.9726 243.236C73.053 243.472 73.2319 243.671 73.4714 243.789C73.711 243.908 73.9924 243.938 74.2561 243.873C74.5243 243.788 74.748 243.615 74.8842 243.39C75.0204 243.164 75.0595 242.901 74.9941 242.651C74.8846 242.416 74.6778 242.229 74.4178 242.129C74.1577 242.03 73.8648 242.026 73.6016 242.118" fill="#E0E0E0"/>
<path d="M69.5843 250.217V248.264L95.177 247.992C95.177 247.992 96.3835 248.415 96.2872 249.151L69.5843 250.217Z" fill="#455A64"/>
<path d="M82.3999 242.663C82.3999 242.779 81.7581 242.86 81.1164 243.242C80.4746 243.624 80.1794 244.152 80.0575 244.111C79.9356 244.07 80.096 243.381 80.8597 242.906C81.6233 242.431 82.4255 242.553 82.3999 242.663Z" fill="white"/>
<path d="M85.2492 243.595C85.2877 243.711 84.7294 243.931 84.3123 244.447C83.8951 244.963 83.7924 245.49 83.6705 245.49C83.5486 245.49 83.4267 244.829 83.9657 244.198C84.5048 243.566 85.2428 243.485 85.2492 243.595Z" fill="white"/>
<path d="M86.9819 246.579C86.8664 246.608 86.661 246.028 86.9819 245.374C87.3028 244.719 87.8804 244.435 87.9445 244.528C88.0087 244.621 87.6429 244.986 87.399 245.53C87.1552 246.075 87.1167 246.538 86.9819 246.579Z" fill="white"/>
<path d="M82.0277 239.83C81.9827 239.94 81.3859 239.801 80.6415 239.876C79.8971 239.952 79.358 240.183 79.2682 240.085C79.1783 239.986 79.7302 239.546 80.5966 239.465C81.4629 239.384 82.0918 239.737 82.0277 239.83Z" fill="white"/>
<path d="M50.9352 233.018L49.4848 247.998L52.1288 260.163C52.1738 260.37 52.171 260.584 52.1207 260.79C52.0703 260.996 51.9736 261.191 51.8364 261.362C51.6991 261.533 51.5244 261.677 51.323 261.785C51.1216 261.892 50.8979 261.961 50.6657 261.988C50.3954 262.019 50.1209 261.991 49.8651 261.906C49.6094 261.821 49.3799 261.683 49.1961 261.501C46.8216 259.184 38.1132 250.495 38.2864 249.411C38.4854 248.149 38.6458 233.527 38.6458 233.527L50.9352 233.018Z" fill="#263238"/>
<path d="M50.6656 261.965L38.357 248.38L38.3121 249.012C38.2717 249.561 38.4491 250.105 38.8126 250.547C39.7881 251.705 42.5604 254.938 49.1511 261.478C49.3392 261.666 49.576 261.809 49.8404 261.894C50.1047 261.979 50.3883 262.003 50.6656 261.965Z" fill="#455A64"/>
<g opacity="0.6">
<path d="M42.1112 243.734C42.3062 243.882 42.4337 244.09 42.4692 244.318C42.5048 244.546 42.4458 244.777 42.3037 244.968C42.1484 245.149 41.9218 245.27 41.671 245.304C41.4201 245.339 41.1641 245.285 40.956 245.154C40.7507 244.997 40.6168 244.777 40.5801 244.536C40.5433 244.296 40.6064 244.051 40.7571 243.85C40.94 243.675 41.1915 243.572 41.4577 243.562C41.7239 243.553 41.9838 243.637 42.1818 243.798" fill="white"/>
</g>
<path d="M47.335 255.187C47.7713 254.741 48.2985 254.375 48.888 254.109C49.508 253.925 50.1618 253.85 50.8133 253.889C50.8133 253.849 50.6271 253.721 50.2421 253.652C49.7339 253.568 49.2096 253.62 48.734 253.802C48.2507 253.984 47.8392 254.293 47.5532 254.689C47.335 254.955 47.2901 255.175 47.335 255.187Z" fill="white"/>
<path d="M48.3746 257.267C48.8687 257.047 49.3765 256.853 49.8956 256.687C50.4388 256.63 50.9851 256.599 51.532 256.595C51.2864 256.435 51.0019 256.331 50.7026 256.292C50.4033 256.253 50.0979 256.279 49.8121 256.369C48.811 256.589 48.2912 257.22 48.3746 257.267Z" fill="white"/>
<path d="M45.3135 252.487C46.0479 252.1 46.8138 251.763 47.6045 251.479C48.4272 251.298 49.2638 251.172 50.1073 251.103C49.247 250.9 48.3404 250.922 47.4936 251.167C46.6469 251.412 45.8951 251.87 45.3263 252.487H45.3135Z" fill="white"/>
<path d="M45.3328 247.899C45.3713 247.992 46.3146 247.703 47.5083 247.731C48.7019 247.76 49.6324 248.073 49.6774 247.986C49.0563 247.566 48.2891 247.361 47.5147 247.407C46.7461 247.337 45.9744 247.511 45.3328 247.899Z" fill="white"/>
<path d="M45.6344 243.497C46.3714 243.324 47.132 243.246 47.8933 243.265C48.6446 243.383 49.3745 243.594 50.0624 243.891C50.0624 243.862 49.9212 243.659 49.5554 243.439C49.0654 243.158 48.5093 242.986 47.9318 242.935C47.3546 242.88 46.7713 242.952 46.2312 243.144C45.8205 243.294 45.6087 243.462 45.6344 243.497Z" fill="white"/>
<path d="M47.9254 242.425C47.9909 242.238 48.0127 242.041 47.9896 241.846C47.9701 241.321 47.8349 240.805 47.5917 240.328C47.4499 239.966 47.1791 239.656 46.8216 239.448C46.6964 239.389 46.554 239.366 46.4139 239.382C46.2738 239.399 46.1427 239.454 46.0387 239.54C45.8513 239.72 45.742 239.954 45.7306 240.201C45.7315 240.707 45.9282 241.197 46.2868 241.586C46.6453 241.975 47.1432 242.239 47.6944 242.333C48.2412 242.416 48.8033 242.351 49.3087 242.144C49.814 241.938 50.2396 241.6 50.5309 241.174C50.6051 241.067 50.6528 240.947 50.6705 240.822C50.6883 240.697 50.6756 240.57 50.6335 240.45C50.5755 240.334 50.4788 240.237 50.3569 240.172C50.235 240.108 50.094 240.079 49.9533 240.091C49.5376 240.146 49.1456 240.3 48.8174 240.537C48.3423 240.834 47.9312 241.207 47.6045 241.637C47.4694 241.786 47.3689 241.957 47.3093 242.141C47.7841 241.603 48.3416 241.129 48.965 240.734C49.2588 240.54 49.6 240.413 49.9597 240.363C50.0371 240.354 50.1157 240.368 50.183 240.404C50.2504 240.44 50.3027 240.495 50.3319 240.56C50.3537 240.64 50.3564 240.723 50.3398 240.804C50.3232 240.885 50.2877 240.962 50.2357 241.029C49.9716 241.389 49.5981 241.673 49.1599 241.847C48.7218 242.021 48.2374 242.077 47.7649 242.008C47.2996 241.928 46.878 241.709 46.569 241.384C46.2601 241.06 46.0822 240.651 46.0643 240.224C46.0688 240.05 46.1389 239.882 46.2633 239.749C46.3194 239.7 46.3914 239.668 46.4688 239.659C46.5461 239.65 46.6248 239.663 46.6932 239.697C46.9848 239.878 47.2086 240.134 47.335 240.432C47.6607 241.06 47.8606 241.735 47.9254 242.425Z" fill="white"/>
<path d="M95.9856 127.368C97.2686 132.515 97.7011 137.805 97.2691 143.066C96.9803 146.403 84.5112 238.7 84.5112 238.7H67.6783L72.4079 151.952L71.0346 152.225C71.0346 152.225 61.8384 189.229 61.0811 195.213C60.4394 200.595 52.1609 242.918 52.1609 242.918L36.2713 242.761L42.1818 188.135L47.9061 138.49L50.056 124.008L95.9856 127.368Z" fill="#263238"/>
<path d="M126.988 84.6858L110.63 91.9906L101.376 70.2326C100.534 68.3704 99.2021 66.7213 97.4959 65.4275C95.7898 64.1336 93.7605 63.234 91.5832 62.8061C91.0248 62.7009 90.4585 62.6331 89.889 62.6034L96.5054 97.3605C97.805 100.204 99.5325 102.873 101.639 105.291C103.019 106.791 105.766 108.367 111.843 106.646L131.391 94.8348L126.988 84.6858Z" fill="#263238"/>
<path d="M60.3431 58.3688L68.442 64.4455L72.5748 67.342L74.6669 67.0755L75.822 64.2254L77.3814 58.6701L79.5634 61.2711L85.4674 72.5845L92.0966 127.31C92.0966 127.31 80.5452 130.368 74.5514 130.733C68.5575 131.098 59.0276 129.627 59.0276 129.627V100.83L55.6328 72.3122L59.7335 61.3869L60.3431 58.3688Z" fill="#F5F5F5"/>
<path d="M77.4584 130.368C77.4504 130.318 77.4504 130.268 77.4584 130.218C77.4584 130.102 77.4584 129.957 77.4584 129.766C77.4584 129.355 77.4199 128.775 77.3878 128.028C77.3301 126.504 77.2531 124.332 77.1504 121.656C76.945 116.268 76.6177 108.83 76.1493 100.622C75.6808 92.4135 75.1482 84.9812 74.7374 79.6054L74.2497 73.2333C74.192 72.4918 74.147 71.9125 74.1214 71.4954C74.1214 71.3043 74.1214 71.1595 74.1214 71.0436C74.1214 70.9278 74.1214 70.893 74.1214 70.8872C74.1282 70.9392 74.1282 70.9917 74.1214 71.0436C74.1214 71.1537 74.1214 71.3043 74.1791 71.4897C74.2176 71.901 74.2754 72.4802 74.3524 73.2275C74.5 74.7279 74.6989 76.9002 74.9235 79.5997C75.3792 84.9696 75.9311 92.3961 76.3996 100.61C76.868 108.825 77.1697 116.251 77.3301 121.65C77.4135 124.344 77.4713 126.522 77.4905 128.022C77.4905 128.769 77.4905 129.349 77.4905 129.76V130.212C77.4649 130.316 77.4584 130.368 77.4584 130.368Z" fill="#263238"/>
<path d="M56.3322 63.9879L56.9098 63.7098L45.3584 69.1725L49.7223 96.144L52.1481 110.047L43.1123 143.02C43.1123 143.02 49.902 147.023 53.3032 146.235C55.1194 145.812 56.6724 142.516 57.8724 139.921C60.2743 134.744 61.8328 129.281 62.4994 123.701C63.1411 118.087 63.7829 110.956 63.3401 106.079C62.493 97.0014 61.1646 82.0268 61.0427 78.0877C60.9207 74.1486 59.8939 59.6375 59.8939 59.6375L56.3322 63.9879Z" fill="#263238"/>
<path d="M77.651 58.4094L84.3636 61.6939L90.2548 62.6034L98.1996 78.302L96.6851 106.687L104.617 141.728C104.617 141.728 98.8028 143.588 96.499 142.823C94.1951 142.058 91.0506 137.354 90.9286 134.51C90.8067 131.666 86.3273 104.115 86.3273 104.115L82.5154 71.7271C82.1549 68.6392 81.1993 65.6319 79.6917 62.8409L77.651 58.4094Z" fill="#263238"/>
<path d="M84.3636 62.6034C84.4401 62.6719 84.5109 62.7455 84.5754 62.8235L85.1786 63.4839L87.399 65.998L87.444 66.0501L87.3862 66.0907L85.4995 67.3825V67.2435L87.7135 67.8749H87.7777V67.9444C87.7392 71.4954 87.6878 75.9733 87.6301 80.8277C87.5338 86.7538 87.444 92.1122 87.3798 96.0166C87.3413 97.9456 87.3028 99.4923 87.2771 100.616C87.2771 101.143 87.2771 101.566 87.2386 101.867C87.2386 102.001 87.2386 102.105 87.2386 102.192C87.2386 102.279 87.2386 102.302 87.2386 102.302C87.2386 102.302 87.2386 102.267 87.2386 102.192C87.2386 102.116 87.2386 102.001 87.2386 101.867C87.2386 101.56 87.2386 101.143 87.2386 100.616C87.2386 99.5097 87.2386 97.9398 87.2386 96.0108C87.2835 92.1122 87.3413 86.7422 87.4119 80.8219C87.4889 75.9733 87.5595 71.4954 87.6108 67.9386L87.6814 68.0255L85.4802 67.3767L85.3134 67.3304L85.4545 67.2377L87.3798 65.9633V66.0617L85.2107 63.5129L84.6395 62.8293C84.5414 62.7604 84.4491 62.6849 84.3636 62.6034Z" fill="#455A64"/>
<path d="M62.8203 100.431C62.7994 100.398 62.7842 100.363 62.7753 100.327L62.6598 100.008L62.217 98.7798C61.832 97.7197 61.2544 96.1846 60.5164 94.2961L59.2971 91.2143C58.8153 90.0374 58.4019 88.8386 58.0585 87.6228C57.3133 84.8334 56.7328 82.0102 56.3194 79.1652C55.7226 75.2261 55.3311 71.5071 55.1001 68.3152V68.2688L55.1386 68.2341L57.0638 66.5773V66.7164L55.2541 65.4767L55.1899 65.4245L55.2413 65.3608L58.5013 61.3695L59.3934 60.2921L59.6372 60.0198C59.6626 59.9872 59.6905 59.9562 59.7206 59.9271C59.7206 59.9271 59.7206 59.9677 59.6565 60.0314L59.4383 60.321L58.5783 61.4275L55.3696 65.4825V65.3666L57.1858 66.5947L57.282 66.6584L57.1986 66.7279L55.2734 68.4021L55.3055 68.321C55.5622 71.5128 55.9472 75.2261 56.5889 79.1594C56.9977 82.0011 57.5675 84.8221 58.296 87.6112C58.6639 88.8895 59.0682 90.0828 59.5089 91.1912L60.7025 94.2846C61.4213 96.1788 61.986 97.7197 62.3261 98.7914C62.5058 99.3301 62.6406 99.7472 62.724 100.031C62.7625 100.164 62.7946 100.274 62.8139 100.355C62.8331 100.437 62.8203 100.431 62.8203 100.431Z" fill="#455A64"/>
<path d="M92.5202 120.202L93.9641 124.251L102.14 123.573L99.5922 119.698L92.5202 120.202Z" fill="#263238"/>
<path d="M92.5266 120.202C92.5266 120.202 92.687 120.202 93.0143 120.144L94.4454 120.016C95.684 119.912 97.468 119.762 99.5793 119.599H99.6435L99.682 119.657L102.249 123.521L102.345 123.672H102.153L101.729 123.706L93.9769 124.349H93.8999V124.286C93.4571 123.017 93.117 121.969 92.886 121.285C92.7833 120.955 92.6934 120.706 92.6228 120.48C92.5906 120.391 92.5649 120.3 92.5458 120.208C92.596 120.303 92.6389 120.402 92.6742 120.503L92.9886 121.32C93.2646 122.044 93.6304 123.058 94.086 124.216L93.9833 124.152L101.736 123.481L102.153 123.446L102.056 123.614L99.5216 119.738L99.6243 119.79C97.5578 119.929 95.7738 120.028 94.5545 120.097L93.0913 120.173C92.7255 120.202 92.5266 120.208 92.5266 120.202Z" fill="#455A64"/>
<g opacity="0.3">
<path d="M87.6557 67.956L89.0034 69.6359C89.0034 69.6359 88.6248 95.0897 87.1937 101.41L87.6557 67.956Z" fill="black"/>
</g>
<path d="M60.3431 63.704C60.4844 63.9034 60.655 64.0847 60.8501 64.2428C61.1967 64.573 61.7036 65.0422 62.339 65.6215C63.6224 66.78 65.3744 68.3383 67.351 70.053L68.6345 71.2116L68.8527 71.4028L68.9553 71.1479C69.5971 69.5374 70.2388 68.0776 70.7009 66.8727L70.4634 66.9191L72.132 68.2746C72.3241 68.4505 72.5397 68.6042 72.7737 68.7322C72.6209 68.5184 72.4375 68.3236 72.2282 68.153C71.8624 67.8112 71.3234 67.3188 70.6495 66.7163L70.4955 66.5773L70.4121 66.7627C69.8987 67.9618 69.2698 69.41 68.5767 71.0088L68.8976 70.9451L67.6141 69.7865C65.6375 68.0487 63.8342 66.531 62.5122 65.4303C61.8705 64.851 61.3186 64.4339 60.94 64.1385C60.7626 63.971 60.562 63.825 60.3431 63.704Z" fill="#263238"/>
<path d="M75.4819 68.1935C75.9504 67.4524 76.3497 66.6774 76.6755 65.8764L76.4124 65.9169C77.3709 67.0447 78.1606 68.2815 78.7612 69.5954C78.8703 69.8213 78.9601 70.0472 79.05 70.2616L79.2682 70.7945L79.435 70.25C79.8624 68.8308 80.0973 67.3699 80.1345 65.8996C80.1833 65.3023 80.1401 64.7019 80.0062 64.1154C79.9247 64.7036 79.8776 65.2953 79.865 65.888C79.747 67.3301 79.4718 68.7581 79.0436 70.1515H79.4286C79.3387 69.9314 79.2425 69.6997 79.1334 69.4679C78.5207 68.1224 77.6855 66.8684 76.6563 65.7489L76.483 65.5636L76.3867 65.7837C76.0138 66.5637 75.7112 67.3696 75.4819 68.1935Z" fill="#263238"/>
<path d="M76.9386 69.6649L75.3407 71.7909H72.9406L71.6571 69.6649L72.8828 67.3304L74.9749 67.0639L76.9386 69.6649Z" fill="#BA68C8"/>
<path d="M75.4305 70.7076L82.6694 120.045L76.483 127.617L70.2902 119.588L73.0304 70.7076H75.4305Z" fill="#BA68C8"/>
<path d="M89.5232 124.349C89.5141 124.714 89.5398 125.078 89.6002 125.438C89.6965 126.203 89.8184 127.176 89.966 128.387C90.1136 129.598 90.3382 131.133 90.5628 132.761C90.8453 134.553 91.3335 136.314 92.0196 138.015C92.7704 139.793 93.7459 141.543 95.408 142.469C96.1929 142.862 97.0779 143.061 97.975 143.049C98.7408 143.054 99.5055 142.996 100.26 142.875C101.348 142.712 102.421 142.474 103.468 142.162C103.86 142.067 104.239 141.933 104.598 141.763C104.201 141.83 103.808 141.919 103.423 142.029C102.367 142.278 101.296 142.471 100.215 142.609C99.4757 142.709 98.7285 142.752 97.9814 142.736C97.1404 142.746 96.311 142.559 95.5749 142.191C94.0668 141.34 93.0977 139.643 92.3661 137.893C90.8709 134.331 90.6719 130.832 90.2163 128.364C90.0174 127.171 89.8505 126.186 89.7222 125.427C89.6887 125.063 89.6222 124.703 89.5232 124.349Z" fill="#455A64"/>
<path d="M62.9294 125.798C62.9273 125.908 62.9078 126.017 62.8716 126.122L62.6213 127.049C62.4031 127.848 62.0566 129.001 61.6074 130.42C60.463 134.123 59.0765 137.762 57.4553 141.317C56.9797 142.332 56.4331 143.319 55.8189 144.271C55.5244 144.73 55.1828 145.162 54.7985 145.563L54.4969 145.841C54.3813 145.928 54.2594 146.003 54.1439 146.084C54.0167 146.159 53.8812 146.221 53.7396 146.27C53.6048 146.31 53.4637 146.322 53.3289 146.351C52.2925 146.489 51.2351 146.424 50.2293 146.16C49.3513 145.953 48.493 145.684 47.6623 145.354C46.4777 144.888 45.3305 144.348 44.229 143.738C43.8375 143.524 43.5359 143.344 43.3434 143.223C43.2365 143.166 43.1374 143.098 43.0482 143.02C43.1639 143.057 43.2739 143.108 43.3754 143.17L44.2931 143.634C45.4137 144.201 46.5685 144.712 47.7521 145.163C48.5695 145.469 49.4102 145.72 50.2678 145.916C51.2321 146.16 52.2428 146.215 53.2326 146.078C53.7474 146.002 54.2083 145.746 54.5161 145.366C54.8853 144.977 55.2139 144.558 55.498 144.115C56.0993 143.18 56.6351 142.213 57.1023 141.218C58.7177 137.673 60.1314 134.055 61.3378 130.38C61.7999 129.001 62.1785 127.872 62.4545 127.037C62.5785 126.674 62.6812 126.373 62.7625 126.134C62.8042 126.016 62.8602 125.904 62.9294 125.798Z" fill="#455A64"/>
<path d="M50.2357 67.0002C50.2357 67.0002 40.3079 69.0103 39.0437 76.7148C37.5869 85.5837 36.3098 105.882 36.3098 105.882L53.3289 85.3114" fill="#263238"/>
<path d="M47.0719 68.767C47.0719 68.767 47.5083 69.1203 48.1628 69.7286C49.8747 71.3216 51.0613 73.3134 51.5897 75.4809C51.7887 76.3093 51.8336 76.8364 51.8721 76.8364C51.8949 76.7117 51.8949 76.5846 51.8721 76.4599C51.8535 76.1215 51.8085 75.7846 51.7373 75.4519C51.2868 73.2314 50.0745 71.1949 48.2719 69.6301C48.0017 69.3931 47.7144 69.1725 47.412 68.9697C47.3089 68.889 47.1946 68.8208 47.0719 68.767Z" fill="#263238"/>
<path d="M97.8787 73.2738C97.7696 73.2738 97.4231 80.4396 97.115 89.2853C96.807 98.1309 96.6402 105.303 96.7557 105.303C96.8712 105.303 97.2049 98.1425 97.5193 89.2968C97.8338 80.4512 97.9878 73.2796 97.8787 73.2738Z" fill="#455A64"/>
<path d="M45.3777 69.1725C45.3777 69.1725 40.7571 71.9878 40.2437 74.2644C39.8074 76.1065 36.1558 103.808 35.6874 107.249C35.2189 110.69 33.4028 117.861 38.0618 120.717C41.1935 122.635 51.0892 124.558 51.0892 124.558C50.1138 120.439 52.1096 117.427 56.9804 115.145L50.364 109.508L53.3289 85.3114L45.3777 69.1725Z" fill="#263238"/>
<path d="M52.1673 110.035C52.0518 110.035 50.4346 102.505 48.5543 93.1839C46.674 83.8632 45.2365 76.2687 45.3456 76.2687C45.4547 76.2687 47.0783 83.7994 48.965 93.1202C50.8518 102.441 52.2764 110.012 52.1673 110.035Z" fill="#455A64"/>
<path d="M50.8903 104.486C50.9231 104.965 50.908 105.446 50.8453 105.922C50.7812 106.82 50.6657 108.077 50.5245 109.526L50.4796 109.404L51.763 110.481C53.2326 111.738 54.5482 112.891 55.4916 113.737C56.0247 114.17 56.5183 114.64 56.9676 115.145C56.3866 114.765 55.8395 114.344 55.3311 113.888C54.3428 113.088 53.0016 111.959 51.532 110.702L50.2485 109.618L50.1908 109.566V109.497C50.3512 108.054 50.4988 106.797 50.6207 105.905C50.6619 105.425 50.7521 104.95 50.8903 104.486Z" fill="#455A64"/>
<path d="M43.7541 113.082C44.432 112.065 45.4155 111.241 46.5906 110.707C47.7101 110.084 49.0042 109.765 50.3191 109.786C49.0859 110.052 47.8892 110.441 46.751 110.945C45.6689 111.557 44.664 112.274 43.7541 113.082Z" fill="#455A64"/>
<path d="M66.2472 89.3142C66.2121 89.8476 66.0605 90.3695 65.8012 90.8498C65.542 91.3301 65.1801 91.7595 64.7364 92.1131C64.2927 92.4668 63.7759 92.7378 63.2158 92.9107C62.6557 93.0835 62.0633 93.1547 61.4726 93.1201C60.8548 93.0913 60.2504 92.9466 59.6979 92.6953C59.1455 92.444 58.6571 92.0915 58.2639 91.6603C57.0253 90.2816 54.7857 88.3121 52.0005 88.1846C47.688 87.9413 44.46 90.8899 44.152 95.3041C43.8439 99.7182 46.6483 103.003 50.9673 103.246C53.7524 103.402 56.2424 101.699 57.6607 100.471C58.106 100.089 58.6342 99.7951 59.2118 99.6066C59.7895 99.4182 60.4041 99.3398 61.017 99.3764C61.6079 99.4081 62.186 99.5449 62.7181 99.779C63.2502 100.013 63.7259 100.34 64.1177 100.74C64.5095 101.141 64.8097 101.607 65.0012 102.113C65.1926 102.618 65.2715 103.153 65.2332 103.686L63.308 131.226L131.198 133.832L132.668 104.868C132.703 104.335 132.854 103.813 133.114 103.333C133.373 102.852 133.735 102.423 134.178 102.069C134.622 101.715 135.139 101.444 135.699 101.272C136.259 101.099 136.852 101.028 137.442 101.062C138.06 101.091 138.664 101.236 139.217 101.487C139.769 101.738 140.258 102.091 140.651 102.522C141.89 103.901 144.129 105.87 146.914 106.027C151.227 106.27 154.461 103.321 154.763 98.9072C155.065 94.4931 152.266 91.2085 147.954 90.9652C145.169 90.8088 142.672 92.5119 141.254 93.74C140.809 94.1224 140.281 94.4172 139.703 94.6056C139.126 94.7941 138.511 94.8722 137.898 94.8348C135.414 94.6958 133.104 92.9985 133.258 90.7798L134.413 66.1949L67.1841 63.6113L66.2472 89.3142Z" fill="#BA68C8"/>
<path d="M57.9687 117.149C57.9687 117.149 59.9709 115.747 61.4598 115.689C62.9486 115.631 64.8867 116.158 65.2717 115.985C65.6568 115.811 66.5552 115.04 67.1456 115.683C67.736 116.326 68.4291 118.667 65.3359 119.31H63.2053C63.3144 120.234 63.5761 121.138 63.9818 121.992C64.4952 122.751 71.7341 130.976 71.7341 130.976C71.7341 130.976 72.6389 131.793 72.1897 132.61C71.7405 133.427 69.796 132.958 69.796 132.958C69.4055 133.269 68.9338 133.485 68.4253 133.586C67.9168 133.687 67.3882 133.671 66.8889 133.537C66.1198 133.304 65.3833 132.991 64.6941 132.604C64.1933 132.951 63.5798 133.139 62.9486 133.139C62.3175 133.139 61.7039 132.951 61.2031 132.604C59.3934 131.382 52.1737 123.336 52.1737 123.336L55.5108 116.9L57.9687 117.149Z" fill="#FFBF9D"/>
<path d="M55.9472 115.66L58.0008 117.137C54.9525 119.142 53.3674 121.598 53.3866 124.546L50.7619 122.907C50.7619 122.907 50.287 116.859 55.9472 115.66Z" fill="#F5F5F5"/>
<path d="M64.2064 127.617C64.2898 127.559 65.3744 128.868 66.921 130.299C68.4676 131.73 69.9179 132.72 69.8473 132.801C69.4842 132.653 69.147 132.458 68.8462 132.222C68.0796 131.703 67.3567 131.134 66.6836 130.519C66.0148 129.9 65.3971 129.238 64.8353 128.538C64.5737 128.262 64.3615 127.951 64.2064 127.617Z" fill="#BA68C8"/>
<path d="M60.6191 129.25C60.7025 129.186 61.5047 130.061 62.6919 130.924C63.4735 131.398 64.163 131.985 64.7327 132.662C63.9424 132.211 63.1915 131.705 62.4866 131.15C61.7176 130.648 61.0801 129.999 60.6191 129.25Z" fill="#BA68C8"/>
<path d="M130.717 78.7191C130.717 78.7191 131.038 76.738 135.652 77.41C138.546 77.8328 137.031 79.5244 137.031 79.5244C137.248 79.693 137.415 79.9065 137.52 80.1465C137.625 80.3865 137.663 80.6458 137.632 80.9022C137.601 81.1586 137.502 81.4044 137.342 81.6185C137.183 81.8326 136.968 82.0085 136.717 82.1311L137.019 82.3339C137.019 82.3339 139.323 83.3766 137.333 85.2303C137.535 85.5605 137.618 85.9391 137.571 86.3138C137.523 86.6884 137.349 87.0406 137.07 87.3215C136.082 88.2194 133.598 87.0261 133.598 87.0261C133.598 87.0261 130.088 86.974 129.889 86.134C129.827 85.879 129.863 85.6128 129.99 85.3783C130.117 85.1438 130.328 84.9549 130.588 84.8422C131.396 84.7069 132.213 84.6179 133.033 84.5757C133.033 84.5757 129.966 84.5468 129.69 83.9964C129.196 83.029 129.324 82.0385 133.033 82.1659C133.033 82.1659 130.274 82.1138 129.959 81.5866C129.645 81.0595 130.03 80.26 131.025 79.8488C131.611 79.5957 132.256 79.4744 132.905 79.4954C132.905 79.4954 130.325 79.9704 130.717 78.7191Z" fill="#FFBF9D"/>
<path d="M136.89 79.5359C136.062 79.6242 135.227 79.6514 134.394 79.617C133.563 79.672 132.729 79.672 131.898 79.617C132.697 79.3679 133.542 79.2578 134.387 79.2926C135.231 79.2334 136.08 79.3159 136.89 79.5359Z" fill="#BA68C8"/>
<path d="M136.768 82.2296C135.985 82.2865 135.197 82.2865 134.413 82.2296C133.628 82.2708 132.84 82.2553 132.058 82.1832C132.819 81.9586 133.621 81.8719 134.42 81.9284C135.217 81.883 136.016 81.9855 136.768 82.2296Z" fill="#BA68C8"/>
<path d="M137.391 85.3694C137.352 85.4505 136.306 85.0392 134.939 84.8422C133.572 84.6452 132.443 84.7206 132.43 84.6279C133.263 84.3986 134.148 84.3687 134.997 84.541C135.862 84.6206 136.688 84.9065 137.391 85.3694Z" fill="#BA68C8"/>
</svg>
