<svg width="393" height="320" viewBox="0 0 393 320" fill="none" xmlns="http://www.w3.org/2000/svg">
<path d="M392.138 281.535H0V281.744H392.138V281.535Z" fill="#E0E0E0"/>
<path d="M297.499 289.264H270.52V289.473H297.499V289.264Z" fill="#E0E0E0"/>
<path d="M329.239 288.668H314.055V288.878H329.239V288.668Z" fill="#E0E0E0"/>
<path d="M193.983 289.163H173.842V289.373H193.983V289.163Z" fill="#E0E0E0"/>
<path d="M208.531 292.139H194.775V292.348H208.531V292.139Z" fill="#E0E0E0"/>
<path d="M113.461 287.042H71.9024V287.252H113.461V287.042Z" fill="#E0E0E0"/>
<path d="M185.873 244.148H34.4375C33.2512 244.145 32.1142 243.64 31.276 242.743C30.4379 241.845 29.9672 240.629 29.9672 239.361V11.828C29.9775 10.5673 30.4528 9.36179 31.2898 8.47342C32.1268 7.58505 33.258 7.08553 34.4375 7.08337H185.873C187.061 7.08337 188.2 7.58767 189.04 8.48532C189.88 9.38298 190.352 10.6005 190.352 11.8699V239.361C190.352 240.631 189.88 241.848 189.04 242.746C188.2 243.643 187.061 244.148 185.873 244.148ZM34.4375 7.25103C33.3032 7.25325 32.216 7.73645 31.4147 8.59456C30.6133 9.45267 30.1632 10.6156 30.1632 11.828V239.361C30.1632 240.574 30.6133 241.736 31.4147 242.595C32.216 243.453 33.3032 243.936 34.4375 243.938H185.873C187.008 243.936 188.096 243.453 188.899 242.595C189.702 241.737 190.153 240.574 190.155 239.361V11.828C190.153 10.6148 189.702 9.45192 188.899 8.59404C188.096 7.73617 187.008 7.25325 185.873 7.25103H34.4375Z" fill="#E0E0E0"/>
<path d="M355.52 244.148H204.076C202.889 244.145 201.751 243.64 200.912 242.743C200.073 241.846 199.6 240.63 199.598 239.361V11.828C199.61 10.5665 200.088 9.36103 200.926 8.47289C201.764 7.58475 202.896 7.08551 204.076 7.08337H355.52C356.698 7.08774 357.827 7.58822 358.663 8.47636C359.498 9.36449 359.972 10.5687 359.982 11.828V239.361C359.982 240.628 359.513 241.843 358.676 242.74C357.84 243.637 356.705 244.143 355.52 244.148ZM204.076 7.25103C202.941 7.25325 201.853 7.73617 201.051 8.59404C200.248 9.45192 199.796 10.6148 199.794 11.828V239.361C199.796 240.574 200.248 241.737 201.051 242.595C201.853 243.453 202.941 243.936 204.076 243.938H355.52C356.655 243.936 357.743 243.453 358.546 242.595C359.348 241.737 359.8 240.574 359.802 239.361V11.828C359.8 10.6148 359.348 9.45192 358.546 8.59404C357.743 7.73617 356.655 7.25325 355.52 7.25103H204.076Z" fill="#E0E0E0"/>
<path d="M340.399 27.4283H222.209V136.035H340.399V27.4283Z" fill="#E0E0E0"/>
<path d="M343.026 27.4283H224.836V136.035H343.026V27.4283Z" fill="#F0F0F0"/>
<path d="M338.313 130.939V32.525L229.55 32.525V130.939H338.313Z" fill="#FAFAFA"/>
<path d="M303.554 130.939V32.525H296.448V130.939H303.554Z" fill="#E0E0E0"/>
<path d="M266.175 130.939V32.525H259.07V130.939H266.175Z" fill="#E0E0E0"/>
<path d="M306.056 134.166V28.7277H298.95V134.166H306.056Z" fill="#F0F0F0"/>
<path d="M268.669 134.174V28.7361H261.564V134.174H268.669Z" fill="#F0F0F0"/>
<path d="M338.313 130.93V32.5166H336.329V130.93H338.313Z" fill="#E0E0E0"/>
<path d="M139.083 113.201C139.083 113.201 124.7 86.7196 144.66 65.6034C144.66 65.6034 149.867 69.2331 149.789 74.1119C149.71 78.9907 144.205 80.2229 145.389 84.2969C146.573 88.371 151.757 92.3528 148.354 95.7226C144.95 99.0925 148.903 102.077 148.675 106.201C148.448 110.325 139.083 113.201 139.083 113.201Z" fill="#E0E0E0"/>
<path d="M141.342 117.535C141.342 117.535 147.177 87.541 122.018 74.246C122.018 74.246 118.143 79.4433 119.665 84.0454C121.186 88.6475 126.762 87.9602 126.841 92.227C126.919 96.4938 123.178 102.026 127.398 104.072C131.617 106.117 128.755 110.292 130.19 114.131C131.625 117.97 141.342 117.535 141.342 117.535Z" fill="#E6E6E6"/>
<path d="M128.535 109.915C128.535 109.915 128.786 135.809 138.472 135.809C148.157 135.809 148.401 109.915 148.401 109.915H128.535Z" fill="#F0F0F0"/>
<path d="M70.3417 126.068C70.3417 126.068 70.8828 135.809 91.5642 135.809C112.246 135.809 112.795 126.068 112.795 126.068H70.3417Z" fill="#E6E6E6"/>
<path d="M288.378 184.798H277.461C276.101 184.798 274.998 185.976 274.998 187.43V206.727C274.998 208.181 276.101 209.359 277.461 209.359H288.378C289.738 209.359 290.841 208.181 290.841 206.727V187.43C290.841 185.976 289.738 184.798 288.378 184.798Z" fill="#F0F0F0"/>
<path d="M317.334 192.828H309.985C309.071 192.828 308.33 193.62 308.33 194.597V207.59C308.33 208.567 309.071 209.359 309.985 209.359H317.334C318.247 209.359 318.988 208.567 318.988 207.59V194.597C318.988 193.62 318.247 192.828 317.334 192.828Z" fill="#E6E6E6"/>
<path d="M318.432 191.227H308.887C308.579 191.227 308.33 191.494 308.33 191.822V192.493C308.33 192.822 308.579 193.088 308.887 193.088H318.432C318.739 193.088 318.988 192.822 318.988 192.493V191.822C318.988 191.494 318.739 191.227 318.432 191.227Z" fill="#F0F0F0"/>
<path d="M249.729 195.695C249.729 195.695 250.121 209.359 265.093 209.359C280.065 209.359 280.465 195.695 280.465 195.695H249.729Z" fill="#E6E6E6"/>
<path d="M212.492 177.647H235.149V172.869H212.492V177.647Z" fill="#E0E0E0"/>
<path d="M347.795 172.877H235.149V177.656H347.795V172.877Z" fill="#F0F0F0"/>
<path d="M212.492 214.137H235.149V209.359H212.492V214.137Z" fill="#E0E0E0"/>
<path d="M347.795 209.359H235.149V214.137H347.795V209.359Z" fill="#F0F0F0"/>
<path d="M220.656 177.647H216.476V281.526H220.656V177.647Z" fill="#E0E0E0"/>
<path d="M239.329 177.647H235.149V281.526H239.329V177.647Z" fill="#F0F0F0"/>
<path d="M333.301 177.647H329.121V281.526H333.301V177.647Z" fill="#E0E0E0"/>
<path d="M347.795 177.647H343.615V281.526H347.795V177.647Z" fill="#F0F0F0"/>
<path d="M70.3417 141.886H48.9153V275.248H70.3417V141.886Z" fill="#E6E6E6"/>
<path d="M158.69 275.239H53.0327V281.535H158.69V275.239Z" fill="#E6E6E6"/>
<path d="M70.3417 275.239H162.8L162.8 141.878H70.3417L70.3417 275.239Z" fill="#F0F0F0"/>
<path d="M78.7648 224.851H154.377V192.275H78.7648V224.851Z" fill="#E6E6E6"/>
<path d="M78.7648 263.361H154.377V230.786H78.7648V263.361Z" fill="#E6E6E6"/>
<path d="M125.061 195.846H108.081C107.528 195.844 106.999 195.608 106.608 195.191C106.217 194.773 105.997 194.207 105.995 193.616C105.995 193.024 106.214 192.456 106.605 192.037C106.996 191.617 107.527 191.38 108.081 191.378H125.061C125.615 191.38 126.145 191.617 126.536 192.037C126.927 192.456 127.147 193.024 127.147 193.616C127.145 194.207 126.924 194.773 126.533 195.191C126.143 195.608 125.613 195.844 125.061 195.846Z" fill="#F0F0F0"/>
<path d="M78.7648 186.332H154.377V153.756H78.7648V186.332Z" fill="#E6E6E6"/>
<path d="M125.061 157.336H108.081C107.527 157.334 106.996 157.097 106.605 156.677C106.214 156.258 105.995 155.69 105.995 155.098C105.997 154.507 106.217 153.941 106.608 153.523C106.999 153.106 107.528 152.87 108.081 152.868H125.061C125.613 152.87 126.143 153.106 126.533 153.523C126.924 153.941 127.145 154.507 127.147 155.098C127.147 155.69 126.927 156.258 126.536 156.677C126.145 157.097 125.615 157.334 125.061 157.336Z" fill="#F0F0F0"/>
<path d="M125.061 234.357H108.081C107.528 234.354 106.999 234.119 106.608 233.701C106.217 233.283 105.997 232.718 105.995 232.127C105.995 231.535 106.214 230.967 106.605 230.547C106.996 230.128 107.527 229.891 108.081 229.889H125.061C125.615 229.891 126.145 230.128 126.536 230.547C126.927 230.967 127.147 231.535 127.147 232.127C127.145 232.718 126.924 233.283 126.533 233.701C126.143 234.119 125.613 234.354 125.061 234.357Z" fill="#F0F0F0"/>
<path d="M165.655 135.809H70.3417V141.886H165.655V135.809Z" fill="#E6E6E6"/>
<path d="M45.9193 141.878H70.3417V135.801H45.9193V141.878Z" fill="#E0E0E0"/>
<path d="M94.2228 32.525H59.5579V73.2149H94.2228V32.525Z" fill="#E6E6E6"/>
<path d="M97.9795 32.525H62.1695V73.2149H97.9795V32.525Z" fill="#F0F0F0"/>
<path d="M94.9758 70.0044V35.7273H65.1655V70.0044H94.9758Z" fill="#FAFAFA"/>
<path d="M87.7526 61.697V44.0345H72.3965V61.697H87.7526Z" fill="#F0F0F0"/>
<path d="M130.77 20.5126H104.481V50.6989H130.77V20.5126Z" fill="#E6E6E6"/>
<path d="M133.562 20.5126H106.999V50.6989H133.562V20.5126Z" fill="#F0F0F0"/>
<path d="M131.335 48.3181V22.8932H109.226V48.3181H131.335Z" fill="#FAFAFA"/>
<path d="M120.276 29.1719L114.23 40.3712H126.323L120.276 29.1719Z" fill="#F0F0F0"/>
<path d="M196.069 319.391C280.051 319.391 348.132 315.143 348.132 309.902C348.132 304.661 280.051 300.413 196.069 300.413C112.087 300.413 44.0057 304.661 44.0057 309.902C44.0057 315.143 112.087 319.391 196.069 319.391Z" fill="#F5F5F5"/>
<path d="M329.239 83.2156H252.301C248.243 83.2156 244.953 86.7322 244.953 91.0702V113.435C244.953 117.773 248.243 121.29 252.301 121.29H329.239C333.297 121.29 336.588 117.773 336.588 113.435V91.0702C336.588 86.7322 333.297 83.2156 329.239 83.2156Z" fill="#7A0B84"/>
<path d="M313.977 89.6368H253.878C253.167 89.6368 252.592 90.2523 252.592 91.0116V92.5205C252.592 93.2798 253.167 93.8953 253.878 93.8953H313.977C314.687 93.8953 315.263 93.2798 315.263 92.5205V91.0116C315.263 90.2523 314.687 89.6368 313.977 89.6368Z" fill="#7A0B84"/>
<path d="M294.942 99.8973H253.878C253.167 99.8973 252.592 100.513 252.592 101.272V102.781C252.592 103.54 253.167 104.156 253.878 104.156H294.942C295.653 104.156 296.229 103.54 296.229 102.781V101.272C296.229 100.513 295.653 99.8973 294.942 99.8973Z" fill="#7A0B84"/>
<path d="M283.931 110.158H253.878C253.167 110.158 252.592 110.773 252.592 111.533V113.041C252.592 113.801 253.167 114.416 253.878 114.416H283.931C284.642 114.416 285.217 113.801 285.217 113.041V111.533C285.217 110.773 284.642 110.158 283.931 110.158Z" fill="#7A0B84"/>
<path d="M321.176 110.158H291.123C290.413 110.158 289.837 110.773 289.837 111.533V113.041C289.837 113.801 290.413 114.416 291.123 114.416H321.176C321.887 114.416 322.463 113.801 322.463 113.041V111.533C322.463 110.773 321.887 110.158 321.176 110.158Z" fill="#7A0B84"/>
<g opacity="0.5">
<path d="M313.977 89.6368H253.878C253.167 89.6368 252.592 90.2523 252.592 91.0116V92.5205C252.592 93.2798 253.167 93.8953 253.878 93.8953H313.977C314.687 93.8953 315.263 93.2798 315.263 92.5205V91.0116C315.263 90.2523 314.687 89.6368 313.977 89.6368Z" fill="white"/>
<path d="M294.942 99.8973H253.878C253.167 99.8973 252.592 100.513 252.592 101.272V102.781C252.592 103.54 253.167 104.156 253.878 104.156H294.942C295.653 104.156 296.229 103.54 296.229 102.781V101.272C296.229 100.513 295.653 99.8973 294.942 99.8973Z" fill="white"/>
<path d="M283.931 110.158H253.878C253.167 110.158 252.592 110.773 252.592 111.533V113.041C252.592 113.801 253.167 114.416 253.878 114.416H283.931C284.642 114.416 285.217 113.801 285.217 113.041V111.533C285.217 110.773 284.642 110.158 283.931 110.158Z" fill="white"/>
<path d="M321.176 110.158H291.123C290.413 110.158 289.837 110.773 289.837 111.533V113.041C289.837 113.801 290.413 114.416 291.123 114.416H321.176C321.887 114.416 322.463 113.801 322.463 113.041V111.533C322.463 110.773 321.887 110.158 321.176 110.158Z" fill="white"/>
</g>
<path d="M267.61 74.3383H180.281C174.33 74.3383 169.505 79.495 169.505 85.8562V118.649C169.505 125.011 174.33 130.167 180.281 130.167H267.61C273.562 130.167 278.386 125.011 278.386 118.649V85.8562C278.386 79.495 273.562 74.3383 267.61 74.3383Z" fill="#7A0B84"/>
<path d="M270.701 83.7521H182.595C181.551 83.7521 180.705 84.6566 180.705 85.7723V87.977C180.705 89.0927 181.551 89.9972 182.595 89.9972H270.701C271.744 89.9972 272.591 89.0927 272.591 87.977V85.7723C272.591 84.6566 271.744 83.7521 270.701 83.7521Z" fill="#7A0B84"/>
<path d="M242.788 98.7992H182.595C181.551 98.7992 180.705 99.7037 180.705 100.819V103.024C180.705 104.14 181.551 105.044 182.595 105.044H242.788C243.832 105.044 244.678 104.14 244.678 103.024V100.819C244.678 99.7037 243.832 98.7992 242.788 98.7992Z" fill="#7A0B84"/>
<path d="M226.648 113.846H182.595C181.551 113.846 180.705 114.751 180.705 115.866V118.071C180.705 119.187 181.551 120.091 182.595 120.091H226.648C227.692 120.091 228.538 119.187 228.538 118.071V115.866C228.538 114.751 227.692 113.846 226.648 113.846Z" fill="#7A0B84"/>
<path d="M273.908 113.846H237.204C236.16 113.846 235.314 114.751 235.314 115.866V118.071C235.314 119.187 236.16 120.091 237.204 120.091H273.908C274.952 120.091 275.798 119.187 275.798 118.071V115.866C275.798 114.751 274.952 113.846 273.908 113.846Z" fill="#7A0B84"/>
<g opacity="0.5">
<path d="M270.701 83.7521H182.595C181.551 83.7521 180.705 84.6566 180.705 85.7723V87.977C180.705 89.0927 181.551 89.9972 182.595 89.9972H270.701C271.744 89.9972 272.591 89.0927 272.591 87.977V85.7723C272.591 84.6566 271.744 83.7521 270.701 83.7521Z" fill="white"/>
<path d="M242.788 98.7991H182.595C181.551 98.7991 180.705 99.7036 180.705 100.819V103.024C180.705 104.14 181.551 105.044 182.595 105.044H242.788C243.832 105.044 244.678 104.14 244.678 103.024V100.819C244.678 99.7036 243.832 98.7991 242.788 98.7991Z" fill="white"/>
<path d="M226.648 113.846H182.595C181.551 113.846 180.705 114.751 180.705 115.866V118.071C180.705 119.187 181.551 120.091 182.595 120.091H226.648C227.692 120.091 228.538 119.187 228.538 118.071V115.866C228.538 114.751 227.692 113.846 226.648 113.846Z" fill="white"/>
<path d="M273.908 113.846H237.204C236.16 113.846 235.314 114.751 235.314 115.866V118.071C235.314 119.187 236.16 120.091 237.204 120.091H273.908C274.952 120.091 275.798 119.187 275.798 118.071V115.866C275.798 114.751 274.952 113.846 273.908 113.846Z" fill="white"/>
</g>
<path d="M213.315 140.285H171.254C168.474 140.285 166.219 142.695 166.219 145.667V213.014C166.219 215.986 168.474 218.396 171.254 218.396H213.315C216.096 218.396 218.35 215.986 218.35 213.014V145.667C218.35 142.695 216.096 140.285 213.315 140.285Z" fill="#7A0B84"/>
<path opacity="0.4" d="M213.315 140.285H171.254C168.474 140.285 166.219 142.695 166.219 145.667V213.014C166.219 215.986 168.474 218.396 171.254 218.396H213.315C216.096 218.396 218.35 215.986 218.35 213.014V145.667C218.35 142.695 216.096 140.285 213.315 140.285Z" fill="black"/>
<path d="M211.386 148.433H173.176C172.665 148.433 172.25 148.876 172.25 149.423V150.906C172.25 151.453 172.665 151.896 173.176 151.896H211.386C211.897 151.896 212.311 151.453 212.311 150.906V149.423C212.311 148.876 211.897 148.433 211.386 148.433Z" fill="#FAFAFA"/>
<path d="M199.222 156.766H173.176C172.665 156.766 172.25 157.209 172.25 157.755V159.239C172.25 159.785 172.665 160.228 173.176 160.228H199.222C199.733 160.228 200.147 159.785 200.147 159.239V157.755C200.147 157.209 199.733 156.766 199.222 156.766Z" fill="#FAFAFA"/>
<path d="M211.386 165.107H173.176C172.665 165.107 172.25 165.55 172.25 166.096V167.58C172.25 168.126 172.665 168.569 173.176 168.569H211.386C211.897 168.569 212.311 168.126 212.311 167.58V166.096C212.311 165.55 211.897 165.107 211.386 165.107Z" fill="#FAFAFA"/>
<path d="M187.379 173.439H173.176C172.665 173.439 172.25 173.882 172.25 174.428V175.912C172.25 176.458 172.665 176.901 173.176 176.901H187.379C187.89 176.901 188.305 176.458 188.305 175.912V174.428C188.305 173.882 187.89 173.439 187.379 173.439Z" fill="#FAFAFA"/>
<path d="M207.253 173.439H193.049C192.538 173.439 192.124 173.882 192.124 174.428V175.912C192.124 176.458 192.538 176.901 193.049 176.901H207.253C207.764 176.901 208.178 176.458 208.178 175.912V174.428C208.178 173.882 207.764 173.439 207.253 173.439Z" fill="#FAFAFA"/>
<path d="M211.386 181.78H173.176C172.665 181.78 172.25 182.223 172.25 182.769V184.253C172.25 184.799 172.665 185.242 173.176 185.242H211.386C211.897 185.242 212.311 184.799 212.311 184.253V182.769C212.311 182.223 211.897 181.78 211.386 181.78Z" fill="#FAFAFA"/>
<path d="M211.386 190.113H173.176C172.665 190.113 172.25 190.555 172.25 191.102V192.585C172.25 193.132 172.665 193.575 173.176 193.575H211.386C211.897 193.575 212.311 193.132 212.311 192.585V191.102C212.311 190.555 211.897 190.113 211.386 190.113Z" fill="#FAFAFA"/>
<path d="M204.61 198.453H173.176C172.665 198.453 172.25 198.896 172.25 199.443V200.926C172.25 201.473 172.665 201.915 173.176 201.915H204.61C205.121 201.915 205.535 201.473 205.535 200.926V199.443C205.535 198.896 205.121 198.453 204.61 198.453Z" fill="#FAFAFA"/>
<path d="M187.842 206.786H173.176C172.665 206.786 172.25 207.229 172.25 207.775V209.259C172.25 209.805 172.665 210.248 173.176 210.248H187.842C188.353 210.248 188.767 209.805 188.767 209.259V207.775C188.767 207.229 188.353 206.786 187.842 206.786Z" fill="#FAFAFA"/>
<path d="M224.695 139.808H166.353L192.147 161.745L231.698 177.673V147.277C231.694 145.294 230.955 143.394 229.642 141.994C228.329 140.594 226.55 139.808 224.695 139.808Z" fill="#7A0B84"/>
<path opacity="0.4" d="M224.695 139.808H166.353L192.147 161.745L231.698 177.673V147.277C231.694 145.294 230.955 143.394 229.642 141.994C228.329 140.594 226.55 139.808 224.695 139.808Z" fill="black"/>
<path d="M222.146 151.108H179.458C178.817 151.108 178.297 151.663 178.297 152.348V154.662C178.297 155.347 178.817 155.902 179.458 155.902H222.146C222.787 155.902 223.307 155.347 223.307 154.662V152.348C223.307 151.663 222.787 151.108 222.146 151.108Z" fill="#FAFAFA"/>
<path d="M325.592 199.191V155.332C325.592 151.971 323.043 149.247 319.898 149.247H248.647C245.502 149.247 242.953 151.971 242.953 155.332V199.191C242.953 202.552 245.502 205.277 248.647 205.277H319.898C323.043 205.277 325.592 202.552 325.592 199.191Z" fill="#7A0B84"/>
<path d="M338.603 185.292V141.434C338.603 138.073 336.054 135.348 332.909 135.348H261.658C258.513 135.348 255.964 138.073 255.964 141.434V185.292C255.964 188.653 258.513 191.378 261.658 191.378H332.909C336.054 191.378 338.603 188.653 338.603 185.292Z" fill="#7A0B84"/>
<path opacity="0.5" d="M338.603 185.292V141.434C338.603 138.073 336.054 135.348 332.909 135.348H261.658C258.513 135.348 255.964 138.073 255.964 141.434V185.292C255.964 188.653 258.513 191.378 261.658 191.378H332.909C336.054 191.378 338.603 188.653 338.603 185.292Z" fill="white"/>
<path d="M331.372 170.262V143.261C331.372 141.766 330.238 140.554 328.839 140.554H305.554C304.155 140.554 303.021 141.766 303.021 143.261V170.262C303.021 171.758 304.155 172.97 305.554 172.97H328.839C330.238 172.97 331.372 171.758 331.372 170.262Z" fill="#7A0B84"/>
<path opacity="0.7" d="M331.372 170.262V143.261C331.372 141.766 330.238 140.554 328.839 140.554H305.554C304.155 140.554 303.021 141.766 303.021 143.261V170.262C303.021 171.758 304.155 172.97 305.554 172.97H328.839C330.238 172.97 331.372 171.758 331.372 170.262Z" fill="white"/>
<path d="M298.582 183.322V162.634C298.582 161.486 297.711 160.555 296.637 160.555H278.794C277.72 160.555 276.849 161.486 276.849 162.634V183.322C276.849 184.471 277.72 185.401 278.794 185.401H296.637C297.711 185.401 298.582 184.471 298.582 183.322Z" fill="#7A0B84"/>
<path opacity="0.3" d="M298.582 183.322V162.634C298.582 161.486 297.711 160.555 296.637 160.555H278.794C277.72 160.555 276.849 161.486 276.849 162.634V183.322C276.849 184.471 277.72 185.401 278.794 185.401H296.637C297.711 185.401 298.582 184.471 298.582 183.322Z" fill="white"/>
<path d="M287.711 52.1491V40.9749C287.711 37.5582 285.12 34.7885 281.923 34.7885L90.4583 34.7885C87.2617 34.7885 84.6703 37.5582 84.6703 40.9749V52.1491C84.6703 55.5658 87.2617 58.3356 90.4583 58.3356L281.923 58.3356C285.12 58.3356 287.711 55.5658 287.711 52.1491Z" fill="#7A0B84"/>
<path opacity="0.5" d="M287.711 52.1491V40.9749C287.711 37.5582 285.12 34.7885 281.923 34.7885L90.4583 34.7885C87.2617 34.7885 84.6703 37.5582 84.6703 40.9749V52.1491C84.6703 55.5658 87.2617 58.3356 90.4583 58.3356L281.923 58.3356C285.12 58.3356 287.711 55.5658 287.711 52.1491Z" fill="white"/>
<path d="M251.486 62.2754V54.1693L196.39 54.1693V62.2754H251.486Z" fill="#7A0B84"/>
<path opacity="0.5" d="M251.486 62.2754V54.1693L196.39 54.1693V62.2754H251.486Z" fill="white"/>
<path d="M307.467 17.3607V6.18648C307.467 2.76978 304.876 0 301.679 0L110.214 0C107.018 0 104.426 2.76978 104.426 6.18648V17.3607C104.426 20.7774 107.018 23.5472 110.214 23.5472L301.679 23.5472C304.876 23.5472 307.467 20.7774 307.467 17.3607Z" fill="#7A0B84"/>
<path d="M102.238 123.822C101.548 125.498 100.787 127.309 100.121 129.078C99.454 130.846 98.7638 132.666 98.1599 134.476C96.9208 138.006 95.9273 141.629 95.1875 145.315L94.9601 146.656L94.8816 147.159C94.8816 147.302 94.8816 147.486 94.8346 147.654C94.8048 148.47 94.8205 149.287 94.8816 150.102C95.0307 151.87 95.2973 153.765 95.6659 155.659C96.3247 159.457 97.1639 163.372 98.0187 167.228L93.9954 168.904C92.1199 165.25 90.5227 161.44 89.2192 157.512C88.5324 155.468 87.9769 153.375 87.5565 151.25C87.321 150.074 87.1741 148.88 87.1173 147.679C87.1173 147.344 87.1173 147.025 87.1173 146.665C87.1173 146.304 87.1173 145.902 87.1722 145.667L87.3291 143.991C87.5634 141.831 87.9222 139.69 88.4035 137.578C88.8427 135.482 89.4074 133.445 89.9721 131.433C90.5368 129.421 91.2426 127.443 91.9877 125.498C92.3563 124.526 92.7719 123.562 93.1327 122.598C93.4935 121.634 93.917 120.712 94.4189 119.681L102.238 123.822Z" fill="#E4897B"/>
<path d="M97.807 166.096L100.866 169.29L94.1915 172.643C94.1915 172.643 92.5759 169.617 93.6974 166.884L97.807 166.096Z" fill="#E4897B"/>
<path d="M103.336 174.043L97.6972 176.507L94.1993 172.609L100.866 169.29L103.336 174.043Z" fill="#E4897B"/>
<path opacity="0.4" d="M217.566 170.606C206.469 169.274 195.991 164.456 187.456 156.76C178.921 149.064 172.712 138.836 169.615 127.369C166.517 115.902 166.67 103.711 170.054 92.3366C173.438 80.9625 179.901 70.9161 188.626 63.4674C197.351 56.0188 207.946 51.5023 219.072 50.489C230.198 49.4756 241.356 52.011 251.134 57.7744C260.912 63.5379 268.873 72.2707 274.008 82.8689C279.144 93.4671 281.224 105.455 279.986 117.317C279.164 125.198 276.897 132.828 273.314 139.772C269.732 146.716 264.904 152.837 259.107 157.786C253.31 162.735 246.658 166.415 239.53 168.614C232.402 170.814 224.939 171.491 217.566 170.606Z" fill="#FAFAFA"/>
<path opacity="0.4" d="M258.646 63.0718L172.768 136.413C172.407 135.574 172.054 134.736 171.725 133.898C169.572 128.424 168.195 122.638 167.639 116.73L241.816 53.3813C247.906 55.5526 253.599 58.8309 258.646 63.0718Z" fill="#FAFAFA"/>
<path opacity="0.4" d="M278.465 95.2029L197.724 164.151C190.053 159.877 183.406 153.773 178.297 146.313L266.458 71.0187C272.14 77.9906 276.248 86.2648 278.465 95.2029Z" fill="#FAFAFA"/>
<path d="M160.298 87.5579L159.553 87.2896C160.843 83.2198 162.465 79.2788 164.4 75.5118L165.082 75.9142C163.173 79.639 161.572 83.535 160.298 87.5579ZM169.819 67.9925L169.184 67.4979C175.629 58.1829 184.065 50.6498 193.787 45.5267L194.14 46.2812C184.528 51.3514 176.189 58.8039 169.819 68.0177V67.9925ZM255.768 47.4296C253.205 45.9603 250.554 44.6749 247.831 43.5819L248.113 42.7939C250.863 43.9126 253.54 45.2231 256.129 46.7171L255.768 47.4296Z" fill="#7A0B84"/>
<path opacity="0.3" d="M160.298 87.5579L159.553 87.2896C160.843 83.2198 162.465 79.2788 164.4 75.5118L165.082 75.9142C163.173 79.639 161.572 83.535 160.298 87.5579ZM169.819 67.9925L169.184 67.4979C175.629 58.1829 184.065 50.6498 193.787 45.5267L194.14 46.2812C184.528 51.3514 176.189 58.8039 169.819 68.0177V67.9925ZM255.768 47.4296C253.205 45.9603 250.554 44.6749 247.831 43.5819L248.113 42.7939C250.863 43.9126 253.54 45.2231 256.129 46.7171L255.768 47.4296Z" fill="black"/>
<path d="M282.237 79.7955C274.975 63.6967 262.195 51.2022 246.548 44.9023C230.9 38.6024 213.584 38.9803 198.19 45.9576C182.795 52.9349 170.503 65.9764 163.862 82.3786C157.221 98.7808 156.739 117.286 162.518 134.057C157.279 136.019 152.102 138.123 146.958 140.294C139.538 143.44 132.187 146.726 124.904 150.152C117.626 153.597 110.379 157.11 103.203 160.781C99.603 162.584 96.0502 164.486 92.4661 166.331C90.6016 167.187 88.9122 168.426 87.4938 169.977C86.7262 170.836 86.0502 171.784 85.4782 172.802C84.7803 174.007 84.2518 175.314 83.9096 176.683C83.3195 179.15 83.5747 181.761 84.6291 184.044C85.6835 186.328 87.4675 188.132 89.6584 189.132C90.875 189.677 92.1587 190.033 93.47 190.188C94.5775 190.322 95.6956 190.322 96.8031 190.188C98.8158 189.927 100.761 189.246 102.528 188.184C106.081 186.265 109.657 184.412 113.187 182.442C120.245 178.595 127.304 174.579 134.276 170.505C141.248 166.431 148.228 162.164 155.036 157.789C159.741 154.746 164.494 151.636 169.153 148.383C178.098 163.478 192.134 174.315 208.352 178.65C224.57 182.984 241.726 180.484 256.266 171.666C270.805 162.849 281.614 148.39 286.452 131.287C291.29 114.184 289.787 95.7462 282.253 79.7955H282.237ZM246.584 159.876C237.47 164.685 227.226 166.496 217.148 165.083C207.071 163.669 197.611 159.093 189.967 151.933C182.322 144.773 176.835 135.352 174.2 124.859C171.565 114.367 171.9 103.275 175.162 92.9854C178.425 82.6962 184.469 73.6721 192.529 67.0541C200.59 60.4361 210.305 56.5214 220.447 55.805C230.589 55.0886 240.702 57.6026 249.508 63.0292C258.313 68.4559 265.415 76.5514 269.916 86.2921C272.905 92.761 274.673 99.796 275.118 106.995C275.563 114.194 274.677 121.417 272.511 128.25C270.344 135.083 266.939 141.393 262.491 146.819C258.042 152.246 252.637 156.682 246.584 159.876Z" fill="#7A0B84"/>
<path opacity="0.3" d="M282.237 79.7955C274.975 63.6967 262.195 51.2022 246.548 44.9023C230.9 38.6024 213.584 38.9803 198.19 45.9576C182.795 52.9349 170.503 65.9764 163.862 82.3786C157.221 98.7808 156.739 117.286 162.518 134.057C157.279 136.019 152.102 138.123 146.958 140.294C139.538 143.44 132.187 146.726 124.904 150.152C117.626 153.597 110.379 157.11 103.203 160.781C99.603 162.584 96.0502 164.486 92.4661 166.331C90.6016 167.187 88.9122 168.426 87.4938 169.977C86.7262 170.836 86.0502 171.784 85.4782 172.802C84.7803 174.007 84.2518 175.314 83.9096 176.683C83.3195 179.15 83.5747 181.761 84.6291 184.044C85.6835 186.328 87.4675 188.132 89.6584 189.132C90.875 189.677 92.1587 190.033 93.47 190.188C94.5775 190.322 95.6956 190.322 96.8031 190.188C98.8158 189.927 100.761 189.246 102.528 188.184C106.081 186.265 109.657 184.412 113.187 182.442C120.245 178.595 127.304 174.579 134.276 170.505C141.248 166.431 148.228 162.164 155.036 157.789C159.741 154.746 164.494 151.636 169.153 148.383C178.098 163.478 192.134 174.315 208.352 178.65C224.57 182.984 241.726 180.484 256.266 171.666C270.805 162.849 281.614 148.39 286.452 131.287C291.29 114.184 289.787 95.7462 282.253 79.7955H282.237ZM246.584 159.876C237.47 164.685 227.226 166.496 217.148 165.083C207.071 163.669 197.611 159.093 189.967 151.933C182.322 144.773 176.835 135.352 174.2 124.859C171.565 114.367 171.9 103.275 175.162 92.9854C178.425 82.6962 184.469 73.6721 192.529 67.0541C200.59 60.4361 210.305 56.5214 220.447 55.805C230.589 55.0886 240.702 57.6026 249.508 63.0292C258.313 68.4559 265.415 76.5514 269.916 86.2921C272.905 92.761 274.673 99.796 275.118 106.995C275.563 114.194 274.677 121.417 272.511 128.25C270.344 135.083 266.939 141.393 262.491 146.819C258.042 152.246 252.637 156.682 246.584 159.876Z" fill="black"/>
<path d="M123.916 93.8868C123.916 94.3814 124.159 94.7838 124.465 94.7838C124.77 94.7838 125.014 94.3814 125.014 93.8868C125.014 93.3922 124.77 92.9899 124.465 92.9899C124.159 92.9899 123.916 93.4258 123.916 93.8868Z" fill="#263238"/>
<path d="M124.135 94.7838C124.69 96.302 125.437 97.7319 126.355 99.0339C126.037 99.2765 125.674 99.4419 125.291 99.5187C124.907 99.5954 124.513 99.5816 124.135 99.4782V94.7838Z" fill="#DE5753"/>
<path d="M122.292 91.1289C122.248 91.1289 122.205 91.1184 122.166 91.0981C122.126 91.0777 122.092 91.0482 122.065 91.0115C122.024 90.9476 122.007 90.8692 122.019 90.7928C122.031 90.7163 122.07 90.6476 122.127 90.6008C122.473 90.3208 122.876 90.1342 123.304 90.0568C123.731 89.9795 124.17 90.0137 124.582 90.1565C124.619 90.1673 124.654 90.1863 124.683 90.2122C124.713 90.2381 124.738 90.2704 124.755 90.307C124.772 90.3436 124.782 90.3837 124.784 90.4247C124.786 90.4657 124.78 90.5066 124.766 90.5449C124.752 90.5832 124.731 90.618 124.704 90.647C124.677 90.676 124.644 90.6986 124.609 90.7134C124.573 90.7281 124.535 90.7347 124.496 90.7326C124.458 90.7305 124.42 90.7199 124.386 90.7014C124.059 90.594 123.712 90.5722 123.375 90.6379C123.037 90.7035 122.72 90.8546 122.449 91.0786C122.402 91.1116 122.348 91.1291 122.292 91.1289Z" fill="#263238"/>
<path d="M108.073 97.6172C108.857 102.119 109.72 110.376 106.771 113.385C106.771 113.385 107.924 117.954 115.759 117.954C124.386 117.954 119.869 113.385 119.869 113.385C115.163 112.178 115.296 108.456 116.112 104.952L108.073 97.6172Z" fill="#E4897B"/>
<path d="M103.25 115.758C104.183 114.207 102.615 110.443 102.615 110.443C102.615 110.443 116.481 106.713 122.151 112.438C123.327 113.62 122.025 115.364 122.025 115.364L103.25 115.758Z" fill="#7A0B84"/>
<path opacity="0.1" d="M103.25 115.758C104.183 114.207 102.615 110.443 102.615 110.443C102.615 110.443 116.481 106.713 122.151 112.438C123.327 113.62 122.025 115.364 122.025 115.364L103.25 115.758Z" fill="black"/>
<path d="M80.3098 286.791C79.5804 286.791 78.4118 285.491 78.0668 285.005C78.0519 284.982 78.044 284.954 78.044 284.926C78.044 284.897 78.0519 284.87 78.0668 284.846C78.0794 284.823 78.0978 284.803 78.1198 284.79C78.1419 284.777 78.1669 284.77 78.1922 284.771C78.2785 284.771 80.2 284.955 80.7255 285.684C80.7826 285.761 80.8234 285.851 80.8451 285.946C80.8667 286.042 80.8687 286.141 80.8509 286.238C80.8441 286.362 80.8012 286.482 80.7282 286.579C80.6551 286.677 80.5555 286.748 80.4431 286.782L80.3098 286.791ZM78.4903 285.114C79.0628 285.818 79.9804 286.615 80.3725 286.514C80.3725 286.514 80.5294 286.472 80.5764 286.204C80.5868 286.148 80.5851 286.09 80.5715 286.035C80.5579 285.98 80.5328 285.929 80.498 285.885C79.917 285.415 79.218 285.141 78.4903 285.097V285.114Z" fill="#7A0B84"/>
<path d="M78.5766 285.098C78.4357 285.113 78.2939 285.113 78.153 285.098C78.1283 285.096 78.1046 285.086 78.085 285.069C78.0655 285.053 78.0509 285.031 78.0433 285.005C78.0322 284.982 78.0265 284.956 78.0265 284.93C78.0265 284.904 78.0322 284.878 78.0433 284.854C78.0982 284.804 79.251 283.522 80.1216 283.522C80.2258 283.519 80.3292 283.54 80.4252 283.583C80.5212 283.627 80.6075 283.691 80.6784 283.773C80.7565 283.843 80.8099 283.939 80.8299 284.046C80.8499 284.152 80.8352 284.263 80.7882 284.36C80.5608 284.829 79.3608 285.098 78.5766 285.098ZM78.4746 284.804C79.2589 284.804 80.3961 284.544 80.5843 284.175C80.5843 284.175 80.6392 284.066 80.5137 283.932C80.4681 283.879 80.4121 283.838 80.3498 283.81C80.2875 283.783 80.2203 283.77 80.1529 283.773C79.51 283.931 78.9257 284.29 78.4746 284.804Z" fill="#7A0B84"/>
<path d="M132.064 305.82C131.47 305.815 130.877 305.756 130.292 305.644C130.263 305.638 130.236 305.621 130.218 305.596C130.199 305.572 130.189 305.541 130.19 305.51C130.185 305.481 130.189 305.451 130.2 305.424C130.211 305.397 130.229 305.375 130.252 305.359C130.339 305.308 132.346 304.076 133.311 304.361C133.401 304.383 133.485 304.424 133.559 304.481C133.633 304.539 133.696 304.612 133.742 304.696C133.804 304.79 133.837 304.901 133.837 305.015C133.837 305.129 133.804 305.24 133.742 305.333C133.515 305.711 132.801 305.82 132.064 305.82ZM130.739 305.426C131.805 305.593 133.264 305.585 133.531 305.183C133.57 305.132 133.601 305.04 133.531 304.864C133.471 304.76 133.375 304.685 133.264 304.654C132.652 304.487 131.437 305.04 130.739 305.426Z" fill="#7A0B84"/>
<path d="M130.323 305.652C130.297 305.66 130.27 305.66 130.245 305.652C130.223 305.637 130.206 305.615 130.196 305.59C130.186 305.564 130.184 305.536 130.19 305.509C130.243 304.637 130.556 303.805 131.084 303.137C131.19 303.039 131.316 302.966 131.451 302.924C131.586 302.882 131.729 302.872 131.868 302.894C132.245 302.894 132.354 303.137 132.378 303.296C132.48 303.992 131.107 305.325 130.409 305.66L130.323 305.652ZM131.727 303.137C131.554 303.136 131.387 303.201 131.256 303.322C130.813 303.851 130.538 304.517 130.472 305.224C131.178 304.763 132.119 303.724 132.041 303.305C132.041 303.305 132.041 303.162 131.774 303.137H131.727Z" fill="#7A0B84"/>
<path d="M123.986 305.501H129.751L130.323 291.242H124.559L123.986 305.501Z" fill="#E4897B"/>
<path d="M72.6553 281.024L77.4707 284.393L88.1055 274.795L83.2822 271.417L72.6553 281.024Z" fill="#E4897B"/>
<path d="M78.2628 284.075L73.2592 279.691C73.1708 279.613 73.0599 279.571 72.9455 279.571C72.831 279.571 72.7202 279.613 72.6317 279.691L68.5065 283.153C68.4068 283.238 68.3263 283.345 68.271 283.468C68.2157 283.591 68.1869 283.725 68.1869 283.861C68.1869 283.997 68.2157 284.132 68.271 284.254C68.3263 284.377 68.4068 284.485 68.5065 284.569C70.2789 286.07 71.2122 286.707 73.416 288.635C74.7728 289.817 78.1217 293.438 80.0118 295.073C81.9019 296.708 83.6351 294.947 83.0077 294.101C80.1922 290.286 79.0863 287.026 78.7648 285.005C78.7092 284.64 78.5307 284.309 78.2628 284.075Z" fill="#263238"/>
<path d="M129.711 304.789H123.437C123.323 304.789 123.212 304.831 123.122 304.907C123.033 304.983 122.969 305.089 122.943 305.208L121.806 310.682C121.777 310.814 121.777 310.952 121.806 311.085C121.835 311.217 121.891 311.341 121.971 311.447C122.051 311.553 122.153 311.638 122.268 311.696C122.384 311.753 122.51 311.782 122.637 311.78C124.904 311.738 128.182 311.595 131.037 311.595C134.37 311.595 137.256 311.788 141.162 311.788C143.515 311.788 144.189 309.231 143.193 309.005C138.691 307.949 135.005 307.84 131.115 305.266C130.698 304.971 130.212 304.806 129.711 304.789Z" fill="#263238"/>
<path d="M95.415 115.221C90.4191 117.736 87.5722 134.585 87.5722 134.585L99.7834 139.791C101.571 135.126 103.016 130.319 104.105 125.414C105.783 117.652 100.528 112.622 95.415 115.221Z" fill="#263238"/>
<path d="M101.893 124.719C98.8736 127.988 97.4933 134.392 96.8894 138.559L99.8147 139.808C101.551 135.275 102.967 130.61 104.05 125.85C103.791 124.073 103.148 123.361 101.893 124.719Z" fill="#203048"/>
<path d="M128.731 115.104C128.731 115.104 134.864 122.514 129.076 168.334H98.2619C98.0501 163.305 101.023 138.617 96.458 114.794C99.8634 114.088 103.309 113.623 106.771 113.402C111.133 113.125 115.507 113.125 119.869 113.402C122.859 113.724 125.822 114.293 128.731 115.104Z" fill="#263238"/>
<path d="M131.547 132.892L126.355 123.327C125.352 127.79 124.943 132.381 125.139 136.966C125.28 140.252 128.096 152.424 130.629 154.201C131.301 147.121 131.607 140.007 131.547 132.892Z" fill="#203048"/>
<path d="M132.268 121.651C133.052 125.725 133.837 129.899 134.676 133.99C135.515 138.081 136.386 142.188 137.397 146.153C137.656 147.134 137.899 148.14 138.181 149.079L138.393 149.8L138.495 150.16V150.118C138.44 150.043 138.378 150.035 138.425 150.118C138.747 150.495 139.159 150.77 139.617 150.915C140.358 151.21 141.122 151.437 141.899 151.594C145.607 152.222 149.361 152.483 153.114 152.373L153.859 156.934C152.808 157.294 151.828 157.554 150.793 157.814C149.757 158.074 148.738 158.292 147.695 158.459C145.537 158.843 143.349 159 141.162 158.929C139.946 158.894 138.737 158.725 137.554 158.426C136.05 158.074 134.636 157.373 133.413 156.372C132.615 155.683 131.955 154.827 131.476 153.857C131.35 153.606 131.241 153.321 131.139 153.077L130.998 152.683L130.707 151.845C130.307 150.781 129.978 149.733 129.617 148.685C128.292 144.494 127.186 140.26 126.213 136.035C125.241 131.81 124.402 127.594 123.704 123.26L132.268 121.651Z" fill="#E4897B"/>
<path d="M121.037 119.597C119.414 125.222 125.994 141.995 125.994 141.995L139.099 138.475C139.099 138.475 138.597 129.757 135.609 122.841C131.107 112.413 122.982 112.849 121.037 119.597Z" fill="#263238"/>
<path d="M153.004 152.373L159.529 152.197L156.392 159.457C156.392 159.457 153.734 159.834 151.553 156.003L149.255 153.069L151.898 152.507C152.262 152.426 152.633 152.381 153.004 152.373Z" fill="#E4897B"/>
<path d="M163.647 153.547L159.914 159.566L156.392 159.457L159.529 152.197L163.647 153.547Z" fill="#E4897B"/>
<path d="M130.323 291.242L130.025 298.594H124.261L124.559 291.242H130.323Z" fill="#CE6F64"/>
<path d="M83.2822 271.417L88.1055 274.795L82.6156 279.741L77.8001 276.371L83.2822 271.417Z" fill="#CE6F64"/>
<path d="M108.434 92.8222C108.779 98.9165 108.693 102.513 111.571 105.639C115.9 110.359 122.951 107.568 124.316 101.448C125.547 95.9658 124.778 86.9124 119.194 84.4814C117.962 83.9498 116.624 83.7616 115.305 83.9343C113.986 84.107 112.73 84.635 111.654 85.4688C110.579 86.3025 109.719 87.4147 109.156 88.701C108.592 89.9872 108.344 91.4053 108.434 92.8222Z" fill="#E4897B"/>
<path d="M101.721 91.7492C103.14 97.307 106.481 103.711 110.802 104.122C116.167 104.625 118.59 98.6985 119.296 92.5791C122.512 90.2236 120.825 87.6333 124.049 87.3064C128.19 86.8872 126.864 78.7895 121.414 77.4902C121.414 77.4902 123.241 81.1367 119.406 79.2925C115.759 77.4398 111.707 76.689 107.689 77.1213C107.689 77.1213 112.583 79.7367 107.799 80.9019C103.015 82.0671 101.587 85.2191 103.791 87.1219C103.791 87.1303 100.787 88.0943 101.721 91.7492Z" fill="#263238"/>
<path d="M116.026 93.8366C116.131 95.3515 116.702 96.7867 117.649 97.919C118.904 99.4028 120.214 98.4807 120.433 96.6784C120.637 95.0605 120.222 92.3361 118.684 91.5146C117.147 90.6931 115.924 92.0092 116.026 93.8366Z" fill="#E4897B"/>
<path d="M118.143 168.334C118.143 168.334 123.759 211.799 119.335 229.218C112.324 256.797 85.5174 280.076 85.5174 280.076L76.4276 273.705C76.4276 273.705 99.2579 254.048 102.05 230.953C104.56 210.223 98.2619 185.15 98.2619 168.326L118.143 168.334Z" fill="#7A0B84"/>
<path opacity="0.1" d="M118.143 168.334C118.143 168.334 123.759 211.799 119.335 229.218C112.324 256.797 85.5174 280.076 85.5174 280.076L76.4276 273.705C76.4276 273.705 99.2579 254.048 102.05 230.953C104.56 210.223 98.2619 185.15 98.2619 168.326L118.143 168.334Z" fill="black"/>
<path d="M120.465 193.181C118.97 191.35 117.324 189.667 115.547 188.151C116.504 202.259 117.288 223.157 116.418 238.003C117.588 235.157 118.563 232.224 119.335 229.226C121.492 220.718 121.265 206.023 120.465 193.181Z" fill="#7A0B84"/>
<path opacity="0.3" d="M120.465 193.181C118.97 191.35 117.324 189.667 115.547 188.151C116.504 202.259 117.288 223.157 116.418 238.003C117.588 235.157 118.563 232.224 119.335 229.226C121.492 220.718 121.265 206.023 120.465 193.181Z" fill="black"/>
<path d="M89.18 277.905C89.2192 277.905 85.6586 280.42 85.6586 280.42L75.7296 273.462L78.8667 270.688L89.18 277.905Z" fill="#7A0B84"/>
<path opacity="0.3" d="M89.18 277.905C89.2192 277.905 85.6586 280.42 85.6586 280.42L75.7296 273.462L78.8667 270.688L89.18 277.905Z" fill="black"/>
<path d="M129.076 168.334C129.076 168.334 137.75 207.649 138.362 226.435C139.052 247.492 132.174 297.169 132.174 297.169H122.41C122.41 297.169 121.21 247.107 120.778 227.927C120.3 207.012 108.818 168.334 108.818 168.334H129.076Z" fill="#7A0B84"/>
<path opacity="0.1" d="M129.076 168.334C129.076 168.334 137.75 207.649 138.362 226.435C139.052 247.492 132.174 297.169 132.174 297.169H122.41C122.41 297.169 121.21 247.107 120.778 227.927C120.3 207.012 108.818 168.334 108.818 168.334H129.076Z" fill="black"/>
<path d="M134.048 293.019C134.095 293.019 133.499 297.345 133.499 297.345H121.625L121.304 293.48L134.048 293.019Z" fill="#7A0B84"/>
<path opacity="0.3" d="M134.048 293.019C134.095 293.019 133.499 297.345 133.499 297.345H121.625L121.304 293.48L134.048 293.019Z" fill="black"/>
<path d="M279.202 130.553C279.869 131.224 280.394 131.794 280.943 132.431C281.492 133.068 282.01 133.688 282.512 134.334C283.531 135.616 284.488 136.966 285.414 138.324C287.262 141.048 288.906 143.924 290.331 146.925L290.621 147.536C290.763 147.833 290.881 148.141 290.974 148.459C291.163 149.072 291.279 149.709 291.319 150.353C291.37 151.49 291.224 152.626 290.888 153.706C290.315 155.5 289.464 157.177 288.37 158.669C286.399 161.374 284.075 163.762 281.469 165.761L279.516 163.363C280.433 162.215 281.39 160.982 282.245 159.75C283.115 158.556 283.901 157.295 284.598 155.978C285.249 154.828 285.73 153.579 286.025 152.273C286.127 151.806 286.145 151.322 286.08 150.848C286.052 150.688 286.005 150.533 285.939 150.387C285.91 150.322 285.876 150.261 285.837 150.202L285.586 149.749C284.074 147.113 282.432 144.564 280.669 142.113C279.798 140.881 278.865 139.699 277.924 138.533C277.461 137.947 276.983 137.377 276.504 136.807C276.026 136.236 275.508 135.666 275.092 135.222L279.202 130.553Z" fill="#E4897B"/>
<path d="M280.269 162.659L274.41 161.636L277.477 167.119C277.477 167.119 281.249 166.976 282.323 164.604L280.269 162.659Z" fill="#E4897B"/>
<path d="M270.081 164.168L272.873 168.619L277.477 167.119L274.41 161.636L270.081 164.168Z" fill="#E4897B"/>
<path d="M279.986 305.744C279.588 305.781 279.191 305.665 278.865 305.417C278.767 305.318 278.694 305.193 278.654 305.055C278.614 304.917 278.609 304.77 278.637 304.629C278.643 304.539 278.672 304.453 278.72 304.379C278.768 304.305 278.835 304.247 278.912 304.21C279.594 303.883 281.382 305.107 281.586 305.25C281.61 305.265 281.628 305.288 281.637 305.315C281.647 305.342 281.649 305.372 281.641 305.401C281.638 305.429 281.627 305.456 281.608 305.477C281.59 305.498 281.566 305.513 281.539 305.518C281.031 305.656 280.51 305.732 279.986 305.744ZM279.202 304.445C279.145 304.435 279.087 304.435 279.03 304.445C278.995 304.462 278.966 304.489 278.945 304.523C278.924 304.557 278.913 304.597 278.912 304.638C278.891 304.731 278.893 304.829 278.918 304.921C278.943 305.014 278.989 305.098 279.053 305.166C279.351 305.451 280.12 305.493 281.147 305.275C280.559 304.859 279.897 304.577 279.202 304.445Z" fill="#7A0B84"/>
<path d="M281.555 305.509H281.484C280.927 305.166 279.853 303.833 279.986 303.104C280.012 302.989 280.071 302.886 280.156 302.81C280.241 302.734 280.347 302.69 280.457 302.684C280.563 302.668 280.671 302.678 280.773 302.713C280.875 302.748 280.968 302.807 281.045 302.886C281.688 303.489 281.696 305.3 281.696 305.4C281.695 305.426 281.687 305.451 281.675 305.473C281.663 305.494 281.646 305.513 281.625 305.526L281.555 305.509ZM280.551 302.995H280.488C280.316 302.995 280.277 303.095 280.261 303.171C280.182 303.598 280.849 304.621 281.406 305.099C281.42 304.396 281.231 303.705 280.865 303.12C280.818 303.074 280.762 303.038 280.701 303.016C280.64 302.995 280.576 302.987 280.512 302.995H280.551Z" fill="#7A0B84"/>
<path d="M253.258 305.744C252.758 305.795 252.256 305.659 251.839 305.359C251.745 305.269 251.672 305.157 251.627 305.032C251.582 304.906 251.566 304.771 251.58 304.638C251.585 304.556 251.609 304.477 251.65 304.408C251.691 304.34 251.748 304.283 251.815 304.244C252.545 303.808 254.882 305.082 255.148 305.241C255.173 305.258 255.192 305.282 255.205 305.31C255.217 305.338 255.222 305.37 255.219 305.401C255.214 305.43 255.201 305.457 255.182 305.478C255.162 305.499 255.137 305.513 255.109 305.518C254.5 305.656 253.881 305.732 253.258 305.744ZM252.215 304.445C252.125 304.439 252.036 304.459 251.956 304.504C251.928 304.518 251.904 304.54 251.888 304.569C251.871 304.597 251.862 304.629 251.862 304.663C251.85 304.75 251.858 304.839 251.886 304.922C251.913 305.006 251.959 305.081 252.019 305.141C252.38 305.484 253.345 305.543 254.646 305.308C253.887 304.876 253.065 304.584 252.215 304.445Z" fill="#7A0B84"/>
<path d="M255.086 305.509H255.023C254.325 305.174 252.937 303.833 253.046 303.104C253.046 302.936 253.188 302.726 253.572 302.684C253.712 302.668 253.854 302.683 253.989 302.728C254.124 302.772 254.249 302.846 254.356 302.944C255.093 303.598 255.235 305.291 255.235 305.367C255.238 305.392 255.234 305.418 255.225 305.442C255.215 305.466 255.199 305.486 255.18 305.501C255.15 305.515 255.117 305.518 255.086 305.509ZM253.682 302.995H253.595C253.345 302.995 253.329 303.129 253.321 303.162C253.258 303.59 254.199 304.654 254.89 305.115C254.821 304.399 254.547 303.722 254.105 303.179C253.986 303.071 253.838 303.006 253.682 302.995Z" fill="#7A0B84"/>
<path d="M264.356 111.281C264.128 115.07 263.517 122.765 266.238 124.895C266.238 124.895 265.744 128.776 259.321 129.681C252.262 130.662 255.486 126.403 255.486 126.403C259.227 124.878 258.748 121.835 257.729 119.052L264.356 111.281Z" fill="#E4897B"/>
<path d="M249.745 104.583C249.706 104.583 249.668 104.574 249.632 104.557C249.597 104.54 249.566 104.514 249.541 104.483C249.317 104.198 249.033 103.974 248.713 103.829C248.393 103.683 248.045 103.62 247.698 103.644C247.661 103.652 247.623 103.651 247.587 103.642C247.551 103.633 247.516 103.616 247.486 103.593C247.456 103.569 247.431 103.539 247.412 103.505C247.393 103.47 247.381 103.432 247.376 103.393C247.367 103.314 247.388 103.235 247.433 103.172C247.479 103.109 247.546 103.068 247.619 103.058C248.062 103.018 248.507 103.093 248.917 103.277C249.327 103.461 249.689 103.748 249.972 104.114C250.006 104.158 250.028 104.211 250.035 104.267C250.042 104.323 250.034 104.381 250.012 104.432C249.99 104.484 249.954 104.528 249.91 104.559C249.865 104.59 249.814 104.607 249.76 104.608L249.745 104.583Z" fill="#263238"/>
<path d="M248.521 108.297C248.243 109.499 247.813 110.655 247.243 111.734C247.505 111.884 247.794 111.971 248.091 111.989C248.388 112.006 248.685 111.953 248.96 111.834L248.521 108.297Z" fill="#DE5753"/>
<path d="M248.835 107.375C248.898 107.878 248.702 108.314 248.396 108.364C248.09 108.414 247.784 108.029 247.729 107.526C247.674 107.023 247.862 106.587 248.168 106.545C248.474 106.503 248.78 106.838 248.835 107.375Z" fill="#263238"/>
<path d="M248.309 106.553L247.141 106.36C247.141 106.36 247.831 107.224 248.309 106.553Z" fill="#263238"/>
<path d="M261.548 305.375H255.666L255.274 290.831H261.156L261.548 305.375Z" fill="#E4897B"/>
<path d="M288.253 305.375H282.371L280.48 290.831H286.363L288.253 305.375Z" fill="#E4897B"/>
<path d="M282.01 304.671H288.613C288.726 304.67 288.835 304.713 288.92 304.792C289.005 304.87 289.061 304.979 289.076 305.099L289.86 310.69C289.875 310.831 289.861 310.974 289.82 311.108C289.779 311.243 289.712 311.368 289.624 311.473C289.535 311.578 289.426 311.662 289.305 311.719C289.183 311.777 289.052 311.806 288.919 311.805C286.621 311.763 285.508 311.62 282.606 311.62C280.818 311.62 278.206 311.813 275.743 311.813C273.281 311.813 273.147 309.206 274.175 308.972C278.779 307.915 279.508 306.457 281.053 305.057C281.323 304.818 281.659 304.682 282.01 304.671Z" fill="#263238"/>
<path d="M255.47 304.671H262.066C262.179 304.67 262.289 304.712 262.376 304.791C262.462 304.869 262.519 304.979 262.536 305.099L263.32 310.69C263.335 310.831 263.321 310.974 263.28 311.108C263.24 311.243 263.173 311.368 263.084 311.473C262.995 311.578 262.886 311.662 262.765 311.719C262.643 311.777 262.512 311.806 262.379 311.805C260.081 311.763 258.968 311.62 256.066 311.62C254.278 311.62 250.576 311.813 248.113 311.813C245.651 311.813 245.517 309.206 246.545 308.972C251.149 307.915 252.96 306.457 254.513 305.057C254.783 304.818 255.12 304.682 255.47 304.671Z" fill="#263238"/>
<path d="M255.274 290.831L255.478 298.334H261.36L261.156 290.831H255.274Z" fill="#CE6F64"/>
<path d="M286.363 290.831H280.48L281.461 298.334H287.335L286.363 290.831Z" fill="#CE6F64"/>
<path d="M264.434 103.435C264.834 109.655 265.124 112.279 262.599 115.858C258.795 121.231 251.564 120.401 249.431 114.433C247.51 109.06 247.18 99.7966 252.529 96.5441C253.706 95.8233 255.035 95.4358 256.391 95.4183C257.747 95.4009 259.085 95.754 260.278 96.4443C261.47 97.1345 262.478 98.139 263.205 99.3624C263.933 100.586 264.356 101.988 264.434 103.435Z" fill="#E4897B"/>
<path d="M267.822 109.211C271.085 111.155 273.508 106.36 273.508 106.36C273.508 106.36 267.658 107.039 268.183 103.317C268.873 98.38 265.564 92.3779 257.266 93.1492C256.803 93.1911 256.364 93.2498 255.933 93.3252C255.064 92.8851 254.082 92.7715 253.145 93.0028C252.208 93.234 251.372 93.7966 250.772 94.5994C248.419 94.8089 245.243 97.81 247.4 101.775C247.551 101.319 247.786 100.901 248.09 100.543C248.27 102.865 250.168 106.553 252.537 106.796C253.046 109.973 251.07 113.653 251.752 116.973C252.764 121.76 260.317 122.841 260.317 122.841C260.056 122.243 259.959 121.579 260.037 120.925C260.115 120.271 260.364 119.653 260.756 119.144C265.885 121.659 269.265 119.203 269.265 119.203C265.767 117.811 266.826 115.33 266.826 115.33C268.034 115.903 269.403 115.953 270.644 115.47C271.886 114.987 272.904 114.008 273.485 112.74C272.323 112.799 271.17 112.497 270.165 111.87C269.16 111.244 268.346 110.32 267.822 109.211Z" fill="#263238"/>
<path d="M254.584 107.752C254.597 108.349 254.501 108.943 254.299 109.5C254.097 110.056 253.794 110.565 253.407 110.996C252.372 112.144 251.101 111.34 250.756 109.873C250.451 108.548 250.623 106.36 251.972 105.757C252.269 105.632 252.59 105.589 252.907 105.631C253.223 105.672 253.525 105.798 253.785 105.996C254.044 106.195 254.253 106.459 254.393 106.766C254.532 107.072 254.598 107.411 254.584 107.752Z" fill="#E4897B"/>
<path d="M259.47 165.702C259.47 165.702 260.96 207.079 264.505 231.372C267.36 251.005 280.041 296.875 280.041 296.875H288.057C288.057 296.875 281.445 252.572 279.994 233.166C276.324 184.052 285.853 173.506 276.857 163.279L259.47 165.702Z" fill="#263238"/>
<path d="M266.167 178.787C266.167 178.787 262.544 178.117 260.427 185.494C261.211 199.468 262.552 218.01 264.505 231.372C264.936 234.348 265.595 237.936 266.403 241.868C264.873 218.262 266.167 178.787 266.167 178.787Z" fill="#161F33"/>
<path d="M253.219 166.574C253.219 166.574 246.615 212.352 247 231.507C247.4 251.432 254.231 296.892 254.231 296.892H262.175C262.175 296.892 260.921 252.614 261.619 233.049C262.403 211.715 270.551 164.168 270.551 164.168L253.219 166.574Z" fill="#263238"/>
<path d="M289.217 297.278H278.559L277.728 293.455L289.139 293.539L289.217 297.278Z" fill="#7A0B84"/>
<path opacity="0.2" d="M289.217 297.278H278.559L277.728 293.455L289.139 293.539L289.217 297.278Z" fill="black"/>
<path d="M276.457 124.903C279.524 125.222 284.182 134.535 284.182 134.535L276.441 140.881C276.441 140.881 270.034 134.87 270.795 131.492C271.587 127.979 273.516 124.61 276.457 124.903Z" fill="#7A0B84"/>
<path opacity="0.1" d="M276.457 124.903C279.524 125.222 284.182 134.535 284.182 134.535L276.441 140.881C276.441 140.881 270.034 134.87 270.795 131.492C271.587 127.979 273.516 124.61 276.457 124.903Z" fill="black"/>
<path d="M274.143 128.91C273.362 128.685 272.552 128.589 271.744 128.625C271.332 129.542 271.014 130.503 270.795 131.492C270.01 134.845 276.441 140.881 276.441 140.881L277.014 140.411L274.143 128.91Z" fill="#7A0B84"/>
<path opacity="0.3" d="M274.143 128.91C273.362 128.685 272.552 128.589 271.744 128.625C271.332 129.542 271.014 130.503 270.795 131.492C270.01 134.845 276.441 140.881 276.441 140.881L277.014 140.411L274.143 128.91Z" fill="black"/>
<path d="M250.592 137.854C248.357 143.898 246.004 150.043 244.129 156.104C244.004 156.489 243.902 156.858 243.792 157.235L243.525 158.166C243.453 158.44 243.453 158.73 243.525 159.004C243.968 160.052 244.67 160.951 245.557 161.603C247.902 163.401 250.456 164.864 253.156 165.953L252.45 169.038C249.129 168.57 245.917 167.45 242.976 165.735C241.167 164.702 239.693 163.106 238.749 161.158C238.207 159.914 238.019 158.526 238.208 157.168C238.226 157.002 238.252 156.837 238.286 156.674L238.365 156.322L238.498 155.685C238.592 155.257 238.686 154.846 238.788 154.427C239.573 151.074 240.577 147.889 241.635 144.728C242.694 141.568 243.8 138.45 245.047 135.34L250.592 137.854Z" fill="#E4897B"/>
<path d="M245.831 129.371C245.831 129.371 243.18 130.804 253.219 166.574L276.888 163.271C275.226 153.027 274.442 146.681 276.457 124.903C273.063 124.643 269.656 124.643 266.262 124.903C262.648 125.128 259.054 125.632 255.509 126.412C250.968 127.493 245.831 129.371 245.831 129.371Z" fill="#7A0B84"/>
<path opacity="0.1" d="M245.831 129.371C245.831 129.371 243.18 130.804 253.219 166.574L276.888 163.271C275.226 153.027 274.442 146.681 276.457 124.903C273.063 124.643 269.656 124.643 266.262 124.903C262.648 125.128 259.054 125.632 255.509 126.412C250.968 127.493 245.831 129.371 245.831 129.371Z" fill="black"/>
<path d="M277.061 161.737L278.418 163.841C278.52 164.009 278.347 164.21 278.081 164.252L253.258 167.722C253.046 167.722 252.85 167.663 252.819 167.521L252.333 165.283C252.294 165.132 252.466 164.973 252.701 164.939L276.669 161.586C276.741 161.574 276.815 161.581 276.883 161.607C276.952 161.634 277.013 161.678 277.061 161.737Z" fill="#7A0B84"/>
<path opacity="0.2" d="M277.061 161.737L278.418 163.841C278.52 164.009 278.347 164.21 278.081 164.252L253.258 167.722C253.046 167.722 252.85 167.663 252.819 167.521L252.333 165.283C252.294 165.132 252.466 164.973 252.701 164.939L276.669 161.586C276.741 161.574 276.815 161.581 276.883 161.607C276.952 161.634 277.013 161.678 277.061 161.737Z" fill="black"/>
<path d="M274.191 165.048L274.834 164.956C274.959 164.956 275.045 164.855 275.03 164.771L274.371 161.871C274.346 161.821 274.306 161.783 274.257 161.761C274.209 161.74 274.155 161.737 274.104 161.754L273.461 161.837C273.328 161.837 273.242 161.938 273.265 162.03L273.924 164.922C273.94 165.015 274.065 165.065 274.191 165.048Z" fill="#263238"/>
<path d="M258.631 167.194L259.274 167.102C259.399 167.102 259.493 167.001 259.47 166.917L258.811 164.017C258.785 163.968 258.745 163.929 258.697 163.907C258.649 163.884 258.595 163.879 258.544 163.891L257.901 163.983C257.776 163.983 257.682 164.084 257.705 164.168L258.364 167.068C258.38 167.194 258.505 167.244 258.631 167.194Z" fill="#263238"/>
<path d="M246.937 141.509C247.588 144.745 248.506 148.844 249.847 154.033L250.137 140.881L246.937 141.509Z" fill="#7A0B84"/>
<path opacity="0.3" d="M246.937 141.509C247.588 144.745 248.506 148.844 249.847 154.033L250.137 140.881L246.937 141.509Z" fill="black"/>
<path d="M245.831 129.371C242.89 130.637 240.341 141.392 240.341 141.392L250.458 146.656C250.458 146.656 255.344 133.504 253.156 130.939C250.968 128.373 249.219 127.921 245.831 129.371Z" fill="#7A0B84"/>
<path opacity="0.1" d="M245.831 129.371C242.89 130.637 240.341 141.392 240.341 141.392L250.458 146.656C250.458 146.656 255.344 133.504 253.156 130.939C250.968 128.373 249.219 127.921 245.831 129.371Z" fill="black"/>
<path d="M263.532 297.278H252.874L252.043 293.455L263.909 293.539L263.532 297.278Z" fill="#7A0B84"/>
<path opacity="0.2" d="M263.532 297.278H252.874L252.043 293.455L263.909 293.539L263.532 297.278Z" fill="black"/>
<path d="M253.321 164.914L252.466 164.537C252.256 164.445 252.027 164.415 251.802 164.449C251.578 164.483 251.365 164.579 251.187 164.729C251.009 164.879 250.87 165.077 250.787 165.302C250.703 165.527 250.676 165.772 250.709 166.012L251.329 170.379C251.359 170.598 251.433 170.807 251.548 170.991C251.662 171.175 251.814 171.329 251.991 171.443C252.168 171.557 252.366 171.627 252.572 171.649C252.778 171.671 252.985 171.644 253.18 171.57C253.491 171.449 253.782 171.276 254.043 171.058C254.326 170.807 254.551 170.488 254.698 170.127C254.845 169.766 254.91 169.373 254.89 168.98L254.803 167.169C254.788 166.68 254.64 166.206 254.377 165.805C254.114 165.405 253.747 165.095 253.321 164.914Z" fill="#E4897B"/>
</svg>
